<?xml version="1.0" encoding="utf-8"?>
<!-- Generator: Adobe Illustrator 25.3.1, SVG Export Plug-In . SVG Version: 6.00 Build 0)  -->
<svg version="1.1" id="OBJECTS" xmlns="http://www.w3.org/2000/svg" xmlns:xlink="http://www.w3.org/1999/xlink" x="0px" y="0px"
	 viewBox="0 0 309.6 254.88" style="enable-background:new 0 0 309.6 254.88;" xml:space="preserve">
<style type="text/css">
	.st0{fill:#B5E5FF;}
	.st1{fill:url(#XMLID_92_);}
	.st2{fill:url(#XMLID_93_);}
	.st3{fill:url(#XMLID_94_);}
	.st4{fill:url(#XMLID_95_);}
	.st5{fill:url(#XMLID_96_);}
	.st6{fill:url(#XMLID_97_);}
	.st7{fill:url(#XMLID_98_);}
	.st8{fill:url(#XMLID_99_);}
	.st9{fill:url(#XMLID_100_);}
	.st10{fill:url(#XMLID_101_);}
	.st11{fill:url(#XMLID_102_);}
	.st12{fill:url(#XMLID_103_);}
	.st13{fill:url(#XMLID_104_);}
	.st14{fill:url(#XMLID_105_);}
	.st15{fill:#5E5E5E;}
	.st16{font-family:'Roboto-Regular';}
	.st17{font-size:6.8258px;}
	.st18{fill:#E0F1FC;}
	.st19{fill:none;stroke:#5E5E5E;stroke-linecap:round;stroke-linejoin:round;stroke-miterlimit:10;}
	.st20{fill:#8F8F8F;}
	.st21{opacity:0.5;fill:#FFFFFF;}
	.st22{fill:#D9D9D9;}
	.st23{fill:#AED948;}
	.st24{fill:#97BD3F;}
	.st25{fill:#AAAAAA;}
</style>
<g id="XMLID_7_">
	<g id="XMLID_31_">
		<path id="XMLID_89_" class="st0" d="M266.68,7.77H45.94c-1.97,0-3.58,1.61-3.58,3.58v21.92h227.9V11.35
			C270.26,9.38,268.65,7.77,266.68,7.77z"/>
		<g id="XMLID_62_">
			<g id="XMLID_87_">
				<linearGradient id="XMLID_92_" gradientUnits="userSpaceOnUse" x1="49.0782" y1="215.5356" x2="49.0782" y2="140.7895">
					<stop  offset="0" style="stop-color:#FFFFFF"/>
					<stop  offset="1" style="stop-color:#BBDBF0"/>
				</linearGradient>
				<path id="XMLID_88_" class="st1" d="M54.27,176.78l-15.37-4.81c6.36-20.31,3.67-50.84,3.65-51.15l16.04-1.47
					C58.71,120.72,61.61,153.36,54.27,176.78z"/>
			</g>
			<g id="XMLID_85_">
				<linearGradient id="XMLID_93_" gradientUnits="userSpaceOnUse" x1="66.8327" y1="215.5349" x2="66.8327" y2="140.7895">
					<stop  offset="0" style="stop-color:#FFFFFF"/>
					<stop  offset="1" style="stop-color:#BBDBF0"/>
				</linearGradient>
				<path id="XMLID_86_" class="st2" d="M73.61,203.92l-16-1.83c2.05-17.88,2.1-29.68,2.26-64.7c0.03-5.24,0.05-10.99,0.09-17.35
					l16.11,0.09c-0.04,6.36-0.06,12.1-0.09,17.34C75.81,173.14,75.75,185.16,73.61,203.92z"/>
			</g>
			<g id="XMLID_83_">
				<linearGradient id="XMLID_94_" gradientUnits="userSpaceOnUse" x1="86.3323" y1="215.5353" x2="86.3323" y2="140.7898">
					<stop  offset="0" style="stop-color:#FFFFFF"/>
					<stop  offset="1" style="stop-color:#BBDBF0"/>
				</linearGradient>
				<path id="XMLID_84_" class="st3" d="M80.1,216.53c-5.07-23.95-2.79-93.76-2.7-96.72l16.1,0.54c-0.02,0.71-2.31,70.8,2.36,92.85
					L80.1,216.53z"/>
			</g>
			<g id="XMLID_81_">
				<linearGradient id="XMLID_95_" gradientUnits="userSpaceOnUse" x1="103.3115" y1="215.5344" x2="103.3115" y2="140.7897">
					<stop  offset="0" style="stop-color:#FFFFFF"/>
					<stop  offset="1" style="stop-color:#BBDBF0"/>
				</linearGradient>
				<path id="XMLID_82_" class="st4" d="M110.92,196.76l-16.05-1.38c1.8-20.97-0.01-74.49-0.03-75.03l16.1-0.55
					C111.02,122.04,112.8,174.83,110.92,196.76z"/>
			</g>
			<g id="XMLID_79_">
				<linearGradient id="XMLID_96_" gradientUnits="userSpaceOnUse" x1="122.4982" y1="215.5348" x2="122.4982" y2="140.7892">
					<stop  offset="0" style="stop-color:#FFFFFF"/>
					<stop  offset="1" style="stop-color:#BBDBF0"/>
				</linearGradient>
				<path id="XMLID_80_" class="st5" d="M117.36,215.37c-6.73-25.29-5.15-92.64-5.08-95.49l16.1,0.4
					c-0.02,0.68-1.61,67.88,4.54,90.95L117.36,215.37z"/>
			</g>
			<g id="XMLID_77_">
				<linearGradient id="XMLID_97_" gradientUnits="userSpaceOnUse" x1="138.3889" y1="215.5355" x2="138.3889" y2="140.7897">
					<stop  offset="0" style="stop-color:#FFFFFF"/>
					<stop  offset="1" style="stop-color:#BBDBF0"/>
				</linearGradient>
				<path id="XMLID_78_" class="st6" d="M131.46,204.13c-3.19-22.55-1.79-81.74-1.73-84.25l16.1,0.39
					c-0.01,0.6-1.42,60.37,1.58,81.6L131.46,204.13z"/>
			</g>
			<g id="XMLID_75_">
				<linearGradient id="XMLID_98_" gradientUnits="userSpaceOnUse" x1="153.5761" y1="215.535" x2="153.5761" y2="140.7893">
					<stop  offset="0" style="stop-color:#FFFFFF"/>
					<stop  offset="1" style="stop-color:#BBDBF0"/>
				</linearGradient>
				<path id="XMLID_76_" class="st7" d="M159.07,215.4l-15.55-4.2c4.7-17.41,4.23-71.51,3.65-90.88l16.1-0.48
					C163.36,122.78,165.34,192.14,159.07,215.4z"/>
			</g>
			<g id="XMLID_73_">
				<linearGradient id="XMLID_99_" gradientUnits="userSpaceOnUse" x1="172.9721" y1="215.5353" x2="172.9721" y2="140.7899">
					<stop  offset="0" style="stop-color:#FFFFFF"/>
					<stop  offset="1" style="stop-color:#BBDBF0"/>
				</linearGradient>
				<path id="XMLID_74_" class="st8" d="M166.16,206.3c-3.88-24.22-1.64-83.99-1.54-86.53l16.1,0.62
					c-0.02,0.61-2.28,60.7,1.35,83.36L166.16,206.3z"/>
			</g>
			<g id="XMLID_71_">
				<linearGradient id="XMLID_100_" gradientUnits="userSpaceOnUse" x1="190.1032" y1="215.5349" x2="190.1032" y2="140.7893">
					<stop  offset="0" style="stop-color:#FFFFFF"/>
					<stop  offset="1" style="stop-color:#BBDBF0"/>
				</linearGradient>
				<rect id="XMLID_72_" x="182.05" y="120.08" class="st9" width="16.11" height="68.76"/>
			</g>
			<g id="XMLID_69_">
				<linearGradient id="XMLID_101_" gradientUnits="userSpaceOnUse" x1="206.7444" y1="215.535" x2="206.7444" y2="140.7898">
					<stop  offset="0" style="stop-color:#FFFFFF"/>
					<stop  offset="1" style="stop-color:#BBDBF0"/>
				</linearGradient>
				<path id="XMLID_70_" class="st10" d="M212.82,206.9l-15.66-3.76c5.04-21.01,2.37-82.09,2.35-82.7l16.09-0.72
					C215.71,122.32,218.39,183.69,212.82,206.9z"/>
			</g>
			<g id="XMLID_67_">
				<linearGradient id="XMLID_102_" gradientUnits="userSpaceOnUse" x1="228.3952" y1="215.5344" x2="228.3952" y2="140.7894">
					<stop  offset="0" style="stop-color:#FFFFFF"/>
					<stop  offset="1" style="stop-color:#BBDBF0"/>
				</linearGradient>
				<path id="XMLID_68_" class="st11" d="M225.73,218.43c-11.1-22.43-9.06-90.9-8.79-98.64l16.1,0.56
					c-0.69,19.89-0.75,75,7.13,90.93L225.73,218.43z"/>
			</g>
			<g id="XMLID_65_">
				<linearGradient id="XMLID_103_" gradientUnits="userSpaceOnUse" x1="244.6608" y1="215.5346" x2="244.6608" y2="140.7892">
					<stop  offset="0" style="stop-color:#FFFFFF"/>
					<stop  offset="1" style="stop-color:#BBDBF0"/>
				</linearGradient>
				<path id="XMLID_66_" class="st12" d="M239.14,204.56c-4.71-23.98-4.77-82.02-4.77-84.48h16.11c0,0.59,0.05,58.92,4.46,81.38
					L239.14,204.56z"/>
			</g>
			<g id="XMLID_63_">
				<linearGradient id="XMLID_104_" gradientUnits="userSpaceOnUse" x1="262.2575" y1="215.536" x2="262.2575" y2="140.7896">
					<stop  offset="0" style="stop-color:#FFFFFF"/>
					<stop  offset="1" style="stop-color:#BBDBF0"/>
				</linearGradient>
				<path id="XMLID_64_" class="st13" d="M257.19,180.12c-5.31-18.97-5.37-58.37-5.37-60.04l16.11,0c0,0.39,0.06,38.86,4.77,55.7
					L257.19,180.12z"/>
			</g>
		</g>
		<linearGradient id="XMLID_105_" gradientUnits="userSpaceOnUse" x1="156.3151" y1="110.833" x2="156.3151" y2="131.5536">
			<stop  offset="0" style="stop-color:#FFFFFF"/>
			<stop  offset="1" style="stop-color:#BBDBF0"/>
		</linearGradient>
		<path id="XMLID_61_" class="st14" d="M130.26,25.82c-1.97,0-4.17-1.5-4.89-3.33l-3.05-7.74c-0.72-1.83-2.92-3.33-4.89-3.33H61.13
			c-1.97,0-4.17,1.5-4.89,3.33l-3.05,7.74c-0.72,1.83-2.92,3.33-4.89,3.33h-2.35c-1.97,0-3.58,1.61-3.58,3.58v100.83
			c0,1.97,1.61,3.58,3.58,3.58h220.74c1.97,0,3.58-1.61,3.58-3.58V29.4c0-1.97-1.61-3.58-3.58-3.58H130.26z"/>
		<text id="XMLID_60_" transform="matrix(1 0 0 1 60.6154 20.7298)" class="st15 st16 st17">not found</text>
		<g id="XMLID_57_">
			<path id="XMLID_59_" class="st15" d="M114.72,20.48c-0.2,0.2-0.53,0.2-0.74,0l0,0c-0.2-0.2-0.2-0.53,0-0.74l4.22-4.22
				c0.2-0.2,0.53-0.2,0.74,0l0,0c0.2,0.2,0.2,0.53,0,0.74L114.72,20.48z"/>
			<path id="XMLID_58_" class="st15" d="M113.99,16.26c-0.2-0.2-0.2-0.53,0-0.74l0,0c0.2-0.2,0.53-0.2,0.74,0l4.22,4.22
				c0.2,0.2,0.2,0.53,0,0.74l0,0c-0.2,0.2-0.53,0.2-0.74,0L113.99,16.26z"/>
		</g>
		<g id="XMLID_54_">
			<path id="XMLID_56_" class="st15" d="M259.35,20.48c-0.2,0.2-0.53,0.2-0.74,0l0,0c-0.2-0.2-0.2-0.53,0-0.74l4.22-4.22
				c0.2-0.2,0.53-0.2,0.74,0l0,0c0.2,0.2,0.2,0.53,0,0.74L259.35,20.48z"/>
			<path id="XMLID_55_" class="st15" d="M258.61,16.26c-0.2-0.2-0.2-0.53,0-0.74l0,0c0.21-0.2,0.53-0.2,0.74,0l4.22,4.22
				c0.21,0.2,0.2,0.53,0,0.74l0,0c-0.2,0.2-0.53,0.2-0.74,0L258.61,16.26z"/>
		</g>
		<path id="XMLID_53_" class="st18" d="M249.42,48.16c0,0.67-0.55,1.22-1.22,1.22H64.43c-0.67,0-1.22-0.55-1.22-1.22V35.99
			c0-0.67,0.55-1.22,1.22-1.22H248.2c0.67,0,1.22,0.55,1.22,1.22V48.16z"/>
		<rect id="XMLID_52_" x="249.85" y="15.81" class="st19" width="4.39" height="4.39"/>
		<line id="XMLID_51_" class="st19" x1="245.2" y1="20.2" x2="240.8" y2="20.2"/>
		<g id="XMLID_37_">
			<g id="XMLID_40_">
				<g id="XMLID_46_">
					<g id="XMLID_49_">
						<path id="XMLID_50_" class="st15" d="M116.06,68.51c-1.05-1.05-1.05-2.75,0-3.8l0,0c1.05-1.05,2.75-1.05,3.8,0l14.37,14.36
							c1.05,1.05,1.05,2.75,0,3.81l0,0c-1.05,1.05-2.75,1.05-3.8,0L116.06,68.51z"/>
					</g>
					<g id="XMLID_47_">
						<path id="XMLID_48_" class="st15" d="M134.23,68.51c1.05-1.05,1.05-2.75,0-3.8l0,0c-1.06-1.05-2.75-1.05-3.81,0l-14.36,14.36
							c-1.05,1.05-1.04,2.75,0,3.81l0,0c1.05,1.05,2.75,1.05,3.8,0L134.23,68.51z"/>
					</g>
				</g>
				<g id="XMLID_41_">
					<g id="XMLID_44_">
						<path id="XMLID_45_" class="st15" d="M178.4,68.51c-1.05-1.05-1.05-2.75,0-3.8l0,0c1.06-1.05,2.75-1.05,3.81,0l14.36,14.36
							c1.05,1.05,1.04,2.75,0,3.81l0,0c-1.05,1.05-2.75,1.05-3.8,0L178.4,68.51z"/>
					</g>
					<g id="XMLID_42_">
						<path id="XMLID_43_" class="st15" d="M196.57,68.51c1.05-1.05,1.05-2.75,0-3.8l0,0c-1.05-1.05-2.75-1.05-3.8,0L178.4,79.06
							c-1.05,1.05-1.05,2.75,0,3.81l0,0c1.05,1.05,2.75,1.05,3.8,0L196.57,68.51z"/>
					</g>
				</g>
			</g>
			<g id="XMLID_38_">
				<path id="XMLID_39_" class="st15" d="M166.47,96.95c1.49,0,2.69-1.2,2.69-2.69l0,0c0-1.49-1.2-2.69-2.68-2.69l-20.31,0
					c-1.49,0-2.69,1.21-2.69,2.7l0,0c0,1.48,1.2,2.68,2.69,2.69H166.47z"/>
			</g>
		</g>
		<g id="XMLID_33_">
			<path id="XMLID_36_" class="st20" d="M264.38,38.19c0,0.41-0.33,0.75-0.75,0.75h-8.58c-0.41,0-0.75-0.33-0.75-0.75l0,0
				c0-0.41,0.33-0.74,0.75-0.74h8.58C264.05,37.45,264.38,37.78,264.38,38.19L264.38,38.19z"/>
			<path id="XMLID_35_" class="st20" d="M264.38,42.07c0,0.41-0.33,0.75-0.75,0.75h-8.58c-0.41,0-0.75-0.33-0.75-0.75l0,0
				c0-0.41,0.33-0.75,0.75-0.75h8.58C264.05,41.33,264.38,41.66,264.38,42.07L264.38,42.07z"/>
			<path id="XMLID_34_" class="st20" d="M264.38,45.95c0,0.41-0.33,0.75-0.75,0.75h-8.58c-0.41,0-0.75-0.33-0.75-0.75l0,0
				c0-0.41,0.33-0.74,0.75-0.74h8.58C264.05,45.21,264.38,45.54,264.38,45.95L264.38,45.95z"/>
		</g>
		<path id="XMLID_32_" class="st20" d="M60.46,40.62c-0.24-0.21-0.61-0.2-0.82,0.04l-0.56,0.61c-0.22-2.58-2.39-4.62-5.03-4.62
			c-2.79,0-5.06,2.27-5.06,5.06c0,2.79,2.27,5.06,5.06,5.06c0.32,0,0.58-0.26,0.58-0.58c0-0.32-0.26-0.58-0.58-0.58
			c-2.15,0-3.89-1.75-3.89-3.89c0-2.15,1.75-3.89,3.89-3.89c2.01,0,3.66,1.54,3.85,3.51l-0.61-0.55c-0.24-0.22-0.61-0.2-0.82,0.04
			c-0.22,0.24-0.2,0.6,0.04,0.82l1.66,1.51c0.11,0.1,0.25,0.15,0.39,0.15c0.01,0,0.02,0,0.03,0c0.15-0.01,0.3-0.08,0.4-0.19
			l1.51-1.66C60.71,41.2,60.69,40.83,60.46,40.62z"/>
	</g>
	<g id="XMLID_8_">
		<path id="XMLID_30_" class="st21" d="M268.01,239.23c-0.22,1.26-1.41,2.28-2.67,2.28H45.22c-1.25,0-2.45-1.02-2.67-2.28
			L23.93,131.61c-0.3-1.74,0.66-3.16,2.14-3.16H284.5c1.48,0,2.44,1.42,2.14,3.16L268.01,239.23z"/>
		<path id="XMLID_29_" class="st22" d="M284.5,128.45H26.07c-1.48,0-2.44,1.42-2.14,3.16l3.33,19.26H283.3l3.33-19.26
			C286.94,129.87,285.98,128.45,284.5,128.45z"/>
		<path id="XMLID_28_" class="st23" d="M291.53,136.5c0,1.48-1.2,2.68-2.68,2.68H22.76c-1.48,0-2.68-1.2-2.68-2.68v-27.74
			c0-1.48,1.2-2.68,2.68-2.68h266.08c1.48,0,2.68,1.2,2.68,2.68V136.5z"/>
		<g id="XMLID_9_">
			<path id="XMLID_27_" class="st24" d="M31.41,133.52c0,1.24-1,2.24-2.24,2.24l0,0c-1.24,0-2.24-1-2.24-2.24v-21.77
				c0-1.24,1-2.24,2.24-2.24l0,0c1.24,0,2.24,1,2.24,2.24V133.52z"/>
			<path id="XMLID_26_" class="st24" d="M46.31,133.52c0,1.24-1,2.24-2.24,2.24l0,0c-1.24,0-2.24-1-2.24-2.24v-21.77
				c0-1.24,1-2.24,2.24-2.24l0,0c1.24,0,2.24,1,2.24,2.24V133.52z"/>
			<path id="XMLID_25_" class="st24" d="M61.21,133.52c0,1.24-1,2.24-2.24,2.24l0,0c-1.24,0-2.24-1-2.24-2.24v-21.77
				c0-1.24,1-2.24,2.24-2.24l0,0c1.24,0,2.24,1,2.24,2.24V133.52z"/>
			<path id="XMLID_24_" class="st24" d="M76.1,133.52c0,1.24-1,2.24-2.24,2.24l0,0c-1.24,0-2.24-1-2.24-2.24v-21.77
				c0-1.24,1-2.24,2.24-2.24l0,0c1.24,0,2.24,1,2.24,2.24V133.52z"/>
			<path id="XMLID_23_" class="st24" d="M91,133.52c0,1.24-1,2.24-2.24,2.24l0,0c-1.24,0-2.24-1-2.24-2.24v-21.77
				c0-1.24,1-2.24,2.24-2.24l0,0c1.24,0,2.24,1,2.24,2.24V133.52z"/>
			<path id="XMLID_22_" class="st24" d="M105.9,133.52c0,1.24-1,2.24-2.24,2.24l0,0c-1.24,0-2.24-1-2.24-2.24v-21.77
				c0-1.24,1-2.24,2.24-2.24l0,0c1.24,0,2.24,1,2.24,2.24V133.52z"/>
			<path id="XMLID_21_" class="st24" d="M120.79,133.52c0,1.24-1,2.24-2.24,2.24l0,0c-1.24,0-2.24-1-2.24-2.24v-21.77
				c0-1.24,1-2.24,2.24-2.24l0,0c1.24,0,2.24,1,2.24,2.24V133.52z"/>
			<path id="XMLID_20_" class="st24" d="M135.69,133.52c0,1.24-1,2.24-2.24,2.24l0,0c-1.24,0-2.24-1-2.24-2.24v-21.77
				c0-1.24,1-2.24,2.24-2.24l0,0c1.24,0,2.24,1,2.24,2.24V133.52z"/>
			<path id="XMLID_19_" class="st24" d="M150.59,133.52c0,1.24-1,2.24-2.24,2.24l0,0c-1.24,0-2.24-1-2.24-2.24v-21.77
				c0-1.24,1-2.24,2.24-2.24l0,0c1.24,0,2.24,1,2.24,2.24V133.52z"/>
			<path id="XMLID_18_" class="st24" d="M165.49,133.52c0,1.24-1,2.24-2.24,2.24l0,0c-1.24,0-2.24-1-2.24-2.24v-21.77
				c0-1.24,1-2.24,2.24-2.24l0,0c1.24,0,2.24,1,2.24,2.24V133.52z"/>
			<path id="XMLID_17_" class="st24" d="M180.38,133.52c0,1.24-1,2.24-2.24,2.24l0,0c-1.24,0-2.24-1-2.24-2.24v-21.77
				c0-1.24,1-2.24,2.24-2.24l0,0c1.24,0,2.24,1,2.24,2.24V133.52z"/>
			<path id="XMLID_16_" class="st24" d="M195.28,133.52c0,1.24-1,2.24-2.24,2.24l0,0c-1.24,0-2.24-1-2.24-2.24v-21.77
				c0-1.24,1-2.24,2.24-2.24l0,0c1.24,0,2.24,1,2.24,2.24V133.52z"/>
			<path id="XMLID_15_" class="st24" d="M210.18,133.52c0,1.24-1,2.24-2.24,2.24l0,0c-1.24,0-2.24-1-2.24-2.24v-21.77
				c0-1.24,1-2.24,2.24-2.24l0,0c1.24,0,2.24,1,2.24,2.24V133.52z"/>
			<path id="XMLID_14_" class="st24" d="M225.08,133.52c0,1.24-1,2.24-2.24,2.24l0,0c-1.24,0-2.24-1-2.24-2.24v-21.77
				c0-1.24,1-2.24,2.24-2.24l0,0c1.24,0,2.24,1,2.24,2.24V133.52z"/>
			<path id="XMLID_13_" class="st24" d="M239.97,133.52c0,1.24-1,2.24-2.24,2.24l0,0c-1.24,0-2.24-1-2.24-2.24v-21.77
				c0-1.24,1-2.24,2.24-2.24l0,0c1.24,0,2.24,1,2.24,2.24V133.52z"/>
			<path id="XMLID_12_" class="st24" d="M254.87,133.52c0,1.24-1,2.24-2.24,2.24l0,0c-1.24,0-2.24-1-2.24-2.24v-21.77
				c0-1.24,1-2.24,2.24-2.24l0,0c1.24,0,2.24,1,2.24,2.24V133.52z"/>
			<path id="XMLID_11_" class="st24" d="M269.77,133.52c0,1.24-1,2.24-2.24,2.24l0,0c-1.24,0-2.24-1-2.24-2.24v-21.77
				c0-1.24,1-2.24,2.24-2.24l0,0c1.24,0,2.24,1,2.24,2.24V133.52z"/>
			<path id="XMLID_10_" class="st24" d="M284.67,133.52c0,1.24-1,2.24-2.24,2.24l0,0c-1.24,0-2.24-1-2.24-2.24v-21.77
				c0-1.24,1-2.24,2.24-2.24l0,0c1.24,0,2.24,1,2.24,2.24V133.52z"/>
		</g>
	</g>
</g>
<rect id="XMLID_6_" x="9.47" y="241.51" class="st25" width="292.67" height="7.21"/>
</svg>
