<svg id="01" xmlns="http://www.w3.org/2000/svg" xmlns:xlink="http://www.w3.org/1999/xlink" viewBox="-450 -310 1846.120000 900" shape-rendering="geometricPrecision" text-rendering="geometricPrecision"><defs><linearGradient id="01-xmlid_27_-fill" x1="640" y1="68.805900" x2="640" y2="842.082200" spreadMethod="pad" gradientUnits="userSpaceOnUse"><stop id="01-xmlid_27_-fill-0" offset="0%" stop-color="rgb(183,254,255)"/><stop id="01-xmlid_27_-fill-1" offset="100%" stop-color="rgb(145,208,211)"/></linearGradient></defs><rect id="01-xmlid_27_" width="1280" height="860.200000" rx="0" ry="0" transform="matrix(1.47771290854792 0 0 1.51043128864777 -465.73626147066943 -353.63650036283036)" fill="url(#01-xmlid_27_-fill)" stroke="none" stroke-width="1"/><path id="01-xmlid_31_" d="M-613,524.300000C-571.300000,552.900000,-523.200000,575.100000,-475,571.700000C-417.700000,567.700000,-405.800000,530.500000,-347,527.400000C-284,524.100000,-268.900000,565.400000,-193,570.600000C-108.800000,576.300000,-84.500000,528.400000,9,529.600000C96.500000,530.700000,110.400000,573.100000,193,571.700000C279.900000,570.200000,297.300000,522.600000,377,524.200000C456.600000,525.800000,473.200000,574,547,572.800000C623.100000,571.500000,641.600000,519.700000,713,521C779.700000,522.200000,791,568.100000,861,570.600000C931.800000,573.200000,951.300000,527.500000,1031,526.400000C1104.800000,525.400000,1114.200000,564.300000,1193,568.500000C1290.900000,573.700000,1335,516.700000,1425,523.200000C1474.900000,526.800000,1514.300000,548.300000,1545,574.100000L1567,876.100000L-647,876.100000L-613,524.300000Z" opacity="0.46" fill="rgb(10,120,172)" stroke="none" stroke-width="1"/><path id="01-xmlid_32_" d="M-676,491.300000C-634.300000,519.900000,-586.200000,542.100000,-538,538.700000C-480.700000,534.700000,-468.800000,497.500000,-410,494.400000C-347,491.100000,-331.900000,532.400000,-256,537.600000C-171.800000,543.300000,-147.500000,495.400000,-54,496.600000C33.500000,497.700000,47.400000,540.100000,130,538.700000C216.900000,537.200000,234.300000,489.600000,314,491.200000C393.600000,492.800000,410.200000,541,484,539.800000C560.100000,538.500000,578.600000,486.700000,650,488C716.700000,489.200000,728,535.100000,798,537.600000C868.800000,540.200000,888.300000,494.500000,968,493.400000C1041.800000,492.400000,1051.200000,531.300000,1130,535.500000C1227.900000,540.700000,1272,483.700000,1362,490.200000C1411.900000,493.800000,1451.300000,515.300000,1482,541.100000L1504,843.100000L-710,843.100000L-676,491.300000Z" opacity="0.46" fill="rgb(10,120,172)" stroke="none" stroke-width="1"/><path id="01-xmlid_34_" d="M-583,491.300000C-541.300000,519.900000,-493.200000,542.100000,-445,538.700000C-387.700000,534.700000,-375.800000,497.500000,-317,494.400000C-254,491.100000,-238.900000,532.400000,-163,537.600000C-78.800000,543.300000,-54.500000,495.400000,39,496.600000C126.500000,497.700000,140.400000,540.100000,223,538.700000C309.900000,537.200000,327.300000,489.600000,407,491.200000C486.600000,492.800000,503.200000,541,577,539.800000C653.100000,538.500000,671.600000,486.700000,743,488C809.700000,489.200000,821,535.100000,891,537.600000C961.800000,540.200000,981.300000,494.500000,1061,493.400000C1134.800000,492.400000,1144.200000,531.300000,1223,535.500000C1320.900000,540.700000,1365,483.700000,1455,490.200000C1504.900000,493.800000,1544.300000,515.300000,1575,541.100000L1597,843.100000L-617,843.100000L-583,491.300000Z" transform="matrix(1 0 0 1 17 0)" opacity="0.46" fill="rgb(10,120,172)" stroke="none" stroke-width="1"/><g id="01-xmlid_33_" transform="matrix(1 0 0 1 -1889.38770299999919 -241.00939940999959)" opacity="0.2"><path id="01-xmlid_72_" d="M15.600000,320.900000C17,320,16.900000,318.300000,17.500000,317C19.800000,311.500000,23.700000,307.600000,29.200000,305.300000C35.900000,302.500000,38.100000,300.700000,41.800000,294.700000C48.600000,283.600000,61.600000,277.800000,74.500000,280.500000C77.600000,281.100000,78.800000,280.400000,80.200000,277.700000C84.600000,268.900000,91.900000,263.700000,101.800000,262.900000C104.800000,262.700000,105.600000,261.300000,106.500000,258.800000C112.800000,240.700000,129,229.900000,147.600000,231.100000C165.500000,232.300000,180.500000,245.800000,184.100000,264.100000C185,268.500000,184.700000,273,184.300000,277.900000C189.100000,276.400000,193.600000,275.500000,198.200000,276.200000C209.600000,278,218.300000,287,219.200000,298.900000C219.500000,302,220.400000,303,223.300000,303.600000C233,305.500000,239.400000,312.500000,240.500000,321.800000C241.500000,325.700000,238.400000,324.400000,236.900000,324.400000C225.800000,324.500000,214.600000,324.500000,203.500000,324.500000C199.200000,324.500000,194.800000,324.500000,190.500000,324.500000C189.900000,324.500000,189.400000,324.500000,188.800000,324.400000C187.500000,323.700000,187.300000,322.300000,186.800000,321.100000C184.600000,316.300000,180.700000,313.900000,175.600000,315C172,315.800000,170.100000,314.600000,168.200000,311.700000C165.600000,307.800000,162.300000,304.300000,157.900000,302.500000C154.100000,300.900000,152.500000,298.200000,151.600000,294.300000C147.500000,275.800000,131.500000,266.300000,113.500000,271.600000C104.300000,274.300000,98.200000,280.800000,94.900000,289.700000C93.500000,293.500000,91.700000,295.700000,87.500000,296.600000C81,298,76.700000,302.400000,75.200000,308.900000C74.300000,312.700000,72.900000,314.200000,68.700000,313.600000C63,312.700000,58.800000,315.400000,56.300000,320.700000C55.700000,321.900000,55.600000,323.300000,54.500000,324.200000C53.900000,324.400000,53.400000,324.500000,52.800000,324.400000C42,324.400000,31.200000,324.400000,20.300000,324.400000C18.700000,324.400000,17,324.800000,15.400000,323.900000C15.600000,322.900000,15.600000,321.900000,15.600000,320.900000Z" fill="rgb(255,255,255)" stroke="none" stroke-width="1"/><path id="01-xmlid_66_" d="M189.200000,324.500000C144.500000,324.500000,99.900000,324.500000,55.200000,324.500000C55.800000,316.500000,62.300000,311.200000,70.300000,312.800000C73.300000,313.400000,73.800000,312.900000,74.400000,310C76,301.900000,81.600000,296.700000,89.900000,295.500000C92.700000,295.100000,93.400000,293.300000,94.100000,291.200000C100.600000,269.100000,126.900000,262.700000,143.600000,276.500000C149.600000,281.500000,153.200000,288.400000,154.100000,296.300000C154.400000,298.800000,155.300000,300.300000,157.600000,301.100000C163.500000,303.300000,167.700000,307.400000,170.800000,312.700000C172,314.800000,173.100000,314.900000,175.200000,314.400000C182.800000,312.500000,188.700000,316.800000,189.200000,324.500000Z" fill="rgb(227,245,253)" stroke="none" stroke-width="1"/></g><g id="01-xmlid_37_" transform="matrix(1 0 0 1 -1283.26043701000071 -259.30000304500004)" opacity="0.2"><path id="01-xmlid_39_" d="M729.400000,249.400000C730.600000,251.600000,732.800000,251,734.700000,251.300000C750.700000,254.400000,764.700000,261.100000,774.900000,274.300000C779.500000,280.200000,782.500000,286.900000,783.200000,294.300000C783.500000,297.400000,784.700000,298.600000,787.400000,299.400000C792.500000,300.900000,797.300000,303.400000,801.500000,306.700000C817.500000,319.300000,817.300000,340.100000,800.800000,352.100000C787.700000,361.600000,773,363.600000,757.600000,359.300000C753,358,749.500000,357.500000,746.400000,361.800000C745.800000,362.700000,744.500000,363,743.500000,363.600000C740.400000,354.500000,736.100000,351.400000,725.900000,350.900000C725.200000,350.900000,724.600000,350.900000,723.900000,350.900000C715.200000,351.100000,707.100000,351.400000,698.700000,346.400000C687.800000,340.100000,675.100000,342.600000,663,344.800000C660.200000,345.300000,657.500000,346.100000,654.800000,346.900000C652.400000,347.600000,650.200000,347.300000,648.100000,346.100000C633.200000,337.800000,617.100000,337,600.600000,338.300000C593.800000,338.800000,587,339.800000,580.400000,341.500000C578.800000,341.900000,577.100000,342,575.500000,341.400000C569.500000,333.300000,569.900000,323.400000,576.500000,315.800000C583.200000,308.200000,592.100000,305.400000,601.900000,304.700000C603.900000,304.600000,605.200000,304.400000,606.100000,302.200000C612.600000,286.500000,625.900000,281.100000,641.500000,279.500000C647,278.900000,652.500000,279.500000,657.800000,281C659.800000,281.600000,661.100000,281.600000,662.400000,279.500000C672.300000,262.800000,687.900000,254.800000,706.300000,251.200000C707.800000,250.900000,709.800000,251.400000,710.500000,249.300000C712.500000,249.300000,714.500000,249.300000,716.500000,249.300000C719.500000,250.100000,722.500000,250.100000,725.500000,249.300000C726.700000,249.400000,728,249.400000,729.400000,249.400000Z" fill="rgb(255,255,255)" stroke="none" stroke-width="1"/><path id="01-xmlid_38_" d="M575.400000,341.400000C597.400000,335.500000,619.400000,333.500000,641.400000,341.200000C641.900000,341.400000,642.500000,341.300000,642.800000,341.600000C649.600000,347.900000,656.800000,344.500000,664.100000,343C675.700000,340.700000,687.400000,339.800000,698.900000,344.300000C699.800000,344.700000,700.800000,345,701.700000,345.400000C709.700000,349.300000,709.700000,349.300000,718.500000,349.200000C725,349.100000,731.400000,349.100000,737.500000,352C742.800000,354.600000,744.700000,357.700000,743.400000,363.300000C730.200000,373.700000,706.500000,374.100000,691.300000,363.900000C688.400000,362,686.700000,361.700000,683.600000,363.600000C660.300000,377.500000,629.500000,374.300000,609.600000,355.900000C607.600000,354,605.500000,354.100000,603.200000,354C592.200000,353.800000,582.200000,351,575.400000,341.400000Z" fill="rgb(227,245,253)" stroke="none" stroke-width="1"/></g><script><![CDATA[!function(t,n){"object"==typeof exports&&"undefined"!=typeof module?module.exports=n():"function"==typeof define&&define.amd?define(n):(t=t||self).__SVGATOR_PLAYER__=n()}(this,(function(){"use strict";function t(n){return(t="function"==typeof Symbol&&"symbol"==typeof Symbol.iterator?function(t){return typeof t}:function(t){return t&&"function"==typeof Symbol&&t.constructor===Symbol&&t!==Symbol.prototype?"symbol":typeof t})(n)}function n(t,n){if(!(t instanceof n))throw new TypeError("Cannot call a class as a function")}function r(t,n){for(var r=0;r<n.length;r++){var e=n[r];e.enumerable=e.enumerable||!1,e.configurable=!0,"value"in e&&(e.writable=!0),Object.defineProperty(t,e.key,e)}}function e(t,n,e){return n&&r(t.prototype,n),e&&r(t,e),t}function i(t){return(i=Object.setPrototypeOf?Object.getPrototypeOf:function(t){return t.__proto__||Object.getPrototypeOf(t)})(t)}function o(t,n){return(o=Object.setPrototypeOf||function(t,n){return t.__proto__=n,t})(t,n)}function u(t,n){return!n||"object"!=typeof n&&"function"!=typeof n?function(t){if(void 0===t)throw new ReferenceError("this hasn't been initialised - super() hasn't been called");return t}(t):n}function a(t){var n=function(){if("undefined"==typeof Reflect||!Reflect.construct)return!1;if(Reflect.construct.sham)return!1;if("function"==typeof Proxy)return!0;try{return Date.prototype.toString.call(Reflect.construct(Date,[],(function(){}))),!0}catch(t){return!1}}();return function(){var r,e=i(t);if(n){var o=i(this).constructor;r=Reflect.construct(e,arguments,o)}else r=e.apply(this,arguments);return u(this,r)}}function l(t,n,r){return(l="undefined"!=typeof Reflect&&Reflect.get?Reflect.get:function(t,n,r){var e=function(t,n){for(;!Object.prototype.hasOwnProperty.call(t,n)&&null!==(t=i(t)););return t}(t,n);if(e){var o=Object.getOwnPropertyDescriptor(e,n);return o.get?o.get.call(r):o.value}})(t,n,r||t)}var f=Math.abs;function s(t){return t}function c(t,n,r){var e=1-r;return 3*r*e*(t*e+n*r)+r*r*r}function h(){var t=arguments.length>0&&void 0!==arguments[0]?arguments[0]:0,n=arguments.length>1&&void 0!==arguments[1]?arguments[1]:0,r=arguments.length>2&&void 0!==arguments[2]?arguments[2]:1,e=arguments.length>3&&void 0!==arguments[3]?arguments[3]:1;return t<0||t>1||r<0||r>1?null:f(t-n)<=1e-5&&f(r-e)<=1e-5?s:function(i){if(i<=0)return t>0?i*n/t:0===n&&r>0?i*e/r:0;if(i>=1)return r<1?1+(i-1)*(e-1)/(r-1):1===r&&t<1?1+(i-1)*(n-1)/(t-1):1;for(var o,u=0,a=1;u<a;){var l=c(t,r,o=(u+a)/2);if(f(i-l)<1e-5)break;l<i?u=o:a=o}return c(n,e,o)}}function v(){return 1}function y(t){return 1===t?1:0}function d(){var t=arguments.length>0&&void 0!==arguments[0]?arguments[0]:1,n=arguments.length>1&&void 0!==arguments[1]?arguments[1]:0;if(1===t){if(0===n)return y;if(1===n)return v}var r=1/t;return function(t){return t>=1?1:(t+=n*r)-t%r}}function g(t){var n=arguments.length>1&&void 0!==arguments[1]?arguments[1]:2;if(Number.isInteger(t))return t;var r=Math.pow(10,n);return Math.round(t*r)/r}var p=Math.PI/180;function m(t,n,r){return t>=.5?r:n}function b(t,n,r){return 0===t||n===r?n:t*(r-n)+n}function w(t,n,r){var e=b(t,n,r);return e<=0?0:e}function k(t,n,r){return 0===t?n:1===t?r:{x:b(t,n.x,r.x),y:b(t,n.y,r.y)}}function x(t,n,r){var e=function(t,n,r){return Math.round(b(t,n,r))}(t,n,r);return e<=0?0:e>=255?255:e}function A(t,n,r){return 0===t?n:1===t?r:{r:x(t,n.r,r.r),g:x(t,n.g,r.g),b:x(t,n.b,r.b),a:b(t,null==n.a?1:n.a,null==r.a?1:r.a)}}function _(t,n,r){if(0===t)return n;if(1===t)return r;var e=n.length;if(e!==r.length)return m(t,n,r);for(var i=[],o=0;o<e;o++)i.push(A(t,n[o],r[o]));return i}function S(t,n){for(var r=[],e=0;e<t;e++)r.push(n);return r}function O(t,n){if(--n<=0)return t;var r=(t=Object.assign([],t)).length;do{for(var e=0;e<r;e++)t.push(t[e])}while(--n>0);return t}var M,j=function(){function t(r){n(this,t),this.list=r,this.length=r.length}return e(t,[{key:"setAttribute",value:function(t,n){for(var r=this.list,e=0;e<this.length;e++)r[e].setAttribute(t,n)}},{key:"removeAttribute",value:function(t){for(var n=this.list,r=0;r<this.length;r++)n[r].removeAttribute(t)}},{key:"style",value:function(t,n){for(var r=this.list,e=0;e<this.length;e++)r[e].style[t]=n}}]),t}(),F=/-./g,P=function(t,n){return n.toUpperCase()};function q(t){return"function"==typeof t?t:m}function B(t){return t?"function"==typeof t?t:Array.isArray(t)?function(t){var n=arguments.length>1&&void 0!==arguments[1]?arguments[1]:s;if(!Array.isArray(t))return n;switch(t.length){case 1:return d(t[0])||n;case 2:return d(t[0],t[1])||n;case 4:return h(t[0],t[1],t[2],t[3])||n}return n}(t,null):function(t,n){var r=arguments.length>2&&void 0!==arguments[2]?arguments[2]:s;switch(t){case"linear":return s;case"steps":return d(n.steps||1,n.jump||0)||r;case"bezier":case"cubic-bezier":return h(n.x1||0,n.y1||0,n.x2||0,n.y2||0)||r}return r}(t.type,t.value,null):null}function I(t,n,r){var e=arguments.length>3&&void 0!==arguments[3]&&arguments[3],i=n.length-1;if(t<=n[0].t)return e?[0,0,n[0].v]:n[0].v;if(t>=n[i].t)return e?[i,1,n[i].v]:n[i].v;var o,u=n[0],a=null;for(o=1;o<=i;o++){if(!(t>n[o].t)){a=n[o];break}u=n[o]}return null==a?e?[i,1,n[i].v]:n[i].v:u.t===a.t?e?[o,1,a.v]:a.v:(t=(t-u.t)/(a.t-u.t),u.e&&(t=u.e(t)),e?[o,t,r(t,u.v,a.v)]:r(t,u.v,a.v))}function R(t,n){var r=arguments.length>2&&void 0!==arguments[2]?arguments[2]:null;return t&&t.length?"function"!=typeof n?null:("function"!=typeof r&&(r=null),function(e){var i=I(e,t,n);return null!=i&&r&&(i=r(i)),i}):null}function E(t,n){return t.t-n.t}function T(n,r,e,i,o){var u,a="@"===e[0],l="#"===e[0],f=M[e],s=m;switch(a?(u=e.substr(1),e=u.replace(F,P)):l&&(e=e.substr(1)),t(f)){case"function":if(s=f(i,o,I,B,e,a,r,n),l)return s;break;case"string":s=R(i,q(f));break;case"object":if((s=R(i,q(f.i),f.f))&&"function"==typeof f.u)return f.u(r,s,e,a,n)}return s?function(t,n,r){var e=arguments.length>3&&void 0!==arguments[3]&&arguments[3];if(e)return t instanceof j?function(e){return t.style(n,r(e))}:function(e){return t.style[n]=r(e)};if(Array.isArray(n)){var i=n.length;return function(e){var o=r(e);if(null==o)for(var u=0;u<i;u++)t[u].removeAttribute(n);else for(var a=0;a<i;a++)t[a].setAttribute(n,o)}}return function(e){var i=r(e);null==i?t.removeAttribute(n):t.setAttribute(n,i)}}(r,e,s,a):null}function z(n,r,e,i){if(!i||"object"!==t(i))return null;var o=null,u=null;return Array.isArray(i)?u=function(t){if(!t||!t.length)return null;for(var n=0;n<t.length;n++)t[n].e&&(t[n].e=B(t[n].e));return t.sort(E)}(i):(u=i.keys,o=i.data||null),u?T(n,r,e,u,o):null}function C(t,n,r){if(!r)return null;var e=[];for(var i in r)if(r.hasOwnProperty(i)){var o=z(t,n,i,r[i]);o&&e.push(o)}return e.length?e:null}function D(t,n){if(!n.duration||n.duration<0)return null;var r=function(t,n){if(!n)return null;var r=[];if(Array.isArray(n))for(var e=n.length,i=0;i<e;i++){var o=n[i];if(2===o.length){var u=null;if("string"==typeof o[0])u=t.getElementById(o[0]);else if(Array.isArray(o[0])){u=[];for(var a=0;a<o[0].length;a++)if("string"==typeof o[0][a]){var l=t.getElementById(o[0][a]);l&&u.push(l)}u=u.length?1===u.length?u[0]:new j(u):null}if(u){var f=C(t,u,o[1]);f&&(r=r.concat(f))}}}else for(var s in n)if(n.hasOwnProperty(s)){var c=t.getElementById(s);if(c){var h=C(t,c,n[s]);h&&(r=r.concat(h))}}return r.length?r:null}(t,n.elements);return r?function(t,n){var r=arguments.length>2&&void 0!==arguments[2]?arguments[2]:1/0,e=arguments.length>3&&void 0!==arguments[3]?arguments[3]:1,i=arguments.length>4&&void 0!==arguments[4]&&arguments[4],o=arguments.length>5&&void 0!==arguments[5]?arguments[5]:1,u=t.length,a=e>0?n:0;i&&r%2==0&&(a=n-a);var l=null;return function(f,s){var c=f%n,h=1+(f-c)/n;s*=e,i&&h%2==0&&(s=-s);var v=!1;if(h>r)c=a,v=!0,-1===o&&(c=e>0?0:n);else if(s<0&&(c=n-c),c===l)return!1;l=c;for(var y=0;y<u;y++)t[y](c);return v}}(r,n.duration,n.iterations||1/0,n.direction||1,!!n.alternate,n.fill||1):null}function N(t,n){if(M=n,!t||!t.root||!Array.isArray(t.animations))return null;for(var r=document.getElementsByTagName("svg"),e=!1,i=0;i<r.length;i++)if(r[i].id===t.root&&!r[i].svgatorAnimation){(e=r[i]).svgatorAnimation=!0;break}if(!e)return null;var o=t.animations.map((function(t){return D(e,t)})).filter((function(t){return!!t}));return o.length?{element:e,animations:o,animationSettings:t.animationSettings,options:t.options||void 0}:null}var L=function(){function t(r,e){var i=arguments.length>2&&void 0!==arguments[2]?arguments[2]:{};n(this,t),this._id=0,this._running=!1,this._rollingBack=!1,this._animations=r,this.duration=e.duration,this.alternate=e.alternate,this.fill=e.fill,this.iterations=e.iterations,this.direction=i.direction||1,this.speed=i.speed||1,this.fps=i.fps||100,this.offset=i.offset||0,this.rollbackStartOffset=0}return e(t,[{key:"_rollback",value:function(){var t=this,n=1/0,r=null;this.rollbackStartOffset=this.offset,this._rollingBack||(this._rollingBack=!0,this._running=!0);this._id=window.requestAnimationFrame((function e(i){if(t._rollingBack){null==r&&(r=i);var o=i-r,u=t.rollbackStartOffset-o,a=Math.round(u*t.speed);if(a>t.duration&&n!=1/0){var l=!!t.alternate&&a/t.duration%2>1,f=a%t.duration;a=(f+=l?t.duration:0)||t.duration}var s=t.fps?1e3/t.fps:0,c=Math.max(0,a);if(c<n-s){t.offset=c,n=c;for(var h=t._animations,v=h.length,y=0;y<v;y++)h[y](c,t.direction)}var d=!1;if(t.iterations>0&&-1===t.fill){var g=t.iterations*t.duration,p=g==a;a=p?0:a,t.offset=p?0:t.offset,d=a>g}a>0&&t.offset>=a&&!d?t._id=window.requestAnimationFrame(e):t.stop()}}))}},{key:"_start",value:function(){var t=this,n=arguments.length>0&&void 0!==arguments[0]?arguments[0]:0,r=-1/0,e=null,i={},o=function o(u){t._running=!0,null==e&&(e=u);var a=Math.round((u-e+n)*t.speed),l=t.fps?1e3/t.fps:0;if(a>r+l&&!t._rollingBack){t.offset=a,r=a;for(var f=t._animations,s=f.length,c=0,h=0;h<s;h++)i[h]?c++:(i[h]=f[h](a,t.direction),i[h]&&c++);if(c===s)return void t._stop()}t._id=window.requestAnimationFrame(o)};this._id=window.requestAnimationFrame(o)}},{key:"_stop",value:function(){this._id&&window.cancelAnimationFrame(this._id),this._running=!1,this._rollingBack=!1}},{key:"play",value:function(){!this._rollingBack&&this._running||(this._rollingBack=!1,this.rollbackStartOffset>this.duration&&(this.offset=this.rollbackStartOffset-(this.rollbackStartOffset-this.offset)%this.duration,this.rollbackStartOffset=0),this._start(this.offset))}},{key:"stop",value:function(){this._stop(),this.offset=0,this.rollbackStartOffset=0;var t=this.direction,n=this._animations;window.requestAnimationFrame((function(){for(var r=0;r<n.length;r++)n[r](0,t)}))}},{key:"reachedToEnd",value:function(){return this.iterations>0&&this.offset>=this.iterations*this.duration}},{key:"restart",value:function(){this._stop(),this.offset=0,this._start()}},{key:"pause",value:function(){this._stop()}},{key:"reverse",value:function(){this.direction=-this.direction}}],[{key:"build",value:function(n,r){return(n=N(n,r))?{el:n.element,options:n.options||{},player:new t(n.animations,n.animationSettings,n.options)}:null}}]),t}();!function(){for(var t=0,n=["ms","moz","webkit","o"],r=0;r<n.length&&!window.requestAnimationFrame;++r)window.requestAnimationFrame=window[n[r]+"RequestAnimationFrame"],window.cancelAnimationFrame=window[n[r]+"CancelAnimationFrame"]||window[n[r]+"CancelRequestAnimationFrame"];window.requestAnimationFrame||(window.requestAnimationFrame=function(n){var r=Date.now(),e=Math.max(0,16-(r-t)),i=window.setTimeout((function(){n(r+e)}),e);return t=r+e,i},window.cancelAnimationFrame=window.clearTimeout)}();var V=/\.0+$/g;function $(t){return Number.isInteger(t)?t+"":t.toFixed(6).replace(V,"")}function G(t){var n=arguments.length>1&&void 0!==arguments[1]?arguments[1]:" ";return t&&t.length?t.map($).join(n):""}function H(t){return t?null==t.a||t.a>=1?"rgb("+t.r+","+t.g+","+t.b+")":"rgba("+t.r+","+t.g+","+t.b+","+t.a+")":"transparent"}var Q={f:null,i:function(t,n,r){return 0===t?n:1===t?r:{x:w(t,n.x,r.x),y:w(t,n.y,r.y)}},u:function(t,n){return function(r){var e=n(r);t.setAttribute("rx",$(e.x)),t.setAttribute("ry",$(e.y))}}},U={f:null,i:function(t,n,r){return 0===t?n:1===t?r:{width:w(t,n.width,r.width),height:w(t,n.height,r.height)}},u:function(t,n){return function(r){var e=n(r);t.setAttribute("width",$(e.width)),t.setAttribute("height",$(e.height))}}},Y=Math.sin,Z=Math.cos,J=Math.acos,K=Math.asin,W=Math.tan,X=Math.atan2,tt=Math.PI/180,nt=180/Math.PI,rt=Math.sqrt,et=function(){function t(){var r=arguments.length>0&&void 0!==arguments[0]?arguments[0]:1,e=arguments.length>1&&void 0!==arguments[1]?arguments[1]:0,i=arguments.length>2&&void 0!==arguments[2]?arguments[2]:0,o=arguments.length>3&&void 0!==arguments[3]?arguments[3]:1,u=arguments.length>4&&void 0!==arguments[4]?arguments[4]:0,a=arguments.length>5&&void 0!==arguments[5]?arguments[5]:0;n(this,t),this.m=[r,e,i,o,u,a],this.i=null,this.w=null,this.s=null}return e(t,[{key:"point",value:function(t,n){var r=this.m;return{x:r[0]*t+r[2]*n+r[4],y:r[1]*t+r[3]*n+r[5]}}},{key:"translateSelf",value:function(){var t=arguments.length>0&&void 0!==arguments[0]?arguments[0]:0,n=arguments.length>1&&void 0!==arguments[1]?arguments[1]:0;if(!t&&!n)return this;var r=this.m;return r[4]+=r[0]*t+r[2]*n,r[5]+=r[1]*t+r[3]*n,this.w=this.s=this.i=null,this}},{key:"rotateSelf",value:function(){var t=arguments.length>0&&void 0!==arguments[0]?arguments[0]:0;if(t%=360){var n=Y(t*=tt),r=Z(t),e=this.m,i=e[0],o=e[1];e[0]=i*r+e[2]*n,e[1]=o*r+e[3]*n,e[2]=e[2]*r-i*n,e[3]=e[3]*r-o*n,this.w=this.s=this.i=null}return this}},{key:"scaleSelf",value:function(){var t=arguments.length>0&&void 0!==arguments[0]?arguments[0]:1,n=arguments.length>1&&void 0!==arguments[1]?arguments[1]:1;if(1!==t||1!==n){var r=this.m;r[0]*=t,r[1]*=t,r[2]*=n,r[3]*=n,this.w=this.s=this.i=null}return this}},{key:"skewSelf",value:function(t,n){if(n%=360,(t%=360)||n){var r=this.m,e=r[0],i=r[1],o=r[2],u=r[3];t&&(t=W(t*tt),r[2]+=e*t,r[3]+=i*t),n&&(n=W(n*tt),r[0]+=o*n,r[1]+=u*n),this.w=this.s=this.i=null}return this}},{key:"resetSelf",value:function(){var t=arguments.length>0&&void 0!==arguments[0]?arguments[0]:1,n=arguments.length>1&&void 0!==arguments[1]?arguments[1]:0,r=arguments.length>2&&void 0!==arguments[2]?arguments[2]:0,e=arguments.length>3&&void 0!==arguments[3]?arguments[3]:1,i=arguments.length>4&&void 0!==arguments[4]?arguments[4]:0,o=arguments.length>5&&void 0!==arguments[5]?arguments[5]:0,u=this.m;return u[0]=t,u[1]=n,u[2]=r,u[3]=e,u[4]=i,u[5]=o,this.w=this.s=this.i=null,this}},{key:"recomposeSelf",value:function(){var t=arguments.length>0&&void 0!==arguments[0]?arguments[0]:null,n=arguments.length>1&&void 0!==arguments[1]?arguments[1]:null,r=arguments.length>2&&void 0!==arguments[2]?arguments[2]:null,e=arguments.length>3&&void 0!==arguments[3]?arguments[3]:null,i=arguments.length>4&&void 0!==arguments[4]?arguments[4]:null;return this.isIdentity||this.resetSelf(),t&&(t.x||t.y)&&this.translateSelf(t.x,t.y),n&&this.rotateSelf(n),r&&(r.x&&this.skewSelf(r.x,0),r.y&&this.skewSelf(0,r.y)),!e||1===e.x&&1===e.y||this.scaleSelf(e.x,e.y),i&&(i.x||i.y)&&this.translateSelf(i.x,i.y),this}},{key:"decompose",value:function(){var t=arguments.length>0&&void 0!==arguments[0]?arguments[0]:0,n=arguments.length>1&&void 0!==arguments[1]?arguments[1]:0,r=this.m,e=r[0]*r[0]+r[1]*r[1],i=[[r[0],r[1]],[r[2],r[3]]],o=rt(e);if(0===o)return{origin:{x:r[4],y:r[5]},translate:{x:t,y:n},scale:{x:0,y:0},skew:{x:0,y:0},rotate:0};i[0][0]/=o,i[0][1]/=o;var u=r[0]*r[3]-r[1]*r[2]<0;u&&(o=-o);var a=i[0][0]*i[1][0]+i[0][1]*i[1][1];i[1][0]-=i[0][0]*a,i[1][1]-=i[0][1]*a;var l=rt(i[1][0]*i[1][0]+i[1][1]*i[1][1]);if(0===l)return{origin:{x:r[4],y:r[5]},translate:{x:t,y:n},scale:{x:o,y:0},skew:{x:0,y:0},rotate:0};i[1][0]/=l,i[1][1]/=l,a/=l;var f=0;return i[1][1]<0?(f=J(i[1][1])*nt,i[0][1]<0&&(f=360-f)):f=K(i[0][1])*nt,u&&(f=-f),a=X(a,rt(i[0][0]*i[0][0]+i[0][1]*i[0][1]))*nt,{origin:{x:r[4],y:r[5]},translate:{x:t,y:n},scale:{x:o,y:l},skew:{x:a,y:0},rotate:f}}},{key:"toString",value:function(){return null===this.s&&(this.s="matrix("+this.m.map(ot).join(" ")+")"),this.s}},{key:"determinant",get:function(){var t=this.m;return t[0]*t[3]-t[1]*t[2]}},{key:"isIdentity",get:function(){if(null===this.i){var t=this.m;this.i=1===t[0]&&0===t[1]&&0===t[2]&&1===t[3]&&0===t[4]&&0===t[5]}return this.i}}]),t}(),it=/\.0+$/;function ot(t){return Number.isInteger(t)?t:t.toFixed(14).replace(it,"")}Object.freeze({M:2,L:2,Z:0,H:1,V:1,C:6,Q:4,T:2,S:4,A:7});function ut(t,n,r){return t+(n-t)*r}function at(t,n,r){var e=arguments.length>3&&void 0!==arguments[3]&&arguments[3],i={x:ut(t.x,n.x,r),y:ut(t.y,n.y,r)};return e&&(i.a=lt(t,n)),i}function lt(t,n){return Math.atan2(n.y-t.y,n.x-t.x)}function ft(t,n,r,e){var i=1-e;return i*i*t+2*i*e*n+e*e*r}function st(t,n,r,e){return 2*(1-e)*(n-t)+2*e*(r-n)}function ct(t,n,r,e){var i=arguments.length>4&&void 0!==arguments[4]&&arguments[4],o={x:ft(t.x,n.x,r.x,e),y:ft(t.y,n.y,r.y,e)};return i&&(o.a=ht(t,n,r,e)),o}function ht(t,n,r,e){return Math.atan2(st(t.y,n.y,r.y,e),st(t.x,n.x,r.x,e))}function vt(t,n,r,e,i){var o=i*i;return i*o*(e-t+3*(n-r))+3*o*(t+r-2*n)+3*i*(n-t)+t}function yt(t,n,r,e,i){var o=1-i;return 3*(o*o*(n-t)+2*o*i*(r-n)+i*i*(e-r))}function dt(t,n,r,e,i){var o=arguments.length>5&&void 0!==arguments[5]&&arguments[5],u={x:vt(t.x,n.x,r.x,e.x,i),y:vt(t.y,n.y,r.y,e.y,i)};return o&&(u.a=gt(t,n,r,e,i)),u}function gt(t,n,r,e,i){return Math.atan2(yt(t.y,n.y,r.y,e.y,i),yt(t.x,n.x,r.x,e.x,i))}function pt(t,n,r){var e=arguments.length>3&&void 0!==arguments[3]&&arguments[3];if(bt(n)){if(wt(r))return ct(n,r.start,r,t,e)}else if(bt(r)){if(n.end)return ct(n,n.end,r,t,e)}else{if(n.end)return r.start?dt(n,n.end,r.start,r,t,e):ct(n,n.end,r,t,e);if(r.start)return ct(n,r.start,r,t,e)}return at(n,r,t,e)}function mt(t,n,r){var e=pt(t,n,r,!0);return e.a=function(t){var n=arguments.length>1&&void 0!==arguments[1]&&arguments[1];return n?t+Math.PI:t}(e.a)/p,e}function bt(t){return!t.type||"corner"===t.type}function wt(t){return null!=t.start&&!bt(t)}var kt=new et;var xt={f:$,i:b},At={f:$,i:function(t,n,r){var e=b(t,n,r);return e<=0?0:e>=1?1:e}};function _t(t,n,r,e,i,o,u,a){return n=function(t,n,r){for(var e,i,o,u=t.length-1,a={},l=0;l<=u;l++)(e=t[l]).e&&(e.e=n(e.e)),e.v&&"g"===(i=e.v).t&&i.r&&(o=r.getElementById(i.r))&&(a[i.r]=o.querySelectorAll("stop"));return a}(t,e,a),function(e){var i,o=r(e,t,St);return o?"c"===o.t?H(o.v):"g"===o.t?(n[o.r]&&function(t,n){for(var r=0,e=t.length;r<e;r++)t[r].setAttribute("stop-color",H(n[r]))}(n[o.r],o.v),(i=o.r)?"url(#"+i+")":"none"):"none":"none"}}function St(t,n,r){if(0===t)return n;if(1===t)return r;if(n&&r){var e=n.t;if(e===r.t)switch(n.t){case"c":return{t:e,v:A(t,n.v,r.v)};case"g":if(n.r===r.r)return{t:e,v:_(t,n.v,r.v),r:n.r}}}return m(t,n,r)}var Ot={fill:_t,"fill-opacity":At,stroke:_t,"stroke-opacity":At,"stroke-width":xt,"stroke-dashoffset":{f:$,i:b},"stroke-dasharray":{f:function(t){var n=arguments.length>1&&void 0!==arguments[1]?arguments[1]:" ";return t&&t.length>0&&(t=t.map((function(t){return Math.floor(1e4*t)/1e4}))),G(t,n)},i:function(t,n,r){var e,i,o,u=n.length,a=r.length;if(u!==a)if(0===u)n=S(u=a,0);else if(0===a)a=u,r=S(u,0);else{var l=(o=(e=u)*(i=a)/function(t,n){for(var r;n;)r=n,n=t%n,t=r;return t||1}(e,i))<0?-o:o;n=O(n,Math.floor(l/u)),r=O(r,Math.floor(l/a)),u=a=l}for(var f=[],s=0;s<u;s++)f.push(g(w(t,n[s],r[s]),6));return f}},opacity:At,transform:function(n,r,e,i){if(!(n=function(n,r){if(!n||"object"!==t(n))return null;var e=!1;for(var i in n)n.hasOwnProperty(i)&&(n[i]&&n[i].length?(n[i].forEach((function(t){t.e&&(t.e=r(t.e))})),e=!0):delete n[i]);return e?n:null}(n,i)))return null;var o=function(t,i,o){var u=arguments.length>3&&void 0!==arguments[3]?arguments[3]:null;return n[t]?e(i,n[t],o):r&&r[t]?r[t]:u};return r&&r.a&&n.o?function(t){var r=e(t,n.o,mt);return kt.recomposeSelf(r,o("r",t,b,0)+r.a,o("k",t,k),o("s",t,k),o("t",t,k)).toString()}:function(t){return kt.recomposeSelf(o("o",t,pt,null),o("r",t,b,0),o("k",t,k),o("s",t,k),o("t",t,k)).toString()}},r:xt,"#size":U,"#radius":Q,_:function(t,n){if(Array.isArray(t))for(var r=0;r<t.length;r++)this[t[r]]=n;else this[t]=n}};return function(t){!function(t,n){if("function"!=typeof n&&null!==n)throw new TypeError("Super expression must either be null or a function");t.prototype=Object.create(n&&n.prototype,{constructor:{value:t,writable:!0,configurable:!0}}),n&&o(t,n)}(u,t);var r=a(u);function u(){return n(this,u),r.apply(this,arguments)}return e(u,null,[{key:"build",value:function(t){var n=l(i(u),"build",this).call(this,t,Ot),r=(n.el,n.options,n.player);return function(t){t.play()}(r),r}}]),u}(L)}));
__SVGATOR_PLAYER__.build({"root":"01","animations":[{"duration":6000,"direction":1,"iterations":0,"fill":1,"alternate":false,"elements":{"01-xmlid_31_":{"transform":{"data":{"t":{"x":-460,"y":-698.5379638671875}},"keys":{"o":[{"t":0,"v":{"x":460,"y":698.5379638671875,"type":"corner"},"e":[0.42,0,0.58,1]},{"t":2500,"v":{"x":607,"y":698.5379638671875,"type":"corner"},"e":[0.42,0,0.58,1]},{"t":6000,"v":{"x":460,"y":698.5379638671875,"type":"corner"},"e":[0.42,0,0.58,1]}]}}},"01-xmlid_32_":{"transform":{"data":{"t":{"x":-397,"y":-665.5379028320312}},"keys":{"o":[{"t":0,"v":{"x":397,"y":665.5379028320312,"type":"corner"},"e":[0.42,0,0.58,1]},{"t":3700,"v":{"x":307,"y":665.5379028320312,"type":"corner"},"e":[0.42,0,0.58,1]},{"t":6000,"v":{"x":397,"y":665.5379028320312,"type":"corner"},"e":[0.42,0,0.58,1]}]}}},"01-xmlid_34_":{"transform":{"data":{"t":{"x":-490,"y":-665.5379028320312}},"keys":{"o":[{"t":0,"v":{"x":507,"y":665.5379028320312,"type":"corner"},"e":[0.42,0,0.58,1]},{"t":2600,"v":{"x":448,"y":665.5379028320312,"type":"corner"},"e":[0.42,0,0.58,1]},{"t":6000,"v":{"x":507,"y":665.5379028320312,"type":"corner"},"e":[0.42,0,0.58,1]}]}}},"01-xmlid_33_":{"transform":{"data":{"t":{"x":-128.0474033355713,"y":-277.8086929321289}},"keys":{"o":[{"t":0,"v":{"x":-1761.340299664428,"y":36.79929352212932,"type":"corner"}},{"t":6000,"v":{"x":1532.647403715572,"y":36.79929352212935,"type":"corner"}}]}}},"01-xmlid_37_":{"transform":{"data":{"t":{"x":-692.3000793457031,"y":-310.75305938720703}},"keys":{"o":[{"t":0,"v":{"x":-590.9603576642976,"y":51.45305634220696,"type":"corner"}},{"t":6000,"v":{"x":3010.395533345705,"y":51.45305634220699,"type":"corner"}}]}}}}}],"options":{"start":"load","hover":"freeze","click":"freeze","scroll":25,"exportedIds":"names","title":"01"},"animationSettings":{"duration":6000,"direction":1,"iterations":0,"fill":1,"alternate":false}})]]></script></svg>