<?xml version="1.0" encoding="utf-8"?>
<!-- Generator: Adobe Illustrator 19.0.0, SVG Export Plug-In . SVG Version: 6.00 Build 0)  -->
<svg version="1.1" id="Layer_5" xmlns="http://www.w3.org/2000/svg" xmlns:xlink="http://www.w3.org/1999/xlink" x="0px" y="0px"
	 viewBox="0 0 1447.5 615.3" style="enable-background:new 0 0 1447.5 615.3;" xml:space="preserve">
<style type="text/css">
	.st0{fill:#707070;}
	.st1{fill:url(#XMLID_62_);}
	.st2{fill:url(#XMLID_63_);}
	.st3{fill:url(#XMLID_64_);}
	.st4{fill:none;}
	.st5{fill:url(#XMLID_65_);}
	.st6{fill:url(#XMLID_66_);}
	.st7{fill:url(#XMLID_67_);}
	.st8{fill:url(#XMLID_68_);}
	.st9{fill:url(#XMLID_69_);}
</style>
<g id="XMLID_45_">
	<path id="XMLID_283_" class="st0" d="M706.7,365.7v60.5h-42.8l7.2-15.2v-95.5c0-43.2,24.3-64.9,72.8-64.9
		c48.6,0,72.8,21.6,72.8,64.9v110.8h-35.5v-60.5H706.7z M781.3,344.8v-29.3c0-29.3-12.4-44-37.3-44s-37.3,14.7-37.3,44v29.3H781.3z"
		/>
	<path id="XMLID_286_" class="st0" d="M876,253v152.3h80.7v20.9H840.5v-158l-7.2-15.2H876z"/>
	<path id="XMLID_288_" class="st0" d="M977.8,426.2v-158l-7.2-15.2H1094v20.9h-80.7v56.6h69.2v20.9h-69.2v53.9h80.7v20.9H977.8z"/>
	<path id="XMLID_290_" class="st0" d="M1160.9,352.5h-14.4v73.7H1111v-158l-7.2-15.2h77.7c42.9,0,64.4,16.6,64.4,49.8
		c0,26-13.2,41.8-39.6,47.5l61.6,76h-46.4L1160.9,352.5z M1146.5,331.6h34.9c19.2,0,28.9-9.6,28.9-28.9s-9.6-28.9-28.9-28.9h-34.9
		V331.6z"/>
	<path id="XMLID_293_" class="st0" d="M1349.2,356.1c-46.9-12.1-69.6-32.7-68-61.8c1.6-29.1,22.7-43.7,63.2-43.7
		c20.9,0,39.5,5,56,14.9l-16.9,25.4c-11-12.9-24.1-19.3-39.1-19.3c-16.8,0-26,7.6-27.7,22.8c-1.3,12.5,6.6,22.3,23.6,29.3
		c47,11.6,69.7,32,68.1,61.1c-1.6,29.1-23.1,43.7-64.4,43.7c-26.5,0-48.4-6.2-65.7-18.5l16.9-25.4c11.8,15.3,28.1,22.9,48.8,22.9
		c17.6,0,27.3-7.6,28.9-22.8C1374.2,372.3,1366.3,362.7,1349.2,356.1z"/>
	<path id="XMLID_57_" class="st0" d="M612.4,251v75h-66v-75h-1.8l-15.3,61.6l-18.9,77.7V426h36v-80h66v80h36V251H612.4z"/>
	<linearGradient id="XMLID_62_" gradientUnits="userSpaceOnUse" x1="266.8633" y1="319.9607" x2="559.4288" y2="319.9607">
		<stop  offset="0" style="stop-color:#05557D"/>
		<stop  offset="0.2029" style="stop-color:#1376A2"/>
		<stop  offset="0.4108" style="stop-color:#1E91BF"/>
		<stop  offset="0.6158" style="stop-color:#26A4D5"/>
		<stop  offset="0.8146" style="stop-color:#2BB0E2"/>
		<stop  offset="1" style="stop-color:#2DB4E6"/>
	</linearGradient>
	<path id="XMLID_88_" class="st1" d="M559.4,141.7l-46.6,182.7l-20.2,81.3c-17.3,66.5-85.5,107-152.6,89.9
		c-31.2-7.9-56.6-27-73.2-51.8c12.4-6.4,23.6-14.9,33.2-25.1c0.1-0.1,0.1-0.1,0.2-0.2c11.1,17.4,28.5,31.2,50.1,36.7
		c44.7,11.4,90.4-15.9,101.9-59.8l20-81.4l36.3-142.2c5.7-22.4,28.5-35.9,50.8-30.2L559.4,141.7z"/>
	<linearGradient id="XMLID_63_" gradientUnits="userSpaceOnUse" x1="210.5929" y1="316.6461" x2="379.8237" y2="349.1974">
		<stop  offset="0" style="stop-color:#05557D"/>
		<stop  offset="0.2029" style="stop-color:#1376A2"/>
		<stop  offset="0.4108" style="stop-color:#1E91BF"/>
		<stop  offset="0.6158" style="stop-color:#26A4D5"/>
		<stop  offset="0.8146" style="stop-color:#2BB0E2"/>
		<stop  offset="1" style="stop-color:#2DB4E6"/>
	</linearGradient>
	<path id="XMLID_87_" class="st2" d="M324.4,427.5c-5.2,20.2-13.6,29.7-27.6,44.6c0,0-0.1-0.1-0.1-0.1c-9.7,10.2-21,18.8-33.4,25.2
		c0,0-0.1,0-0.1,0c-26.4,13.8-57.9,18.2-89,10.3c-31.2-7.9-56.6-26.9-73.3-51.7c14.9,3.5,26.5,5.8,51-5.2
		c9.2,7.6,20.2,13.3,32.6,16.5c21.7,5.5,43.5,2.1,61.6-8c0,0,0,0,0,0.1c18-10,32.3-26.4,39-47.3c0.5-1.5,11.6-45.4,11.6-45.4
		l46-182.3c5.7-22.4,28.4-36,50.9-30.3h0L336.9,376L324.4,427.5z"/>
	<g id="XMLID_11_">
		<linearGradient id="XMLID_64_" gradientUnits="userSpaceOnUse" x1="73.3164" y1="373.8888" x2="385.5745" y2="102.6168">
			<stop  offset="0" style="stop-color:#86D4F0"/>
			<stop  offset="1" style="stop-color:#B8FFFF"/>
		</linearGradient>
		<path id="XMLID_86_" class="st3" d="M320.2,156.2c-19.4,17.5-71.4,49.5-120.2,84.1c-6.9,4.9-13.8,9.9-20.5,14.8
			c-31,23.1-58.8,46.5-72.6,66.9c-14.5,21.3-20.6,82.1-5.6,103v0c-11-10.2-32.8-41.9-17.1-111c0.9-3.8,2.1-7.5,3.5-11.1
			c0.6-1.6,1.3-3.1,2-4.6c0.5-1,1-2,1.5-3c0.8-1.5,1.6-3,2.4-4.5c0.6-1,1.2-2,1.8-2.9c16.2-26.5,45.9-48.8,76.9-68.4
			c13.5-8.5,27.2-16.5,40.2-24.1c18.5-10.8,35.5-20.8,48.2-30.4c48.9-36.7,88.6-106.5,88.6-106.5c0,0,0,0,0,0
			C358.6,72.5,355.1,124.8,320.2,156.2z"/>
		<path id="XMLID_85_" class="st4" d="M208.9,393.6"/>
		<path id="XMLID_84_" class="st4" d="M87.8,455c-1.5-2.1-3.1-4.2-4.9-6.3"/>
		<linearGradient id="XMLID_65_" gradientUnits="userSpaceOnUse" x1="-17.7124" y1="707.7792" x2="113.9954" y2="486.2265">
			<stop  offset="0" style="stop-color:#2DB4E6"/>
			<stop  offset="0.2351" style="stop-color:#2AB0E2"/>
			<stop  offset="0.4872" style="stop-color:#23A3D6"/>
			<stop  offset="0.7461" style="stop-color:#178DC1"/>
			<stop  offset="1" style="stop-color:#0671A6"/>
		</linearGradient>
		<path id="XMLID_83_" class="st5" d="M68.1,571c0,0,53.8-66,19.6-116.1c15,15.1,33.5,31.5,55.7,37.7c-0.4,0.2-0.9,0.3-1.4,0.5
			C142.2,493.1,155.5,541.5,68.1,571z"/>
		<linearGradient id="XMLID_66_" gradientUnits="userSpaceOnUse" x1="46.7609" y1="438.8735" x2="391.2437" y2="4.0631">
			<stop  offset="0" style="stop-color:#087FB9"/>
			<stop  offset="1" style="stop-color:#2DB4E6"/>
		</linearGradient>
		<path id="XMLID_82_" class="st6" d="M349.6,58.7c0,0-39.7,69.6-88.6,106.3C212.1,201.6,99.9,245,84.2,314.1
			c-15.7,69.1,6.1,100.8,17.1,111v0.5l0.1-0.5c16.3,22.6,67.5,31.4,107.2-31.5c0,0,14.5,31.5-7.2,61.6c-10,13.9-27.7,27.5-58.1,37.4
			c-22.2-6.1-40.7-22.6-55.7-37.7C56,423,39,368.5,39,340.5C39,185.2,158,57.7,309.9,44.2c0,0,30.5,0.2,39.6,14.2L349.6,58.7z"/>
		<linearGradient id="XMLID_67_" gradientUnits="userSpaceOnUse" x1="164.154" y1="211.028" x2="222.5022" y2="206.6281">
			<stop  offset="0" style="stop-color:#0671A6"/>
			<stop  offset="0.2539" style="stop-color:#178DC1"/>
			<stop  offset="0.5128" style="stop-color:#23A3D6"/>
			<stop  offset="0.7649" style="stop-color:#2AB0E2"/>
			<stop  offset="1" style="stop-color:#2DB4E6"/>
		</linearGradient>
		<path id="XMLID_81_" class="st7" d="M230.2,160.8c-7.4,12.7-13.2,24.2-17.6,34.5c0,0,0,0.1,0,0.1c-7.8,18.3-11.3,33.2-12.6,44.9
			c-6.9,4.9-13.8,9.9-20.5,14.8c-4.5-6.7-7.8-14.9-7.8-24.6c0-3.7-0.3-7.4,0.7-11.1v-0.1c3-27.1,16.4-50,16.4-50L230.2,160.8z"/>
		<linearGradient id="XMLID_68_" gradientUnits="userSpaceOnUse" x1="149.3941" y1="362.0062" x2="277.0946" y2="23.9432">
			<stop  offset="0" style="stop-color:#087FB9"/>
			<stop  offset="1" style="stop-color:#2DB4E6"/>
		</linearGradient>
		<path id="XMLID_80_" class="st8" d="M194.5,164.9c0,0-20.1,29.4-20.1,61.1s41.1,47.1,41.1,47.1s-31.3-31.4,27.9-117L194.5,164.9z"
			/>
		<linearGradient id="XMLID_69_" gradientUnits="userSpaceOnUse" x1="274.2763" y1="79.3056" x2="519.2972" y2="79.3056">
			<stop  offset="0" style="stop-color:#0671A6"/>
			<stop  offset="0.2539" style="stop-color:#178DC1"/>
			<stop  offset="0.5128" style="stop-color:#23A3D6"/>
			<stop  offset="0.7649" style="stop-color:#2AB0E2"/>
			<stop  offset="1" style="stop-color:#2DB4E6"/>
		</linearGradient>
		<circle id="XMLID_79_" class="st9" cx="287.7" cy="79.3" r="10"/>
	</g>
</g>
</svg>
