<?xml version="1.0" encoding="utf-8"?>
<!-- Generator: Adobe Illustrator 19.0.0, SVG Export Plug-In . SVG Version: 6.00 Build 0)  -->
<svg version="1.1" id="_x31_084a417-9858-42b6-ae26-d97e116abc6c"
	 xmlns="http://www.w3.org/2000/svg" xmlns:xlink="http://www.w3.org/1999/xlink" x="0px" y="0px" viewBox="-34 91.3 929.7 818.7"
	 style="enable-background:new -34 91.3 929.7 818.7;" xml:space="preserve">
<style type="text/css">
	.st0{opacity:0.1;fill:#69A6FF;enable-background:new    ;}
	.st1{fill:none;}
	.st2{opacity:0.1;}
	.st3{fill:#939393;}
	.st4{fill:#69A6FF;}
	.st5{fill:#E6E8EC;}
	.st6{fill:url(#SVGID_1_);}
	.st7{fill:url(#SVGID_2_);}
	.st8{fill:#FEC2BE;}
	.st9{opacity:0.1;enable-background:new    ;}
	.st10{opacity:5.000000e-002;enable-background:new    ;}
	.st11{fill:#CEDDF9;}
	.st12{fill:#FFFFFF;}
	.st13{fill:#A8A8A8;}
	.st14{opacity:0.2;enable-background:new    ;}
</style>
<title>product teardown</title>
<ellipse class="st0" cx="719.6" cy="845.6" rx="118.9" ry="20.5"/>
<ellipse class="st0" cx="359.7" cy="825.6" rx="176" ry="12.5"/>
<path class="st0" d="M253.6,123.3c31.5-28.1,81-33.8,126-31.6c141.4,7,269.1,75.3,379.6,152.5c40,28,79.3,58.1,105.3,96.6
	c52.8,78.4,37.2,187-36.3,251.5c-25,22-55.3,38.8-86.4,53.7c-55.3,26.5-115,47.9-177.7,53.9c-44.8,4.3-90.1,0.8-134.6-5.2
	C305.1,678,183.1,640.7,80.8,576.9c-44.9-28-87.1-62.8-105.6-108s-6.6-102.6,39.2-129.4c19-11.1,41.6-16.1,63.8-20.8
	c32.6-6.9,65.8-13.7,95.3-27.8c30.4-14.5,66.4-42.6,60.4-74.8C227.3,181.7,222.1,151.4,253.6,123.3z"/>
<line class="st1" x1="130" y1="268.2" x2="122.5" y2="268.2"/>
<g class="st2">
	<path d="M372.6,737.7c3.8,6.5,9.9,10.7,16.6,10.7c11.6,0,21-12.3,21-27.4s-9.5-27.3-21-27.3c-5.5,0-10.4,2.7-14.2,7.2
		c-1.4,1.7-2.6,3.6-3.6,5.6l-0.2,1.2c0,0-4.5,3.8-10.6,0.3v-88.8h-86.7c-1.4-1.9-1.8-4.3-1-6.5c0.6-2,2-3.7,3.9-4.8
		c6.5-3.8,10.8-9.9,10.8-16.6c0-11.6-12.3-21-27.4-21s-27.4,9.4-27.4,21c0,5.5,2.7,10.4,7.2,14.2c1.7,1.4,3.6,2.6,5.6,3.6l0.1,0.2
		c2.7,2.6,3.4,6.7,1.7,10h-39.1v164.5c0,21.5,17.5,39,39,39l0,0h113.5v-87.3c1.9-1.8,4.6-2.4,7.1-1.5
		C369.9,734.4,371.6,735.8,372.6,737.7z"/>
	<path d="M226.7,615.7h13.6c-6.7-5.1-10.6-13.1-10.7-21.5c0-15.6,13.6-28.2,30.4-28.2s30.4,12.6,30.4,28.2
		c-0.1,8.4-4,16.4-10.7,21.5H361V528c1.9-1.8,4.6-2.3,7.1-1.5c2,0.6,3.7,2,4.8,3.9c3.8,6.5,9.8,10.7,16.6,10.7
		c11.6,0,21-12.3,21-27.4c0-15.1-9.4-27.4-21-27.4c-5.5,0-10.4,2.7-14.2,7.2c-1.4,1.7-2.6,3.6-3.6,5.6l-0.2,0.1
		c-2.8,2.9-7.2,3.5-10.6,1.4v-88.8h-83.5c-1.4-1.9-1.8-4.3-1-6.5c0.6-2,2-3.7,3.9-4.8c6.5-3.8,10.7-9.9,10.7-16.6
		c0-11.6-12.3-21-27.4-21s-27.4,9.4-27.4,21c0,5.5,2.7,10.4,7.2,14.2c1.7,1.4,3.6,2.6,5.6,3.6l0.1,0.2c2.7,2.6,3.4,6.7,1.7,10h-24.2
		v-4.5h17.8c-6.7-5.1-10.6-13-10.7-21.5c0-15.6,13.6-28.2,30.4-28.2s30.4,12.6,30.4,28.2c-0.1,8.4-4,16.4-10.8,21.5h77.1v-88.7
		c1.9-1.8,4.6-2.4,7.1-1.5c2,0.6,3.7,2,4.8,3.9c3.8,6.5,9.9,10.7,16.6,10.7c11.6,0,21-12.3,21-27.4c0-15.2-9.4-27.4-21-27.4
		c-5.5,0-10.4,2.7-14.2,7.2c-1.4,1.7-2.6,3.6-3.6,5.6l-0.2,1.2c0,0-4.5,3.8-10.6,0.3v-82.7H247.5c-21.5,0-39,17.5-39,39v42.2h-0.6
		c-1.3,0-2.3,1-2.3,2.3l0,0v20c0,1.3,1,2.3,2.3,2.3h0.6v20.4h-0.8c-1.3,0-2.3,1-2.3,2.3v38.2c0,1.3,1,2.3,2.3,2.3h0.8v15h-0.6
		c-1.3,0-2.3,1-2.3,2.3c0,0,0,0,0,0v12.3H205V433c0,1.3,1,2.3,2.3,2.3c0,0,0,0,0,0h0.7v180.3H226.7z"/>
	<path d="M523.4,350.2c0-1.3-1-2.3-2.3-2.3h-1.4v-2.5H519v-99.8c0-20.7-16.8-37.5-37.5-37.5c0,0,0,0,0,0H369v76
		c5.2-6.9,13.3-11,22-11c15.7,0,28.5,13.6,28.5,30.4s-12.7,30.4-28.5,30.4c-8.7,0-16.8-4.1-22-11v84.3h91
		c-6.7-5.2-10.6-13.1-10.7-21.5c0-15.6,13.6-28.3,30.3-28.3c7.4,0,14.7,2.6,20.4,7.3c11.5,9.2,13.4,26,4.2,37.6
		c-1.2,1.6-2.6,3-4.2,4.2v0.7h19.8V407h3.7L523.4,350.2z"/>
	<path d="M493.2,611.2v-10l0,0c0.4-0.6,0.8-1.2,1.1-1.9c1.3-2.4,2-5.2,2.1-8c0-1.9-0.3-3.7-0.9-5.4c-0.5-1.6-1.3-3-2.3-4.4l0,0
		c-4.6-6.6-13.7-11.2-24.2-11.2c-15.2,0-27.4,9.4-27.4,21c0,5.5,2.7,10.4,7.2,14.2c1.7,1.4,3.6,2.6,5.6,3.6l0.1,0.2
		c2.7,2.6,3.4,6.7,1.7,10h-88.2v82c5.1-6.9,13.2-10.9,21.8-11c15.6,0,28.2,13.6,28.2,30.4S405.3,751,389.7,751
		c-8.6-0.1-16.6-4.1-21.8-11v66.2h101.2c13.3,0,24-10.7,24.1-24V619.3l0,0v162.8c0,13.3-10.8,24.1-24.1,24.1H367.9v16h105
		c21.5,0,39-17.5,39-39l0,0V619.3l0,0V615h-18.7V611.2z"/>
</g>
<path class="st3" d="M252.1,802.5c-13.3,0-24.1-10.8-24.1-24.1V615.1h-18.7v164.4c0,21.5,17.5,39,39,39l0,0h113.5v-16L252.1,802.5z"
	/>
<path class="st4" d="M368.8,729.8c2,0.6,3.7,2,4.8,3.9c3.8,6.5,9.9,10.7,16.6,10.7c11.6,0,21-12.3,21-27.4s-9.4-27.4-21-27.4
	c-5.5,0-10.4,2.7-14.2,7.2c-1.4,1.7-2.6,3.6-3.6,5.6l-0.2,1.2c0,0-4.5,3.8-10.6,0.3v-88.8h-86.7c-1.4-1.9-1.8-4.3-1-6.5
	c0.6-2,2-3.7,3.9-4.8c6.5-3.8,10.8-9.9,10.8-16.6c0-11.6-12.3-21-27.4-21s-27.4,9.4-27.4,21c0,5.5,2.7,10.4,7.2,14.2
	c1.7,1.4,3.6,2.6,5.6,3.6l0.1,0.2c2.7,2.6,3.4,6.7,1.7,10H228v163.4c0,13.3,10.8,24.1,24.1,24.1h109.8v-71.2
	C363.7,729.5,366.4,728.9,368.8,729.8z"/>
<rect x="206" y="403" class="st3" width="3" height="4.8"/>
<rect x="211.5" y="403" class="st3" width="16.2" height="4.8"/>
<rect x="209" y="403" class="st3" width="2.5" height="4.8"/>
<path class="st4" d="M367.9,617"/>
<path class="st3" d="M208.3,431.2h0.7v-23.4h-3V429C206,430.2,207,431.2,208.3,431.2C208.3,431.2,208.3,431.2,208.3,431.2z"/>
<path class="st3" d="M227.7,407.9h-16.2V429c0,1.3-1,2.3-2.3,2.3c0,0,0,0,0,0H209v180.4h18.7L227.7,407.9z"/>
<path class="st3" d="M209,431.2h0.2c1.3,0,2.3-1,2.3-2.3c0,0,0,0,0,0v-21.1H209L209,431.2z"/>
<path class="st4" d="M230.6,590.1c0-15.6,13.6-28.2,30.4-28.2s30.4,12.6,30.4,28.2c-0.1,8.5-4,16.4-10.7,21.5H362V524
	c1.9-1.8,4.6-2.3,7.1-1.5c2,0.6,3.7,2,4.8,3.9c3.8,6.5,9.8,10.7,16.6,10.7c11.6,0,21-12.3,21-27.4c0-15.1-9.4-27.4-21-27.4
	c-5.5,0-10.4,2.7-14.2,7.2c-1.4,1.7-2.6,3.6-3.6,5.6l-0.2,0.1c-2.8,2.9-7.2,3.5-10.6,1.4v-88.8h-83.5c-1.4-1.9-1.8-4.3-1-6.5
	c0.6-2,2-3.7,3.9-4.8c6.5-3.8,10.7-9.9,10.7-16.6c0-11.6-12.3-21-27.4-21s-27.4,9.4-27.4,21c0,5.5,2.7,10.4,7.2,14.2
	c1.7,1.4,3.6,2.6,5.6,3.6l0.1,0.2c2.7,2.6,3.4,6.7,1.7,10h-24.2v203.8h13.6C234.6,606.5,230.6,598.6,230.6,590.1z"/>
<path class="st3" d="M212,390.4c0-1.3-1-2.3-2.3-2.3c0,0,0,0,0,0h-0.2V403h2.5L212,390.4z"/>
<path class="st3" d="M209.4,285.7h-0.5c-1.3,0-2.3,1-2.3,2.3l0,0v20c0,1.3,1,2.3,2.3,2.3h0.6L209.4,285.7L209.4,285.7z"/>
<path class="st3" d="M208.7,330.7c-1.3,0-2.3,1-2.3,2.3v38.2c0,1.3,1,2.3,2.3,2.3h0.8v-42.8H208.7z"/>
<path class="st3" d="M209.5,388.4h-0.6c-1.3,0-2.3,1-2.3,2.3c0,0,0,0,0,0v12.6h3L209.5,388.4z"/>
<path class="st3" d="M209.5,243.5v42.2c1.2,0,2.2,1.1,2.2,2.3v20c0,1.2-1,2.2-2.2,2.3v20.4h0.4c1.3,0,2.3,1,2.3,2.3c0,0,0,0,0,0
	v38.2c0,1.3-1,2.3-2.3,2.3c0,0,0,0,0,0h-0.4v15h0.2c1.3,0,2.3,1,2.3,2.3v12.6h16.2V244.7c0-13.3,10.8-24.1,24-24.1h32.6v4.2
	c0,10.9,8.9,19.8,19.8,19.8H362v-13.1h-26.4c-2.1,0-3.8-1.7-3.9-3.9v-0.8c0-2.1,1.7-3.9,3.9-3.9H362v-18.4H248.5
	C226.9,204.5,209.5,222,209.5,243.5z"/>
<path class="st3" d="M211.7,308v-20c0-1.2-1-2.2-2.2-2.3v24.5C210.7,310.2,211.7,309.2,211.7,308z"/>
<path class="st3" d="M212.1,371.2V333c0-1.3-1-2.3-2.3-2.3c0,0,0,0,0,0h-0.4v42.8h0.4C211.1,373.5,212.1,372.5,212.1,371.2
	C212.1,371.2,212.1,371.2,212.1,371.2z"/>
<path class="st4" d="M234.8,381.9c0-15.6,13.6-28.2,30.4-28.2s30.4,12.6,30.4,28.2c-0.1,8.4-4,16.4-10.8,21.5h77.1v-88.7
	c1.9-1.8,4.6-2.4,7.1-1.5c2,0.6,3.7,2,4.8,3.9c3.8,6.5,9.9,10.7,16.6,10.7c11.6,0,21-12.3,21-27.4c0-15.2-9.4-27.4-21-27.4
	c-5.5,0-10.4,2.7-14.2,7.2c-1.4,1.7-2.6,3.6-3.6,5.6l-0.2,1.2c0,0-4.5,3.8-10.6,0.3v-42.7h-57.3c-10.9,0-19.8-8.9-19.8-19.8v-4.2
	h-32.6c-13.3,0-24.1,10.8-24.1,24.1c0,0,0,0,0,0v158.7h17.3C238.9,398.2,234.9,390.3,234.8,381.9z"/>
<path class="st5" d="M335.6,222.9c-2.1,0-3.9,1.7-3.9,3.9v0.9c0,2.1,1.7,3.9,3.9,3.9H362V223L335.6,222.9z"/>
<path class="st3" d="M514,343.7v59.4h6.8v-61.8h-3.7C515.4,341.4,514,342.4,514,343.7z"/>
<rect x="370" y="204.1" class="st3" width="8" height="18"/>
<rect x="370" y="231.1" class="st3" width="8" height="13"/>
<rect x="370" y="222.1" class="st5" width="8" height="9"/>
<path class="st3" d="M522.1,343.9h-1.9V403h4.2v-56.9C524.4,344.9,523.4,343.9,522.1,343.9z"/>
<path class="st3" d="M378,222.1c2.1,0.5,4,4.4,4,4.4v0.8c0,0-1.9,3.9-4,3.8l0,0v13h45.2c10.9,0,19.8-8.9,19.8-19.8v-4.2h34
	c13.3,0,24,10.8,24,24.1v116.5c11.5,9.2,13.4,26,4.2,37.6c-1.2,1.6-2.6,3-4.2,4.2v0.7h14v-58.7c0-0.2,0.1-0.3,0.3-0.3c0,0,0,0,0,0
	h4.7V241.6c0-20.7-16.8-37.5-37.5-37.5c0,0,0,0,0,0H377v18H378z M393.1,222c2.7,0,4.9,2.2,4.9,4.9s-2.2,4.9-4.9,4.9
	c-2.7,0-4.9-2.2-4.9-4.9c0,0,0,0,0,0C388.3,224.2,390.5,222,393.1,222z"/>
<path class="st4" d="M392,269c15.7,0,28.5,13.6,28.5,30.4c0,16.8-12.7,30.4-28.5,30.4c-8.7,0-16.8-4.1-22-11v84.3h91
	c-6.7-5.2-10.6-13.1-10.7-21.5c0-15.6,13.6-28.3,30.3-28.3c7.5-0.1,14.7,2.6,20.4,7.4V244.2c0-13.3-10.7-24-24-24.1h-34v4.2
	c0,10.9-8.9,19.8-19.8,19.8H370v36C375.2,273.2,383.3,269.1,392,269z"/>
<path class="st5" d="M378,231.1c2.1,0,3.9-1.7,4-3.8v-0.8c-0.2-2.2-1.9-3.9-4-4.4h-1v9H378z"/>
<circle class="st5" cx="393.1" cy="226.9" r="4.9"/>
<path class="st3" d="M494.2,607.2v-10c4.3-5.9,4.3-13.8,0-19.6V607.2z"/>
<rect x="494.2" y="611" class="st3" width="18.7" height="4.3"/>
<path class="st4" d="M486.7,604c-1.9,1-3.3,2.7-3.9,4.8c-0.8,2.2-0.4,4.7,1,6.5h10.4V611h-4c1.4-1.2,2.8-2.5,4-3.9v-10
	C492.2,600,489.7,602.3,486.7,604z"/>
<path class="st4" d="M490.2,611h4v-3.9C493,608.6,491.6,609.9,490.2,611z"/>
<path class="st3" d="M497.4,587.4c0-3.5-1.1-7-3.2-9.8v19.6C496.3,594.3,497.4,590.9,497.4,587.4z"/>
<path class="st3" d="M512.9,615.3v163.9c0,21.5-17.5,39-39,39l0,0h-105v-16h101.2c13.3,0,24.1-10.8,24.1-24.1V615.3H512.9z"/>
<path class="st4" d="M482.8,608.8c0.6-2,2-3.7,3.9-4.8c3-1.7,5.6-4,7.5-6.8v-19.6c-4.6-6.6-13.7-11.2-24.2-11.2
	c-15.2,0-27.4,9.4-27.4,21c0,5.5,2.7,10.4,7.2,14.2c1.7,1.4,3.6,2.6,5.6,3.6l0.1,0.2c2.7,2.6,3.4,6.7,1.7,10h-88.2v82
	c5.1-6.9,13.2-10.9,21.8-11c15.6,0,28.2,13.6,28.2,30.4s-12.6,30.4-28.2,30.4c-8.6-0.1-16.6-4.1-21.8-11v66.2h101.2
	c13.3,0,24-10.7,24.1-24V615.3h-10.4C482.4,613.5,482,611,482.8,608.8z"/>
<linearGradient id="SVGID_1_" gradientUnits="userSpaceOnUse" x1="814.5078" y1="601.52" x2="814.5078" y2="633.47" gradientTransform="matrix(1 0 0 -1 -135.16 961.98)">
	<stop  offset="0" style="stop-color:#808080;stop-opacity:0.25"/>
	<stop  offset="0.54" style="stop-color:#808080;stop-opacity:0.12"/>
	<stop  offset="1" style="stop-color:#808080;stop-opacity:0.1"/>
</linearGradient>
<path class="st6" d="M673,360.5c5.6-2.5,9.7-6.7,11.1-12.2c0.2-0.7,0.3-1.3,0.4-2c0.2-0.6,0.5-1.3,0.6-1.9
	c1.4-5.4-0.1-11.1-3.8-15.9l-7.3,28l0,0L673,360.5z"/>
<linearGradient id="SVGID_2_" gradientUnits="userSpaceOnUse" x1="805.0504" y1="103.8756" x2="805.0504" y2="739.3461" gradientTransform="matrix(1 0 0 -1 -135.16 961.98)">
	<stop  offset="0" style="stop-color:#808080;stop-opacity:0.25"/>
	<stop  offset="0.54" style="stop-color:#808080;stop-opacity:0.12"/>
	<stop  offset="1" style="stop-color:#808080;stop-opacity:0.1"/>
</linearGradient>
<path class="st7" d="M841.8,350c-1.1-6.7-22.3-21.2-22.3-21.2s-9.3-5-14.3-10.8c-3.2-3.7-4.2-3.6-4.5-3.1c-0.2-0.1-0.4-0.2-0.7-0.2
	c-0.2-0.1-0.4-0.3-0.6-0.4l0,0c0.1-0.6-0.3-1.1-0.8-1.4c-0.2-0.1-0.5-0.3-0.7-0.5c-1.6-2.7-2.2-6.5-2.4-9.8c-0.2-4.2-5-3.1-6.6-2.7
	c-1.1-2.1-2.2-4.3-3.2-6.5c0.5-0.7,0.8-1.5,1.1-2.3c2.9-6.4,2.3-13.7,3.6-20.5c0.9-4.9,2.8-10,2.5-14.8c0-0.1,0-0.2,0-0.4
	c0,0,0,0.1,0,0.1c-0.1-1.2-0.4-2.4-0.8-3.5c-0.8-2.1-2.3-4-3-6.2c-1.1-3.2-0.4-6.8-1.3-10.1c-1.1-4.1-4.6-7.3-8.6-9.2
	c-4-1.8-8.4-2.5-12.7-3c-10.8-1.4-22.4-2.2-32.3,2.4c-0.9,0.5-1.9,0.8-3,0.8c-1-0.3-1.9-0.7-2.7-1.3c-2.7-1.3-6-0.5-8.4,1.3
	s-4,4.3-5.6,6.8c-1.6,2.5-3.3,5-5.8,6.6c-2.9,1.9-6.7,2.6-9,5.2c-1,1.2-1.7,2.7-1.9,4.3c0,0,0-0.1,0-0.1c0,0.2,0,0.4,0,0.6
	c0,0.1,0,0.3,0,0.5s0,0.3,0,0.4c0,0.4,0,0.9,0,1.3c0.3,2.4,1,4.8,1.9,7.1c0.5,1.7,1.4,3.2,2.6,4.5c3.5,2.8,9,0.2,13.2,1.7
	c0.4,0.1,0.7,0.3,1.1,0.5c0,0.2-0.1,0.3-0.2,0.5c-0.9,3.1-1.4,6.2-1.3,9.4c0,18.8,15.6,34,34.8,34c0.7,0,1.4,0,2.1-0.1
	c0.1,0.4,0.2,0.8,0.3,1.1c1.1,4.1,1.4,8.5,1,12.7l-0.2-1.9c-0.5-0.2-1-0.4-1.4-0.5c-1.4-0.5-2.9-0.7-4.3-0.7
	c-4.7-0.1-11.8,1.8-19.4,11.1c0,0-9.7,5.4-12.6,6.7c-0.2,0.1-0.4,0.4-0.5,0.6l0,0c0,0-13,19.6-14.3,27c-1.3,7.5-3,16-3,16
	s-3.2,9.7-5.3,13.9c-2.1,4.3-4,8.4-4.2,10.2c-0.2,1.9,0.8,5.9-3.2,8.5s-5,9.7-5,9.7s-2,1.9-4.8,4.3h-0.1l10.5-40.1l1.9,0.5
	c0.9,0.2,1.9-0.1,2.5-0.8c0.2-0.2,0.3-0.5,0.4-0.8l2.1-8.1l0.8-3.2l0.2-0.7l1.2-4.7l-4.2-1l-4.9-1.2l-13.8-3.5l1.2-4.6l0,0l1-3.9
	l0,0l6.3-24.1l0,0l1-3.9c-4-5.2-10.4-9.4-18.2-11.3c-15.1-3.8-29.7,2.4-32.7,13.6c-0.2,0.7-0.3,1.3-0.4,2c-0.3,0.6-0.5,1.3-0.6,1.9
	c-0.5,2-0.6,4-0.4,6c0,0.3,0.1,0.7,0.2,1c0.6,3.1,1.9,6,3.8,8.6c1.4,1.8,2.9,3.4,4.7,4.9l0.1,0.2c0.7,1.2,1.2,2.6,1.3,4
	c0,0.2,0,0.4,0,0.6c-0.3,0.6-0.7,1.2-1.2,1.7l-92.3-22.9l-1,3.9l0,0l-20.8,79.8l0,0c2.7-2.1,5.8-3.7,9-4.8c1.3-0.4,2.6-0.8,3.9-1
	l0.5-0.1c3.7-0.6,7.5-0.4,11.2,0.5c11.7,2.9,19.7,12.8,21.2,24.5c0.2,1.5,0.3,3,0.3,4.5c0,1.9-0.2,3.8-0.6,5.6
	c-5,15.2-20.4,24.4-35.3,20.6c-8.5-2.1-15.5-8.1-18.9-16.1l-1,3.9l0,0l-21.4,82l81.7,20.3l0,0l0.9-3.9h0.1
	c-4.9-6.1-6.9-13.9-5.6-21.6c0-0.1,0.1-0.3,0.1-0.4c0.1-0.3,0.2-0.6,0.3-0.9c0.6-1.4,1.2-2.7,2-4c0.4-0.6,0.8-1.3,1.3-1.9
	c0.3-0.4,0.6-0.8,0.9-1.1c1.4-1.7,3.1-3.3,4.9-4.7l0.6-0.4c0.7-0.5,1.3-0.9,2-1.3c0.4-0.2,0.8-0.5,1.3-0.7
	c4.8-2.6,10.2-3.8,15.7-3.8c2.6,0,5.2,0.4,7.8,1c7.9,1.9,14.8,6.7,19.3,13.4c0.6,0.9,1.1,1.8,1.6,2.8c1.5,2.9,2.4,6,2.8,9.1
	c0.3,2.5,0.2,5.1-0.2,7.6c-1.9,5.6-5.7,10.4-10.6,13.7l-1,3.8h0.1l-0.2,0.1l-1,3.8l18.7,4.6l26.4-101.1c7.1-0.8,10.8-4,10.8-4.5
	s8.6-5.2,13.3-6.5c2.4-0.6,5.1-1.1,7.3-1.6c-2.6,12.7-5,25-4.8,25.7c0.1,0.3,0.5-0.2,1.2-1.1c-0.1,0.4-0.1,0.7-0.1,1.1
	c0,0.2,0.3,0,0.6-0.3l0,0.2c0,0-14.8,28.7-16,32c-1.2,3.3,0.3,11.7,4.8,14.5c0.9,0.6,1.7,1.3,2.3,2.1l-0.5,1.1
	c-1.7,3.5-3.2,7.3-2.9,9.7c0.4,3-0.3,6.1-2,8.6c0,0-12.8,39.7-12.6,51.1c0.3,11.4-4.6,36.5-4.6,36.5s-5.3,16.2-2.1,20.8
	s6.7,24.7,6.7,24.7s2.4,4.6,2.3,8.5c-0.2,3.9,2.3,11,2.3,11l8,28.8c0,0-0.9,7.7,2.1,13.1s2.7,3.8,1.3,13.2c-1.4,9.5,1.7,18.3,6.8,21
	c2,1.1,2.1,2.7,1.5,4.3l0,0c-1.3-0.5-2.4,2.2-3,4.4l-0.7,0.6l0.4,0.1c-0.3,1-0.4,1.8-0.4,1.8s-13.4,11.2-14.3,15.2
	c-0.9,4-10.3,6.1-10.3,6.1s-14.3,3.9-18,5.8c-2.2,1-3.7,3-3.9,5.4c-0.2,1.8,0,3.7,0.5,5.5c1.4,5.7,21.4,6.3,31,4.7
	s29.4-7.1,29.4-7.1s20.8-2,27-4.5c6.2-2.5,1.3-8.9,1.3-8.9s0-0.2,0-0.6c0.2-2.3,0.6-10.8-0.9-13c-1.1-1.7-1.1-6-0.9-8.7
	c4.2-7.5-4.8-30-4.8-30s1.7-22,0.6-25.2s-6-30.5-6-30.5s-3-12.4-1.8-14.5s-0.7-8.1-0.7-8.1s-4.9-6.7-4.5-8.8
	c0.4-2.1-1.4-5.8-1.4-5.8s14.6-21.7,13.3-25.8c-1.3-4,0.6-10.6,0.6-10.6s1.8-3.1,4-6.8c2.7-4.5,6-9.9,7.1-11.6
	c1.4-2.2,4.8-11.3,6.7-16.6c0.8-2.2,1.3-3.8,1.3-3.8s2.3,41,4.3,45.2s5,37.2,5,37.2c1.1,2.9,1.6,6.1,1.4,9.2
	c-0.3,5.2,4.6,27.6,4.6,27.6s2.1,15.9,0.7,20.1c-1.4,4.2-0.3,35-0.3,35s-7.8,6-9.8,10.6s0.3,17.1,0.3,17.1l0.9,0.4
	c-0.7,1.7-1.3,3.6-1.6,5.4c-0.3,2.7-4.6,14.6-4.1,16.3c0.4,1.7-1.8,6.8-2.1,9.5s-3.8,6.5-4.1,8c-0.5,1.3-1,2.5-1.6,3.7
	c-0.8,1.8-1.4,3.7-1.8,5.7c-1.4,5.9,15.6,6.8,15.6,6.8c25.1,4.6,29.7-14.2,29.7-14.2s3.1-16.7,4.3-18c0.3-0.5,0.4-1.1,0.2-1.6l0,0
	c-0.7-2.8-1.9-5.5-3.6-7.9c-0.8-0.9-0.8-3.3-0.7-5.5c0.7-0.1,1.4-0.2,2.2-0.4c10.1-2.9,6-19.8,6-19.8s6.8-11.1,6.8-15.5
	s2.4-17.6,2.4-17.6c8.7-15.6,5.3-53.5,6.7-56.6c1.4-3.1-3-14.5-6.6-19.7c-3.6-5.2-2.1-19.1,0-23.1s-2.1-18-2.1-18s4.1-27,4-31.2
	s3.6-16.6,3.6-16.6s3.7-6.4,2.8-8.4c-0.9-2,2.8-7,1.9-9.2s0.8-9.1,2.7-13.1c1-2.1,2.1-7.8,3-12.8c0.1-0.6,0.2-1.1,0.3-1.7
	c4.2,2.6,8,4.6,9.4,4.1c2.5-1-1.5-14-4.3-22.1c0.5-0.4,0.7-0.6,0.5-0.8c-1.7-1.1,0.2-6.1,0.2-6.1c10.1-5.9,6.7-10.4,3.4-13
	s-1.1-10-2.1-13s1.2-16.5,2.9-26.4c0.4-2.1,0.3-4.3,0-6.5c1.8-2.8,3.7-5.7,5.4-8.4c5.7-9.3,17.9-53.5,17.9-53.5l-0.1-0.2
	c1.2-2.4,2.1-4.3,2.6-5.5C849.8,385.7,842.9,356.7,841.8,350z M753.1,324.5l0.3-0.1c0,0.1,0,0.1,0,0.2L753.1,324.5z M571.2,557.5
	L571.2,557.5L571.2,557.5z M697.7,798.8c-0.6,0-1.2-0.1-1.8-0.4L697.7,798.8z"/>
<path class="st8" d="M592,476.6c8.2,3.1,27.4,3.5,35.9,3.5c2.6,0,4.2,0,4.2,0l5.4-11.1l-5.4-9.3c0,0-5-1.4-11.6-2.6
	c-9.8-1.8-23.2-3.1-29.6,0.8C580.1,464.5,581.3,472.5,592,476.6z"/>
<path class="st9" d="M627.8,480c2.6,0,4.2,0,4.2,0l5.4-11.1l-5.4-9.3c0,0-5-1.4-11.6-2.6C625.8,461,638.7,469.7,627.8,480z"/>
<path class="st3" d="M718.1,343.8l-2.4-2.8c0,0-12.4,19.6-13.7,27c-1.3,7.4-3,15.9-3,15.9s-3.1,9.6-5.2,13.9
	c-2,4.3-3.9,8.3-4.1,10.2c-0.2,1.9,0.7,5.9-3.2,8.5s-4.8,9.6-4.8,9.6s-14.1,13.7-21.5,14s-28.7,4.1-27.9,7.8s-8.9,5.9-12.8,6.8
	s25,12,8.1,26.3c0,0,10.7,2.2,11.8,4.8c1.1,2.6,12.4-1.5,12.4-1.5s2.4-5.7,10.7-6.1c8.3-0.4,12.6-4.1,12.6-4.6s8.3-5.2,13-6.5
	c4.7-1.3,10.7-1.9,10.9-3.1c0.2-1.3,27.7-120.2,27.7-120.2L718.1,343.8z"/>
<path class="st10" d="M718.1,343.8l-2.4-2.8c0,0-12.4,19.6-13.7,27c-1.3,7.4-3,15.9-3,15.9s-3.1,9.6-5.2,13.9
	c-2,4.3-3.9,8.3-4.1,10.2c-0.2,1.9,0.7,5.9-3.2,8.5s-4.8,9.6-4.8,9.6s-14.1,13.7-21.5,14s-28.7,4.1-27.9,7.8s-8.9,5.9-12.8,6.8
	s25,12,8.1,26.3c0,0,10.7,2.2,11.8,4.8c1.1,2.6,12.4-1.5,12.4-1.5s2.4-5.7,10.7-6.1c8.3-0.4,12.6-4.1,12.6-4.6s8.3-5.2,13-6.5
	c4.7-1.3,10.7-1.9,10.9-3.1c0.2-1.3,27.7-120.2,27.7-120.2L718.1,343.8z"/>
<path class="st3" d="M746.9,856.9c24.4,4.6,28.8-14.2,28.8-14.2s3-16.6,4.2-17.9c0.3-0.5,0.3-1,0.2-1.6l0,0
	c-0.6-2.8-1.8-5.5-3.5-7.8c-1.5-1.8-0.3-9.3-0.3-9.3L748,799c0,0-2.5,5.7-2.8,8.3s-4.4,14.6-4,16.2c0.4,1.7-1.8,6.8-2.1,9.4
	s-3.7,6.5-4,7.9c-0.4,1.2-0.9,2.5-1.5,3.7c-0.8,1.8-1.4,3.7-1.8,5.6C730.4,856,746.9,856.9,746.9,856.9z"/>
<path class="st9" d="M746.9,856.9c24.4,4.6,28.8-14.2,28.8-14.2s3-16.6,4.2-17.9c0.3-0.5,0.3-1,0.2-1.6l-5.9,16.8
	c0,0-4.8,10.1-22.9,8.6c-10.3-0.9-15.3-2.8-17.8-4.3c-0.8,1.8-1.4,3.7-1.8,5.6C730.4,856,746.9,856.9,746.9,856.9z"/>
<path class="st9" d="M765.9,830.6c0,0-6.1,0.1-6.5-4.8L765.9,830.6z"/>
<polygon class="st4" points="576.2,558.4 580,559.4 579.2,563.3 575.6,562.4 "/>
<polygon class="st9" points="576.2,558.4 580,559.4 579.2,563.3 575.6,562.4 "/>
<rect x="690" y="376.2" transform="matrix(-0.2467 0.9691 -0.9691 -0.2467 1229.806 -199.4607)" class="st3" width="4.8" height="4.2"/>
<rect x="676.5" y="367.9" transform="matrix(-0.2467 0.9691 -0.9691 -0.2467 1209.6984 -190.693)" class="st3" width="4.8" height="13.8"/>
<rect x="685.6" y="374.7" transform="matrix(-0.2467 0.9691 -0.9691 -0.2467 1223.2454 -196.5844)" class="st3" width="4.8" height="4.9"/>
<path class="st4" d="M673.1,370.2c-0.3,0.1-0.6,0.3-0.9,0.4l0.8,0.2l-1.2,4.7l-5.9-1.5c-0.9-2.2-0.7-4.6,0.6-6.6
	c1.1-1.8,2.9-3.1,5-3.7c1.3-0.4,2.5-0.8,3.7-1.4L673.1,370.2z"/>
<path class="st3" d="M687.2,390.4l1.8,0.5c1.2,0.3,2.5-0.4,2.8-1.6c0,0,0,0,0,0l2-8.1l-4-1L687.2,390.4z"/>
<path class="st3" d="M685.8,350.3c-1.4,5.4-5.4,9.6-10.8,12.1l7.1-27.9C685.7,339.3,687.2,344.9,685.8,350.3z"/>
<path class="st3" d="M684.7,389.8c-1.2-0.3-2-1.6-1.7-2.8l2.1-8.1l-13.4-3.4l-40.9,160.5c6.1,12,2.4,26.6-8.7,34.2l-1,3.7l18.1,4.7
	l47.9-188.2L684.7,389.8z"/>
<path class="st3" d="M683.1,387c-0.3,1.2,0.4,2.5,1.7,2.8l2.5,0.6l2.6-10.3l-4.7-1.2L683.1,387z"/>
<path class="st4" d="M666.4,367.4c1.1-1.8,2.9-3.1,5-3.7c1.3-0.4,2.5-0.8,3.7-1.4l7.1-27.9c-4.5-5.7-10.7-9.6-17.7-11.3
	c-14.7-3.7-28.9,2.3-31.7,13.5c-1.3,5.3,0.1,10.8,3.5,15.5c1.3,1.8,2.8,3.4,4.5,4.8l0.1,0.2c2,3.2,1.6,7.3-0.9,10.1l-89.7-22.8
	l-20.2,79.5c6.7-5.4,15.4-7.4,23.8-5.3c15.1,3.9,24,20.1,19.9,36.4s-19.7,26.3-34.8,22.5c-8.3-2.2-15.1-8.1-18.4-16.1l-20.8,81.6
	l79.4,20.2c-5.2-6.6-7.1-15.3-5.1-23.5c3.8-15.1,20.1-24,36.4-19.9c8.8,2.2,16.2,8,20.3,16l40.9-160.5l-5.9-1.5
	C664.9,371.9,665.1,369.4,666.4,367.4z"/>
<path class="st4" d="M672.9,370.8l0.2-0.6c-0.3,0.1-0.6,0.3-0.9,0.5L672.9,370.8z"/>
<g class="st2">
	<path d="M691,375.4l-4.7-1.2l-13.4-3.4l0,0l0.2-0.6l0,0l2-7.8c-1.2,0.6-2.4,1-3.7,1.4c-2.1,0.5-3.9,1.8-5,3.7
		c-0.3,0.5-0.5,1-0.7,1.6c0.2-0.5,0.4-1.1,0.7-1.6c1.1-1.8,2.9-3.1,5-3.7c1.3-0.4,2.5-0.8,3.7-1.4l7.1-27.9
		c-4.5-5.7-10.7-9.6-17.7-11.3c-14.7-3.7-28.9,2.3-31.7,13.5c-1.3,5.3,0.1,10.8,3.5,15.5c1.3,1.8,2.8,3.4,4.5,4.8l0.1,0.2
		c2,3.2,1.6,7.3-0.9,10.1l-89.7-22.8l-20.2,79.5c6.7-5.4,15.4-7.4,23.8-5.3c15.1,3.9,24,20.1,19.9,36.4s-19.7,26.3-34.8,22.5
		c-8.3-2.2-15.1-8.1-18.4-16.1l-20.8,81.6l79.4,20.2c-5.2-6.6-7.1-15.3-5.1-23.5c3.8-15.1,20.1-24,36.4-19.9c8.8,2.2,16.2,8,20.3,16
		c6.1,12,2.4,26.6-8.7,34.2l-1,3.7l18.1,4.7l47.9-188.2l1.8,0.5c1.2,0.3,2.5-0.4,2.8-1.6c0,0,0,0,0,0l2-8.1l1.2-4.7L691,375.4z
		 M672.6,370.4c-0.2,0.1-0.3,0.1-0.4,0.2l0,0L672.6,370.4z M665.8,374L665.8,374l5.9,1.5l0,0L665.8,374z"/>
	<path d="M685.8,350.3c1.4-5.4-0.1-11-3.7-15.8l-7.1,27.9C680.5,359.9,684.5,355.7,685.8,350.3z"/>
</g>
<rect x="691" y="372.3" transform="matrix(-0.2467 0.9691 -0.9691 -0.2467 1227.2826 -205.2324)" class="st3" width="4.8" height="4.2"/>
<rect x="677.5" y="364.1" transform="matrix(-0.2467 0.9691 -0.9691 -0.2467 1207.1748 -196.4649)" class="st3" width="4.8" height="13.8"/>
<rect x="686.6" y="370.8" transform="matrix(-0.2467 0.9691 -0.9691 -0.2467 1220.7058 -202.3833)" class="st3" width="4.8" height="4.9"/>
<path class="st4" d="M674.1,366.3l-0.9,0.5l0.8,0.2l-1.2,4.7l-5.9-1.5c-0.9-2.2-0.7-4.6,0.6-6.6c1.1-1.8,2.9-3.1,5-3.7
	c1.3-0.4,2.5-0.8,3.7-1.4L674.1,366.3z"/>
<path class="st3" d="M688.2,386.6l1.8,0.5c1.2,0.3,2.5-0.4,2.8-1.6c0,0,0,0,0,0l2.1-8.1l-4-1L688.2,386.6z"/>
<path class="st3" d="M686.8,346.4c-1.4,5.4-5.4,9.6-10.8,12.1l7.1-27.9C686.7,335.4,688.2,341,686.8,346.4z"/>
<path class="st3" d="M685.7,385.9c-1.2-0.3-2-1.6-1.7-2.8c0,0,0,0,0,0l2-8.1l-13.3-3.4l-40.9,160.5c6.2,12,2.4,26.6-8.7,34.2l-1,3.7
	l18.1,4.6l47.9-188.2L685.7,385.9z"/>
<path class="st3" d="M684,383.1c-0.3,1.2,0.4,2.5,1.6,2.8c0,0,0,0,0,0l2.5,0.6l2.6-10.3l-4.7-1.2L684,383.1z"/>
<path class="st4" d="M667.4,363.5c1.1-1.8,2.9-3.1,5-3.7c1.3-0.4,2.5-0.8,3.7-1.4l7.1-27.9c-4.4-5.7-10.7-9.6-17.7-11.3
	c-14.7-3.7-28.9,2.3-31.8,13.6c-1.3,5.3,0.1,10.8,3.5,15.5c1.3,1.8,2.8,3.4,4.5,4.8l0.1,0.2c2,3.2,1.6,7.3-0.9,10.1l-89.7-22.8
	L531,420.2c6.7-5.4,15.5-7.4,23.8-5.3c15.1,3.8,24,20.1,19.9,36.4s-19.7,26.3-34.9,22.5c-8.3-2.2-15.1-8.2-18.3-16.1l-20.8,81.6
	l79.4,20.2c-5.2-6.6-7.1-15.3-5.1-23.5c3.8-15.1,20.1-24,36.4-19.9c8.8,2.2,16.2,8,20.4,16.1l40.9-160.5l-5.9-1.5
	C665.8,368,666.1,365.5,667.4,363.5z"/>
<path class="st4" d="M673.9,367l0.2-0.6c-0.3,0.1-0.6,0.3-0.9,0.5L673.9,367z"/>
<path class="st11" d="M659.8,666.7c3,4.6,6.5,24.5,6.5,24.5s2.4,4.6,2.2,8.5s2.2,11,2.2,11l7.8,28.7c0,0-0.8,7.6,2.1,13
	s2.6,3.7,1.3,13.2s1.7,18.2,6.7,21c5,2.8-2.2,9.3-2.2,9.3s31.9,8.6,38.6,3.3c6.7-5.3-3.5-31.3-3.5-31.3s1.7-21.9,0.6-25.1
	s-5.8-30.4-5.8-30.4s-2.9-12.3-1.8-14.4s-0.7-8-0.7-8s-4.7-6.7-4.3-8.7c0.4-2.1-1.4-5.8-1.4-5.8s14.1-21.7,12.9-25.8
	s0.6-10.5,0.6-10.5l3.9-6.7c2.6-4.5,5.8-9.9,6.9-11.6c1.4-2.1,4.6-11.2,6.5-16.5l1.3-3.8c0,0,2.2,40.8,4.2,44.9
	c1.9,4.2,4.8,37,4.8,37c1.1,2.9,1.6,6,1.4,9.2c-0.3,5.1,4.4,27.5,4.4,27.5s2.1,15.8,0.7,20s-0.3,34.8-0.3,34.8s-7.6,6-9.6,10.5
	c-1.9,4.5,0.3,17,0.3,17s22.2,11.1,32,8.2c9.8-2.9,5.8-19.7,5.8-19.7s6.7-11.1,6.7-15.4s2.4-17.4,2.4-17.4
	c8.5-15.5,5.1-53.3,6.5-56.3s-2.9-14.4-6.4-19.6c-3.5-5.1-2.1-19,0-23c2.1-4-2.1-17.9-2.1-17.9s4-26.9,3.9-31.1s3.5-16.5,3.5-16.5
	s3.6-6.4,2.8-8.3s2.8-6.9,1.8-9.2c-1-2.2,0.8-9,2.6-13c0.9-2.1,2.1-7.7,3-12.8c0.8-4.8,1.5-9,1.5-9L787,522l-57.1-15l-21.5-6.9
	l-21,33c-1.5,2.4-2.8,4.9-4.1,7.4c-1.7,3.4-3.1,7.3-2.9,9.6c0.3,3-0.3,6-1.9,8.6c0,0-12.5,39.5-12.2,50.9
	c0.3,11.4-4.4,36.3-4.4,36.3S656.8,662.1,659.8,666.7z"/>
<path class="st8" d="M744.3,345.2c0.9-0.4,61.2-25.3,52.9-30.2c-4.9-2.9-11-15.4-15.2-25.1c-2.9-6.8-4.9-12.3-4.9-12.3
	s-48.4-8.6-31.1,21.1c2.7,4.6,4.8,9.5,6.1,14.6C757.1,333.4,744.7,344.8,744.3,345.2z"/>
<path class="st9" d="M746.1,298.6c2.7,4.6,4.8,9.5,6.1,14.6c12.5-0.9,23.5-8.6,28.6-20.1c0.5-1.1,0.9-2.2,1.3-3.3
	c-2.9-6.8-4.9-12.3-4.9-12.3S728.8,268.9,746.1,298.6z"/>
<path class="st8" d="M716,278.3c0,18.7,15.2,33.8,33.8,33.8c18.7,0,33.8-15.2,33.8-33.8c0-18.7-15.2-33.8-33.8-33.8
	c-15.1,0-28.3,10-32.5,24.5C716.4,272,716,275.1,716,278.3z"/>
<path class="st9" d="M683.3,540.5c3.5,3.2,4.9,9.3,4.9,9.3s16.7,11.4,15.5,4.2c-1.1-7.2,8.6-36.3,8.6-36.3l-1.1,39.7
	c0,0,53.3-2.5,57.1-6.4s26.6-11.3,26.6-11.3s7,5.6,13.4,9.8c0.8-4.8,1.5-9,1.5-9L787,522l-57.1-15l-21.5-6.9l-21,33
	C685.9,535.5,684.6,538,683.3,540.5z"/>
<path class="st12" d="M681.6,537.4c4.4,2.8,6.1,10.3,6.1,10.3s16.6,11.4,15.5,4.2c-1.1-7.2,8.6-36.3,8.6-36.3l-1.1,39.7
	c0,0,53.3-2.5,57.1-6.4c3.9-3.9,26.6-11.4,26.6-11.4s19.7,15.8,23.3,14.4c3.6-1.4-6.4-28.3-6.4-28.3L801.1,366
	c0,0,2.8-46.9-1.4-48.5c-0.6-0.3-1.2-0.6-1.8-1.1c-2.7-2.5-3.6-7.5-3.8-11.7c-0.3-5-6.9-2.5-6.9-2.5l3.9,5l-34.4,20.9l-0.3,0.2
	c-1.3-0.7-2.7-1.3-4.1-1.9c-3-1.2-7.1-2.3-9.7-1.2c-1.5,0.8-2.7,1.9-3.6,3.3c-2,2.9-3.5,6.1-4.7,9.5L721.8,359c0,0-6.4,28-6.4,29.1
	s-1.9,26.6-4.2,29.4s-4.4,16.6-3.6,20.8c0.8,4.2-1.4,19.7-1.4,19.7c-9.2,7.5-13.9,33-13.9,33S678,519.7,676.8,523
	S677.2,534.7,681.6,537.4z"/>
<path class="st9" d="M756.8,329.2c3.4,5,13.1,12,13.1,12l28.1-23.8c-2.7-2.5-3.6-7.5-3.8-11.7c-0.3-5-6.9-2.5-6.9-2.5l0.8,1
	c1.5,2,1.2,4.8-0.8,6.3c-0.1,0.1-0.3,0.2-0.4,0.3L756.8,329.2z"/>
<path class="st12" d="M756.8,328.1c3.4,5,13.1,12,13.1,12l28.1-23.8c-2.7-2.5-3.6-7.5-3.8-11.7c-0.3-5-6.9-2.5-6.9-2.5l0.8,1
	c1.5,2,1.2,4.8-0.8,6.3c-0.1,0.1-0.3,0.2-0.4,0.3L756.8,328.1z"/>
<path class="st9" d="M743.8,331.8c3.6,4.3,8.8,9.3,8.5,6.8c-0.2-2.5,3.1-7.9,5.2-10.4c-3.3-1-6.8-0.9-10.1,0.3
	C745.9,329.3,744.7,330.4,743.8,331.8z"/>
<path class="st12" d="M743.2,330.1c3.6,4.4,8.8,9.3,8.5,6.8s2.7-6.5,4.8-8.9c-3-1.2-7.1-2.3-9.7-1.2
	C745.4,327.6,744.1,328.7,743.2,330.1z"/>
<circle class="st4" cx="752.3" cy="351" r="2.2"/>
<circle class="st4" cx="735.5" cy="410.9" r="2.2"/>
<circle class="st4" cx="716.5" cy="471.6" r="2.2"/>
<circle class="st4" cx="715.9" cy="537.6" r="2.2"/>
<circle class="st4" cx="742.5" cy="379.3" r="2.2"/>
<circle class="st4" cx="727.5" cy="440.9" r="2.2"/>
<circle class="st4" cx="712.9" cy="501.3" r="2.2"/>
<circle class="st4" cx="716.3" cy="545" r="2.2"/>
<path class="st9" d="M798,317.7c0,0-0.4-3.3,4.4,2.4c4.8,5.7,13.9,10.7,13.9,10.7s20.5,14.4,21.6,21.1s7.8,35.5,4.3,45.1
	s-30.3,55.7-30.3,55.7s7,8.3,5.4,18.1s-3.7,23.3-2.8,26.3c0.9,3-1.1,10.4,2,12.9s6.5,7-3.3,12.9c0,0-1.8,5-0.2,6.1
	c1.7,1.1-24.6,12.6-35,6.5c-10.4-6.1-29-54.9-29.4-65.8s5.7-47,9.1-55.5c3.3-8.5,13.3-41.6,17.6-49S798,317.7,798,317.7z"/>
<path class="st3" d="M799.1,317.7c0,0-0.4-3.3,4.4,2.4c4.8,5.7,13.9,10.7,13.9,10.7s20.5,14.4,21.6,21.1s7.8,35.5,4.3,45.1
	S813,452.7,813,452.7s7,8.3,5.4,18.1s-3.7,23.3-2.8,26.3c0.9,3-1.1,10.4,2,12.9s6.5,7-3.3,12.9c0,0-1.8,5-0.2,6.1
	c1.7,1.1-24.6,12.6-35,6.5c-10.4-6.1-29-54.9-29.4-65.8s5.7-47,9.1-55.5c3.3-8.5,13.3-41.6,17.6-49S799.1,317.7,799.1,317.7z"/>
<path class="st9" d="M806.5,349.1c0,0-15.9,17.6-15.3,29.2C791.2,378.4,791,359.5,806.5,349.1z"/>
<path class="st9" d="M784.5,378c0,0.5-10.7,40.5-10.2,45.5c0.6,5-3.2,19.8-3.2,19.8l-5-1.3c0,0,3.9-20.5,4.6-28.1
	S784.5,378,784.5,378z"/>
<path class="st9" d="M780.2,491.9c0.4,0.5,25.3,28.8,18.3,30.9C791.5,524.8,780.2,491.9,780.2,491.9z"/>
<path class="st9" d="M800.8,484.7c0.5,0.4,10,20.3,11.1,15c1.1-5.3-8.1,14.6-9.6-0.2L800.8,484.7z"/>
<path class="st9" d="M752.8,324c0,0-10.3-6.3-23.3,9.8c0,0-9.4,5.4-12.2,6.7s-5.9,35.7-5.9,35.7s-6.1,14.8-4.4,23.3
	c1.7,8.5-4.8,37.7-4.8,37.7s-10.7,52.5-10.4,54s10.9-16.5,10.7-25.3c-0.2-8.9,8.9-36.6,10.2-38.3c1.3-1.7,10.2-49.2,10.2-49.2
	s7.2-20.2,11.8-26.8s10.4-19.2,12.8-21.5c1.7-1.5,3.7-2.7,5.7-3.7L752.8,324z"/>
<path class="st3" d="M753,324c0,0-11.6-6.3-24.5,9.8c0,0-9.4,5.4-12.2,6.7s-5.9,35.7-5.9,35.7s-6.1,14.8-4.4,23.3
	c1.7,8.5-4.8,37.7-4.8,37.7s-10.7,52.5-10.4,54s10.9-16.5,10.7-25.3c-0.2-8.9,8.9-36.6,10.2-38.3c1.3-1.7,10.2-49.2,10.2-49.2
	s7.2-20.2,11.8-26.8s10.4-19.2,12.8-21.5s6.8-3.7,6.8-3.7L753,324z"/>
<path class="st8" d="M702.2,439.6c0,0-22-14.4-32.6-7.3s-28,17.2-10.9,24.5c17.1,7.3,40.8,5.9,40.8,5.9L702.2,439.6z"/>
<path class="st9" d="M717.5,578.7c3.3,7,6,42.4,7.8,53.6c2.6-4.5,5.8-9.9,6.9-11.6c1.4-2.1,4.6-11.2,6.5-16.5
	c-2.1-5.1-7.9-19.6-7.9-25c0-6.5-10.5-14.7-10.5-14.7S713.6,570.4,717.5,578.7z"/>
<path class="st9" d="M788.2,687.3c0,0-24.4-10.4-31.6-3C749.4,691.7,788.2,687.3,788.2,687.3z"/>
<path class="st9" d="M774.5,691.5c0,0,24.7,13.9,16.2,16.2S774.5,691.5,774.5,691.5z"/>
<path class="st9" d="M700.7,679.4c0,0,10.5,0.7,6.5,2.8C703.2,684.3,700.7,679.4,700.7,679.4z"/>
<path class="st9" d="M687.6,682.6c0.1,0.7,30.7,10.5,24.7,15C706.3,702.1,687.6,682.6,687.6,682.6z"/>
<path class="st9" d="M784.6,767.5c-4.6-0.7-30.1-12.5-20.1-4C774.5,772,784.6,767.5,784.6,767.5z"/>
<path class="st9" d="M772,776.8c0,0-2.2,8.6-10.7,7.5C752.9,783.2,772,776.8,772,776.8z"/>
<path class="st9" d="M779.1,794.2c-1.5-0.4-19.7-8.7-20.1-4.8c-0.4,3.9,17.3,10.7,18.7,8.6C778.5,796.9,779,795.6,779.1,794.2z"/>
<path class="st9" d="M720.3,784.3c-2.2-0.1-23-6.8-27.2-0.8L720.3,784.3z"/>
<path class="st9" d="M701.4,788.1c0,0-3.6-3.2-7.2-1.5C690.6,788.3,701.4,788.1,701.4,788.1z"/>
<path class="st9" d="M747.5,822.5c-0.5,2.4-2.3,4.3-4.7,4.8L747.5,822.5z"/>
<path class="st3" d="M641.6,835.6c1.4,5.7,20.8,6.2,30.1,4.7c9.3-1.5,28.6-7.1,28.6-7.1s20.3-1.9,26.2-4.4c6-2.5,1.3-8.9,1.3-8.9
	s0-0.2,0-0.6c0.1-2.3,0.6-10.7-0.9-13c-1.7-2.6-0.7-11.2-0.7-11.2s-28.7,5.5-29.3,2.9c-0.6-2.6-5-6.4-7.1-7.2
	c-2.1-0.8-3.6,6.9-3.6,6.9s-13,11.1-13.9,15.1s-10,6.1-10,6.1s-13.9,3.9-17.5,5.8c-2.1,1-3.6,3-3.8,5.4
	C640.9,832,641.1,833.8,641.6,835.6z"/>
<path class="st9" d="M641.6,835.6c1.4,5.7,20.8,6.2,30.1,4.7c9.3-1.5,28.6-7.1,28.6-7.1s20.3-1.9,26.2-4.4c6-2.5,1.3-8.9,1.3-8.9
	s0-0.2,0-0.6l-29,6.4c0,0-14.3,6.1-23.4,6.1c-8,0-25.9,3.3-34.2-1.7C641,832,641.1,833.8,641.6,835.6z"/>
<path class="st9" d="M680.9,813.7c0,0,1.4,9.2,6.9,12.2L680.9,813.7z"/>
<path class="st9" d="M717.3,268.9c0.5,0.3,1.1,0.5,1.7,0.7c2.6,0.7,5.1-1.1,7.4-2.5c2.3-1.4,5.5-2.4,7.5-0.6
	c2.6,2.4,0.7,7.4,3.4,9.7c1.7,1.4,4.4,0.9,6.3,2.1c1.9,1.2,2.5,3.8,2.9,6.1s1.4,4.8,3.6,5.5c2.2,0.7,4.3-0.8,6.4-0.7
	c0.5,0,1,0.1,1.3-0.3c0.2-0.3,0.3-0.7,0.2-1c-0.3-2.7,0-5.4,0.7-8c0.9-2.6,3-4.9,5.6-5.3c3.9-0.6,7.2,2.8,9.5,6
	c2.4,3.4,4.6,6.9,6.6,10.6c0.1,0.2,0.2,0.5,0.3,0.7c7.6-17.1-0.2-37.1-17.2-44.6s-37.1,0.2-44.6,17.2
	C718.3,266,717.7,267.5,717.3,268.9L717.3,268.9z"/>
<path class="st3" d="M773.9,280.1c-2.3-3.2-5.6-6.6-9.5-6c-2.7,0.4-4.7,2.7-5.6,5.3c-0.7,2.6-1,5.3-0.7,8c0.1,0.3,0,0.7-0.2,1
	c-0.3,0.3-0.8,0.3-1.3,0.3c-2.2-0.1-4.3,1.3-6.4,0.7s-3.2-3.2-3.6-5.5c-0.5-2.3-1-4.8-2.9-6.1c-1.9-1.2-4.6-0.7-6.3-2.1
	c-2.7-2.3-0.8-7.4-3.4-9.7c-2-1.8-5.2-0.8-7.5,0.6c-2.3,1.4-4.8,3.1-7.5,2.5c-0.9-0.2-1.7-0.7-2.5-1.1c-4.1-1.6-9.4,1.1-12.8-1.7
	c-1.2-1.2-2.1-2.8-2.6-4.4c-0.9-2.3-1.6-4.6-1.9-7.1c-0.3-2.5,0.4-4.9,1.9-6.9c2.2-2.6,5.9-3.2,8.7-5.1c2.4-1.6,4-4.1,5.6-6.6
	c1.6-2.4,3.1-5,5.4-6.7c2.3-1.7,5.6-2.6,8.1-1.3c0.8,0.6,1.7,1,2.7,1.3c1,0,2.1-0.3,2.9-0.8c9.6-4.5,20.8-3.7,31.4-2.4
	c4.2,0.5,8.5,1.2,12.3,3s7.3,5,8.3,9.1c0.9,3.3,0.2,6.8,1.2,10c0.7,2.2,2.1,4,3,6.2c2.3,5.9-0.4,12.3-1.6,18.4
	c-1.2,6.7-0.6,14-3.5,20.4c-0.6,1.3-1.2,3.4-2.6,2.6c-1-0.6-2.1-4.2-2.7-5.3C778.5,287,776.3,283.5,773.9,280.1z"/>
<path class="st9" d="M834.8,388.5l5,14.2c0,0-11.8,44-17.4,53.3c-5.5,9.3-13.7,21.1-13.7,21.1s-13.7,6.9-29.6,3.7
	s-62.3-11.5-62.3-11.5s-3.9,0.7-5.9-2.2c-2-3-12.6-4.5-12.6-4.5s-12.2-17.8,2.8-25.1c0,0,1.8,4.1,9.8,1.3c7.9-2.8,10.3,2.2,10.3,2.2
	s13,2.6,20.2,1.7c7.2-0.9,25.2-1.3,27-2.8c1-0.9,2.5-0.8,3.3,0.2c0,0,4.4-1.7,5.9-3.3s3.5,1.9,3.5,1.9s2.6-1.5,1.8-3.3
	c-0.7-1.8,2.4-8.9,2.4-8.9s1.5-4.6,0.6-8.3c-0.9-3.7,4.6-17,4.6-17c0.1-2.2-0.2-4.5-0.7-6.7c-0.9-3.3,7-10,7-10s7.8-37.7,24.2-25.3
	S834.8,388.5,834.8,388.5z"/>
<path class="st3" d="M835.9,388.5l5,14.2c0,0-11.8,44-17.4,53.3c-5.6,9.3-13.7,21.1-13.7,21.1s-13.7,6.9-29.6,3.7
	s-62.3-11.5-62.3-11.5s-3.9,0.7-5.9-2.2c-2-3-12.6-4.5-12.6-4.5s-12.2-17.8,2.8-25.1c0,0,1.8,4.1,9.8,1.3c8-2.8,10.3,2.2,10.3,2.2
	s13,2.6,20.2,1.7c7.2-0.9,25.2-1.3,27-2.8c1-0.9,2.5-0.8,3.3,0.2c0,0,4.4-1.7,5.9-3.3s3.5,1.9,3.5,1.9s2.6-1.5,1.8-3.3
	c-0.7-1.8,2.4-8.9,2.4-8.9s1.5-4.6,0.5-8.3c-0.9-3.7,4.6-17,4.6-17c0.1-2.2-0.2-4.5-0.7-6.7c-0.9-3.3,7-10,7-10s7.8-37.7,24.2-25.3
	S835.9,388.5,835.9,388.5z"/>
<path class="st9" d="M715.7,448.1c0.2,1.3,4.3,6.5,2.8,7.4s-3.9,0.4-1.7,3.3c2.2,3,2,7.4,0.5,6.8c-1.4-0.6-3.9-7.2-3.9-9.8
	S715.7,448.1,715.7,448.1z"/>
<path class="st9" d="M770.6,445.1c0,0,1.1,12.9,10.2,16.6S770.6,445.1,770.6,445.1z"/>
<path class="st9" d="M789.5,440.7c0.6,0.2,12.9,6.9,7.4,10.7C791.4,455.3,789.5,440.7,789.5,440.7z"/>
<path class="st9" d="M790.2,431.4c0,0,18.1,3.7,12,6.8S790.2,431.4,790.2,431.4z"/>
<g class="st2">
	<path d="M758.8,276.2c0.9-2.6,3-4.9,5.6-5.3c3.9-0.6,7.2,2.8,9.5,6c2.4,3.4,4.6,6.9,6.6,10.6c0.6,1.1,1.6,4.6,2.7,5.3
		c1.4,0.8,2-1.4,2.6-2.6c2.9-6.4,2.2-13.6,3.5-20.4c0.7-3.9,2.1-8,2.4-11.9c0.4,4.8-1.5,9.9-2.4,14.9c-1.2,6.7-0.6,14-3.5,20.4
		c-0.6,1.3-1.2,3.4-2.6,2.6c-1-0.6-2.1-4.1-2.7-5.3c-2-3.7-4.2-7.2-6.6-10.6c-2.3-3.2-5.6-6.6-9.5-6c-2.7,0.4-4.7,2.7-5.6,5.3
		c-0.4,1.3-0.7,2.7-0.7,4.2C757.9,281,758.2,278.5,758.8,276.2z"/>
	<path d="M701,258.7c0.4,1.7,1.3,3.2,2.6,4.4c3.4,2.8,8.7,0.2,12.8,1.7c0.9,0.3,1.7,0.8,2.5,1.1c2.6,0.7,5.2-1.1,7.5-2.5
		c2.3-1.4,5.5-2.4,7.5-0.6c2.6,2.4,0.7,7.4,3.4,9.7c1.7,1.5,4.4,1,6.3,2.1c1.9,1.1,2.5,3.8,2.9,6c0.5,2.2,1.4,4.8,3.6,5.5
		c2.2,0.7,4.3-0.8,6.4-0.7c0.5,0,1,0.1,1.3-0.3c0.1-0.1,0.1-0.2,0.2-0.3c0,0.8,0,1.5,0.1,2.2c0.1,0.3,0,0.7-0.2,1
		c-0.3,0.3-0.8,0.3-1.3,0.3c-2.2-0.1-4.3,1.3-6.4,0.7s-3.2-3.2-3.6-5.5c-0.5-2.3-1-4.8-2.9-6c-1.9-1.2-4.6-0.7-6.3-2.1
		c-2.7-2.3-0.8-7.4-3.4-9.7c-2-1.8-5.2-0.8-7.5,0.6c-2.3,1.4-4.8,3.1-7.5,2.5c-0.9-0.2-1.7-0.8-2.5-1.1c-4.1-1.6-9.4,1.1-12.8-1.7
		c-1.2-1.2-2.1-2.8-2.6-4.4c-0.9-2.3-1.6-4.6-1.9-7.1c-0.1-0.8,0-1.7,0.1-2.5C699.6,254.3,700.2,256.5,701,258.7z"/>
</g>
<path class="st4" d="M65.8,817.9c0,0-42.3-2.5-37.3,27.1c0,0-1,5.2,3.8,7.6c0,0,0.1-2.2,4.3-1.5c1.5,0.3,3.1,0.3,4.6,0.2
	c2.1-0.1,4-1,5.6-2.3l0,0c0,0,11.9-4.9,16.5-24.3c0,0,3.4-4.2,3.3-5.3l-7.1,3c0,0,2.4,5.2,0.5,9.4c0,0-0.2-9.2-1.6-9
	c-0.3,0-3.7,1.8-3.7,1.8s4.2,9,1,15.5c0,0,1.2-11-2.3-14.8l-5,2.9c0,0,4.9,9.3,1.6,16.8c0,0,0.9-11.6-2.6-16.1l-4.6,3.5
	c0,0,4.6,9.1,1.8,15.4c0,0-0.4-13.5-2.8-14.5c0,0-4,3.5-4.6,5c0,0,3.1,6.6,1.2,10.1c0,0-1.2-9-2.2-9c0,0-4,6-4.4,10
	c0,0,0.2-6.1,3.4-10.6c-2.3,0.4-4.4,1.5-6.1,3.2c0,0,0.6-4.2,7.1-4.6c0,0,3.3-4.5,4.1-4.8c0,0-6.4-0.5-10.3,1.2c0,0,3.4-4,11.5-2.2
	L46,828c0,0-8.4-1.2-12,0.1c0,0,4.1-3.5,13.2-1l4.9-2.9c0,0-7.2-1.5-11.5-1c0,0,4.5-2.4,12.9,0.2l3.5-1.6c0,0-5.3-1-6.8-1.2
	s-1.6-0.6-1.6-0.6c3.3-0.6,6.8-0.2,9.9,1.1C58.5,821.2,65.9,818.4,65.8,817.9z"/>
<ellipse class="st0" cx="36.7" cy="855.2" rx="29.9" ry="5.1"/>
<path class="st4" d="M146.8,739.8c0,0-23.8-1.4-21,15.3c-0.3,1.7,0.6,3.5,2.1,4.3c0,0,0-1.2,2.5-0.8c0.9,0.1,1.7,0.2,2.6,0.1
	c1.2-0.1,2.3-0.5,3.2-1.3l0,0c0,0,6.7-2.7,9.3-13.7c0,0,1.9-2.4,1.9-3l-4,1.7c0,0,1.4,2.9,0.3,5.3c0,0-0.1-5.2-0.9-5.1
	c-0.2,0-2.1,1-2.1,1s2.4,5,0.6,8.7c0,0,0.7-6.2-1.3-8.4l-2.9,1.7c0,0,2.8,5.2,0.9,9.5c0,0,0.5-6.5-1.5-9.1l-2.6,2c0,0,2.6,5.2,1,8.7
	c0,0-0.2-7.6-1.6-8.2c-1,0.8-1.8,1.8-2.6,2.8c0,0,1.8,3.7,0.7,5.7c0,0-0.7-5.1-1.2-5.1c0,0-2.2,3.3-2.5,5.7c0.1-2.1,0.8-4.2,1.9-6
	c-1.3,0.2-2.5,0.9-3.4,1.8c0,0,0.4-2.4,4-2.6c0,0,1.8-2.5,2.3-2.7c0,0-3.6-0.3-5.8,0.7c0,0,1.9-2.2,6.5-1.2l2.5-2.1
	c0,0-4.8-0.7-6.8,0.1c0,0,2.3-2,7.5-0.5l2.8-1.6c-2.1-0.5-4.3-0.7-6.5-0.6c0,0,2.5-1.4,7.3,0.1l2-0.9c0,0-3-0.6-3.8-0.7
	s-0.9-0.3-0.9-0.3c1.9-0.3,3.8-0.1,5.6,0.6C142.8,741.7,146.9,740.1,146.8,739.8z"/>
<ellipse class="st0" cx="130.5" cy="760.8" rx="16.9" ry="2.8"/>
<path class="st4" d="M6.2,754.3c0,0-28.8-1.7-25.4,18.4c-0.4,2.1,0.7,4.2,2.6,5.2c0,0,0-1.5,2.9-1c1,0.2,2.1,0.2,3.1,0.2
	c1.4-0.1,2.8-0.6,3.8-1.6l0,0c0,0,8.1-3.3,11.2-16.6c0,0,2.3-2.9,2.2-3.6l-4.9,2.1c0,0,1.6,3.5,0.4,6.4c0,0-0.2-6.3-1.1-6.1
	c-0.2,0-2.5,1.2-2.5,1.2s2.9,6.1,0.7,10.5c0,0,0.8-7.5-1.6-10.1l-3.4,2c0,0,3.3,6.3,1.1,11.4c0,0,0.6-7.9-1.8-11l-3.1,2.4
	c0,0,3.1,6.2,1.2,10.5c0,0-0.3-9.2-1.9-9.9c0,0-2.7,2.4-3.1,3.4c0,0,2.1,4.5,0.8,6.9c0,0-0.8-6.1-1.5-6.2c0,0-2.7,4.1-3,6.8
	c0.1-2.6,0.9-5.1,2.3-7.2c-1.6,0.3-3,1-4.1,2.1c0,0,0.4-2.9,4.8-3.1c0,0,2.2-3.1,2.8-3.3c0,0-4.4-0.4-7,0.8c0,0,2.3-2.7,7.8-1.5
	l3.1-2.5c0,0-5.7-0.8-8.2,0.1c0,0,2.8-2.4,9-0.7l3.3-2c0,0-4.9-1.1-7.8-0.7c0,0,3.1-1.7,8.8,0.1l2.4-1.1c0,0-3.6-0.7-4.6-0.8
	s-1.1-0.4-1.1-0.4c2.3-0.4,4.6-0.1,6.7,0.7C1.2,756.5,6.3,754.7,6.2,754.3z"/>
<ellipse class="st0" cx="-13.6" cy="779.7" rx="20.4" ry="3.4"/>
<ellipse class="st0" cx="573.7" cy="904.9" rx="29.9" ry="5.1"/>
<path class="st13" d="M553.6,881.4c0,0,17.1-0.5,22.2-4.2s26.3-8,27.5-2.2s25.7,29.2,6.4,29.4s-44.8-3-49.9-6.1
	C554.7,895.2,553.6,881.4,553.6,881.4z"/>
<path class="st14" d="M610.1,902.4c-19.3,0.2-44.8-3-49.9-6.1c-3.9-2.4-5.5-10.9-6-14.9h-0.6c0,0,1.1,13.8,6.2,16.9
	s30.6,6.3,49.9,6.1c5.6,0,7.5-2,7.4-5C616.4,901.3,614.2,902.4,610.1,902.4z"/>
</svg>
