<?xml version="1.0" encoding="utf-8"?>
<!-- Generator: Adobe Illustrator 19.0.0, SVG Export Plug-In . SVG Version: 6.00 Build 0)  -->
<svg version="1.1" id="bd68eab2-97cb-49fc-9871-65ace3a0e319"
	 xmlns="http://www.w3.org/2000/svg" xmlns:xlink="http://www.w3.org/1999/xlink" x="0px" y="0px" viewBox="-130 248.3 738.4 504.7"
	 style="enable-background:new -130 248.3 738.4 504.7;" xml:space="preserve">
<style type="text/css">
	.st0{fill:#2BB0E2;}
	.st1{fill:#26A4D5;}
	.st2{fill:#373E49;}
	.st3{fill:#707070;}
	.st4{fill:#D8DFEA;}
	.st5{opacity:0.3;fill:#373E49;}
	.st6{fill:#05557D;}
	.st7{fill:#FFE838;}
	.st8{fill:#F4F2EA;}
	.st9{fill:#F79C8D;}
	.st10{fill:#F7A491;}
	.st11{fill:#FFFFFF;}
	.st12{opacity:0.5;fill:#F47458;}
	.st13{fill:#F48C7F;}
	.st14{fill:#F47458;}
	.st15{opacity:0.6;fill:#F4F2EA;}
	.st16{opacity:0.5;fill:#50BFA5;}
	.st17{fill:#F8A492;}
	.st18{fill:#5D5D5D;}
	.st19{fill:#FFFDF5;}
	.st20{fill:#C1C1C1;}
</style>
<path class="st0" d="M375.2,434.6c6.7,24.8,32.4,39.5,57.3,32.8c24.8-6.7,39.5-32.4,32.8-57.3c-6.7-24.8-32.4-39.5-57.3-32.8
	C383.1,384.1,368.4,409.8,375.2,434.6z M385.9,430.1L385.9,430.1c-4.3-19,7.6-37.8,26.6-42.1l0,0c19-4.3,37.8,7.6,42.1,26.6l0,0
	c4.3,19-7.6,37.8-26.6,42.1v0C409,461,390.1,449.1,385.9,430.1z"/>
<path class="st0" d="M347,450.6c0.7,0.9,1.8,0.7,4.5,0.3c4.7-0.7,9.5-1.3,14.3-1.8c0.7-0.1,1.9,0.5,2.3,1.2c2.7,3.8,5.2,7.8,8,11.6
	c0.9,1.2,1.1,1.9,0.4,3.3c-2.9,5.4-5.7,10.8-8.5,16.2c3.8,4.1,15.3,11.6,20,12.9c3.6-4.6,7.3-9.3,10.8-14.1c1.1-1.5,1.9-1.8,3.8-1.3
	c4.4,1.1,8.9,1.8,13.4,2.5c1.8,0.3,2.9,0.6,3.5,2.6c1.5,5.1,3.3,10.2,4.9,15.3c0.4,1.4,1.1,2,2.5,1.7c6.7-1.4,13.3-2.9,20-4.4
	c1.6-0.4,1.2-1.6,1.1-2.6c-0.6-5.1-1.1-10.3-1.9-15.4c-0.3-1.9,0.2-2.9,1.9-3.9c4.5-2.7,8.8-5.7,13.4-8.8c5.4,2.8,11.3,5.8,17.4,8.9
	c5.4-5.9,9.4-12.5,12.6-20c-5.2-4.1-10.5-8.2-15.1-11.8c1-6.2,2-11.9,2.7-17.6c0.2-1.7,0.8-2.2,2.2-2.7c5-1.5,10-3.2,15-4.8
	c1.1-0.3,1.8-0.7,1.7-2c-0.5-6.8-1.6-13.4-4.1-19.8c-0.6-1.4-1.3-1.7-2.7-1.5c-5.4,0.7-10.8,1.2-16.1,1.9c-1.3,0.2-2,0-2.8-1.3
	c-2.9-4.3-5.9-8.5-9.1-12.5c-0.8-1-0.7-1.7-0.2-2.7c2.8-5.4,5.6-10.9,8.4-16.5c-6-5.2-12.3-9.5-19.7-12.7
	c-4.2,5.3-8.3,10.7-12.3,15.8c-6.4-1.2-12.6-2.3-19.3-3.5c-1.5-4.5-3.1-9.6-4.8-14.7c-1.4-4.2-0.6-4-5.3-3.5
	c-0.4,0.1-0.9-0.1-1.4-0.1c-4,0.9-8,1.8-12,2.7c-0.8,0.4-1.7,0.9-2.5,1c-2.3,0.5-3.1,1.5-2.7,4.1c0.8,5.3,1.3,10.6,1.9,15.9
	c0.1,0.7-0.4,1.7-1,2.2c-3.7,2.8-7.6,5.2-11.2,8.1c-1.7,1.4-2.8,1.4-4.6,0.4c-5.1-2.7-10.3-5.3-16-8.1c-4.3,6.7-8.5,13.2-12.7,19.7
	c1.2,0.9,1.8,1.5,2.5,2c4.1,3.2,8.3,6.5,12.5,9.7c1.2,0.9,1.3,1.7,1,3.1c-0.9,4.9-1.5,9.9-2.4,14.8c-0.1,0.8-1,1.7-1.7,2
	c-4.1,1.4-8.2,2.7-12.3,4c-3.3,1.1-4.5,1.5-4.9,3L347,450.6z M373.6,435c-3.4-12.5-1.7-25.5,4.7-36.7c6.4-11.2,16.8-19.2,29.3-22.6
	c12.5-3.4,25.5-1.7,36.7,4.7c11.2,6.4,19.2,16.8,22.6,29.3c3.4,12.5,1.7,25.5-4.7,36.7c-6.4,11.2-16.8,19.2-29.3,22.6
	c-12.5,3.4-25.5,1.7-36.7-4.7S376.9,447.5,373.6,435z"/>
<path class="st1" d="M7,448.3c0.6,0.4,1.1,0.1,2.5-0.6c2.5-1.2,5-2.4,7.6-3.5c0.4-0.2,1.1,0,1.5,0.3c2.1,1.7,4.2,3.5,6.4,5.2
	c0.7,0.5,0.9,0.9,0.8,1.8c-0.7,3.6-1.3,7.2-2,10.8c2.8,1.7,10.4,4,13.2,3.9c1.2-3.3,2.5-6.6,3.6-9.9c0.4-1,0.8-1.4,1.9-1.4
	c2.6-0.1,5.2-0.5,7.8-0.9c1-0.2,1.7-0.1,2.4,0.9c1.7,2.7,3.5,5.2,5.2,7.9c0.5,0.7,0.9,1,1.7,0.5c3.4-2,6.9-4,10.3-6
	c0.8-0.5,0.4-1.1,0.2-1.7c-1.2-2.8-2.4-5.7-3.6-8.5c-0.5-1.1-0.4-1.7,0.4-2.6c2-2.3,3.9-4.8,6-7.4c3.4,0.6,7.2,1.3,11.1,2.1
	c2-4.3,3.1-8.8,3.7-13.6c-3.6-1.4-7.2-2.8-10.3-4.1c-0.5-3.7-0.9-7.1-1.5-10.5c-0.2-1,0-1.4,0.8-1.9c2.5-1.8,5-3.6,7.5-5.4
	c0.5-0.4,0.9-0.7,0.6-1.5c-1.4-3.8-3.1-7.4-5.6-10.6c-0.5-0.7-1-0.7-1.7-0.4c-2.9,1.3-5.8,2.6-8.6,3.9c-0.7,0.3-1.1,0.3-1.8-0.2
	c-2.3-2-4.7-3.8-7.1-5.6c-0.6-0.5-0.7-0.8-0.6-1.5c0.6-3.6,1.3-7.2,1.9-10.9c-4.2-1.9-8.4-3.3-13-3.8c-1.4,3.8-2.8,7.6-4.2,11.2
	c-3.7,0.5-7.4,0.9-11.3,1.4c-1.6-2.3-3.3-4.9-5.1-7.6c-1.5-2.2-1-2.2-3.5-1.1c-0.2,0.1-0.5,0.1-0.8,0.2c-2.1,1.2-4.1,2.4-6.2,3.6
	c-0.4,0.4-0.8,0.8-1.2,1c-1.2,0.7-1.5,1.4-0.8,2.8c1.3,2.9,2.5,5.8,3.7,8.8c0.2,0.4,0.1,1.1-0.2,1.4c-1.6,2.2-3.4,4.3-4.8,6.6
	c-0.7,1.1-1.3,1.3-2.5,1c-3.3-0.7-6.6-1.2-10.2-1.9c-1.3,4.6-2.5,9-3.8,13.5c0.8,0.3,1.2,0.5,1.7,0.7c2.8,1.1,5.7,2.3,8.5,3.4
	c0.8,0.3,1,0.8,1.1,1.6c0.3,3,0.8,5.9,1.1,8.9c0.1,0.5-0.3,1.2-0.6,1.4c-2,1.5-4.1,3-6.1,4.5c-1.6,1.2-2.3,1.7-2.2,2.6L7,448.3z
	 M19.1,434.8c-3.9-6.5-5.2-14.3-3.5-21.8c1.7-7.5,6.1-13.9,12.4-18c6.3-4.1,13.8-5.4,21.1-3.7c7.3,1.7,13.4,6.3,17.4,12.8
	c4,6.5,5.2,14.3,3.5,21.8c-1.7,7.5-6.1,13.9-12.4,18c-6.3,4.1-13.8,5.4-21.1,3.7C29.2,445.9,23.1,441.3,19.1,434.8z"/>
<path class="st2" d="M245.2,401h-26.1c-7.5,0-13.6,6.1-13.6,13.6v0c0,7.5,6.1,13.6,13.6,13.6h26.1c7.5,0,13.6-6.1,13.6-13.6v0
	C258.8,407.1,252.7,401,245.2,401z"/>
<polygon class="st3" points="200.1,683.5 159,702.4 159,706.7 305.5,706.7 305.5,702.4 264,683.5 "/>
<rect x="200.1" y="588.3" class="st2" width="63.9" height="95.2"/>
<path class="st4" d="M425.5,613.8V430.4c0-8.7-7.1-15.8-15.8-15.8H54c-8.7,0-15.8,7.1-15.8,15.8v183.5H425.5z"/>
<rect x="159" y="702.4" class="st5" width="146.6" height="4.2"/>
<rect x="200.1" y="660.1" class="st4" width="63.9" height="23.4"/>
<path class="st3" d="M38.2,613.8v29.4c0,6.1,4,11.1,9,11.1h369.2c5,0,9-5,9-11.1v-29.4H38.2z"/>
<circle class="st3" cx="232.5" cy="408.2" r="3.6"/>
<path class="st6" d="M196.2,329.1l0,7.4l4.7-4.4l14.8-10.1l-12.1,2.7c0,0-6.1,2.3-6.4,2.7C196.9,327.7,196.2,329.1,196.2,329.1z"/>
<polygon class="st1" points="190.2,325.4 215.7,322 196.2,329.1 "/>
<polygon class="st1" points="205.3,335.4 197.9,330.9 215.7,322 "/>
<path class="st7" d="M163.9,359.8c0-0.6,0-1.2,0.1-1.8c0.1-0.5,0.2-1.1,0.3-1.6l0.6,0.1c-0.1,0.5-0.2,1.1-0.3,1.6
	c-0.1,0.6-0.1,1.1-0.1,1.7c0,0.2,0,0.3,0,0.5l-0.6,0C163.9,360.1,163.9,360,163.9,359.8z M165.6,352.6c0.5-1.2,1.2-2.3,1.9-3.4
	l0.5,0.3c-0.7,1.1-1.4,2.2-1.9,3.4L165.6,352.6z M184.5,349c0,0-0.1,0-0.1-0.1l0.3-0.5c0,0,0.1,0,0.1,0c0,0,0,0,0.1,0
	c0.3,0,1.2-0.1,1.6-0.4c0.4-0.3,0.7-0.7,0.8-1.2l0.6,0.2c-0.2,0.6-0.6,1.1-1,1.5c-0.6,0.5-1.7,0.6-2.1,0.5
	C184.6,349.1,184.5,349,184.5,349z M170,346.1c0.9-1,1.8-1.9,2.8-2.7l0.4,0.5c-1,0.8-1.9,1.7-2.8,2.7L170,346.1z M181.5,344.6
	c-0.1-0.6-0.1-1.2,0-1.8c0-0.3,0.1-0.7,0.2-1l0.6,0.1c-0.1,0.3-0.1,0.6-0.2,0.9c-0.1,0.6-0.1,1.1,0,1.6c0,0.4,0.1,0.7,0.3,1.1
	l-0.6,0.2C181.6,345.5,181.5,345,181.5,344.6z M184,341.2L184,341.2l0.1-0.6l0.1,0c1.3,0.4,2.5,1.3,3.1,2.4l-0.5,0.3
	C186.2,342.4,185.2,341.6,184,341.2z M176.3,341.4c0.6-0.3,1.8-0.8,2.4-0.9c0.5-0.1,0.9-0.1,1.4-0.2l0.1,0.6c-0.4,0-0.9,0.1-1.3,0.2
	c-0.4,0.1-1.3,0.4-2.3,0.9L176.3,341.4z M183.3,338.2c0.7-1.1,1.6-2.1,2.7-3l0.4,0.5c-1,0.8-1.8,1.8-2.5,2.8L183.3,338.2z"/>
<path class="st7" d="M189.6,333.7c0.6-0.3,1.2-0.5,1.9-0.6l-0.1-0.6c-0.7,0.2-1.3,0.4-1.9,0.6L189.6,333.7z"/>
<rect x="144.6" y="448.7" class="st1" width="17.6" height="136"/>
<rect x="120.1" y="489.4" class="st1" width="17.6" height="94.5"/>
<rect x="169.5" y="478.1" class="st1" width="17.6" height="106.5"/>
<rect x="95.5" y="473.2" class="st1" width="17.6" height="110.7"/>
<rect x="71" y="506" class="st1" width="17.6" height="77.9"/>
<rect x="144.6" y="479.2" class="st6" width="17.6" height="105.4"/>
<rect x="120.1" y="511.2" class="st6" width="17.6" height="72.7"/>
<rect x="169.5" y="501.9" class="st6" width="17.6" height="82.7"/>
<rect x="95.5" y="498.7" class="st6" width="17.6" height="85.2"/>
<rect x="71" y="523.9" class="st6" width="17.6" height="59.9"/>
<polygon class="st0" points="66.6,586.8 62.6,584.7 73.8,563 80.3,568.3 93.4,543.2 109.8,560.9 139.3,496 155.9,522.5 186,475.7 
	189.8,478.1 155.8,530.8 140,505.4 111,569 94.5,551 81.7,575.2 75.3,570 "/>
<polygon class="st0" points="188.9,487.7 184.9,481.7 177.7,480.5 191.9,470.8 "/>
<path class="st8" d="M296.4,293.3h-57.9c-2.8,0-5.1,2.3-5.1,5.1v33.9c0,2.8,2.3,5.1,5.1,5.1H279c2.6,3.6,7.3,10.2,7.7,10.2
	c0.4,0-0.4-6.2-0.9-10.2h10.5c2.8,0,5.1-2.3,5.1-5.1v-33.9C301.5,295.6,299.2,293.3,296.4,293.3z"/>
<path class="st0" d="M-19.6,493.4l0.7,5.9c0.2,0.3,0.5,0.2,1.2,0.2c1.3,0,2.6-0.1,3.9-0.1c0.2,0,0.5,0.2,0.6,0.4
	c0.6,1.1,1.2,2.3,1.8,3.4c0.2,0.3,0.2,0.5,0,0.9c-0.9,1.4-1.9,2.8-2.8,4.1c0.9,1.2,3.8,3.6,5,4.1c1.1-1.1,2.2-2.3,3.3-3.5
	c0.3-0.4,0.6-0.4,1.1-0.2c1.1,0.4,2.3,0.8,3.5,1.1c0.5,0.1,0.8,0.3,0.9,0.8c0.2,1.4,0.6,2.8,0.9,4.3c0.1,0.4,0.2,0.6,0.6,0.5
	c1.8-0.2,3.7-0.4,5.5-0.6c0.5,0,0.4-0.4,0.4-0.7c0-1.4,0-2.8-0.1-4.2c0-0.5,0.2-0.8,0.6-1c1.3-0.6,2.5-1.3,3.9-2
	c1.4,0.9,2.9,1.9,4.4,2.9c1.6-1.4,2.9-3.1,4-5c-1.3-1.3-2.6-2.5-3.7-3.6c0.4-1.6,0.9-3.1,1.2-4.7c0.1-0.4,0.3-0.6,0.7-0.7
	c1.4-0.3,2.8-0.6,4.2-0.9c0.3-0.1,0.5-0.1,0.5-0.5c0.1-1.8,0-3.7-0.5-5.5c-0.1-0.4-0.3-0.5-0.7-0.5c-1.5,0-2.9,0-4.4,0
	c-0.4,0-0.5-0.1-0.7-0.4c-0.6-1.2-1.3-2.5-2.1-3.7c-0.2-0.3-0.1-0.5,0-0.7c0.9-1.4,1.8-2.8,2.8-4.2c-1.5-1.6-3-2.9-4.9-4
	c-1.3,1.3-2.6,2.6-3.8,3.9c-1.7-0.5-3.3-1-5.1-1.5c-0.3-1.2-0.6-2.7-0.9-4.1c-0.3-1.2,0-1.1-1.3-1.1c-0.1,0-0.2,0-0.4-0.1
	c-1.1,0.1-2.2,0.2-3.3,0.4c-0.2,0.1-0.5,0.2-0.7,0.2c-0.6,0.1-0.9,0.3-0.9,1c0.1,1.4,0,2.9,0,4.3c0,0.2-0.2,0.5-0.3,0.6
	c-1.1,0.6-2.2,1.2-3.3,1.9c-0.5,0.3-0.8,0.3-1.3,0c-1.3-0.9-2.6-1.7-4.1-2.7c-1.4,1.7-2.7,3.3-4,4.9c0.3,0.3,0.4,0.5,0.6,0.6
	c1,1,2,2,3.1,3c0.3,0.3,0.3,0.5,0.2,0.9c-0.4,1.3-0.7,2.6-1.1,3.9c-0.1,0.2-0.3,0.4-0.5,0.5c-1.1,0.3-2.3,0.5-3.4,0.7
	C-19.1,492.9-19.5,493-19.6,493.4z M-7.9,494.9c-0.6-5.2,3.2-10,8.4-10.6l0,0c5.2-0.6,10,3.2,10.6,8.4l0,0c0.6,5.2-3.2,10-8.4,10.6
	l0,0C-2.6,503.9-7.3,500.1-7.9,494.9L-7.9,494.9z"/>
<rect x="58.6" y="436.1" class="st0" width="53.7" height="7"/>
<rect x="58.6" y="449" class="st0" width="44.9" height="7"/>
<rect x="58.6" y="461.8" class="st0" width="25.7" height="7"/>
<rect x="208.2" y="569.3" class="st0" width="78.8" height="11.6"/>
<rect x="298.9" y="531.4" class="st6" width="102.3" height="13"/>
<rect x="298.9" y="550.7" class="st6" width="102.3" height="13"/>
<rect x="298.9" y="570.1" class="st6" width="102.3" height="13"/>
<rect x="208.2" y="558.7" class="st6" width="78.8" height="3.9"/>
<rect x="208.2" y="548.3" class="st6" width="78.8" height="3.9"/>
<rect x="208.2" y="537.9" class="st6" width="78.8" height="3.9"/>
<path class="st1" d="M401.2,458.2c-3.2-0.1-6.5-0.1-9.7,0.2c-21,2.1-38.9,15.7-53.9,30.5c-3.2,3.2-6.7,6.6-11.3,7.3
	c-5.4,0.8-10.5-2.8-14.6-6.5c-7.1-6.5-14.8-14.7-24.3-13.6c-6.8,0.8-12,6.3-17,11c-5,4.7-11.5,9.3-18.2,7.7c-6-1.4-10.4-6.3-15.3-10
	c-11-8.3-23.8-0.6-31.5,6.9v29.9h195.7V458.2z"/>
<path class="st0" d="M401.2,476.5c-3.2-0.1-6.5-0.1-9.7,0.2c-21,2.1-38.9,15.7-53.9,30.5c-3.2,3.2-6.7,6.6-11.3,7.3
	c-5.4,0.8-10.5-2.8-14.6-6.5c-7.1-6.5-14.8-14.7-24.3-13.6c-6.8,0.8-12,6.3-17,11c-5,4.7-11.5,9.3-18.2,7.7c-6-1.4-10.4-6.3-15.3-10
	c-11-8.3-23.8-0.6-31.5,6.9v11.7h195.7V476.5z"/>
<rect x="215.3" y="469" class="st6" width="14" height="1.6"/>
<rect x="215.3" y="472.7" class="st6" width="12.8" height="1.6"/>
<rect x="306.1" y="460.5" class="st6" width="11.1" height="1.6"/>
<rect x="303.2" y="464.2" class="st6" width="14" height="1.6"/>
<rect x="358.9" y="450.7" class="st6" width="14" height="1.6"/>
<rect x="363.4" y="454.4" class="st6" width="9.4" height="1.6"/>
<rect x="227.9" y="478.4" transform="matrix(0.5128 0.8585 -0.8585 0.5128 524.1213 33.4074)" class="st6" width="9.5" height="0.2"/>
<rect x="294.5" y="469.8" transform="matrix(-0.5128 0.8585 -0.8585 -0.5128 856.2296 453.9847)" class="st6" width="9.5" height="0.2"/>
<rect x="355.8" y="460.9" transform="matrix(-0.5128 0.8585 -0.8585 -0.5128 941.2483 387.9904)" class="st6" width="9.5" height="0.2"/>
<rect x="298.9" y="531.4" class="st1" width="19.3" height="13"/>
<rect x="298.9" y="550.7" class="st1" width="47.4" height="13"/>
<rect x="298.9" y="570.1" class="st1" width="22.8" height="13"/>
<polygon class="st9" points="297.5,370.7 295.1,377.6 302.2,374.9 "/>
<path class="st1" d="M304.7,350c-0.5,0-1.8,0.5-3.7,4c-2.4,4.5-5.9,18.3-5.9,18.3l10.5,3.9l1.4-2.9l2.2-22.1
	C309.3,351.2,304.9,350,304.7,350z"/>
<path class="st1" d="M318.7,348c-3,0-10.5,0.9-13.9,2c0,0-2.5,21.8,2.3,38.3c1.1,3.7-0.9,15.3-0.9,15.3l31.2-0.4
	c0,0-3.7-28.1-2.3-32.7c1.4-4.5,1.4-20.4,1.4-20.4s-0.2,0-7-1.2C326.3,348.4,321.9,348,318.7,348z"/>
<path class="st10" d="M322.3,444c0,0-0.7,7.9-2,10.1c-1.3,2.2,0.1,5.9,0.1,6.4c0.1,0.5,2.7,1.2,6.8,0.8c4.1-0.4,4.1-1.4,3.7-2.9
	c-0.3-1.5-2.5-3.5-2.7-5c-0.1-1.5,1.3-6.7,1.3-6.7L322.3,444z"/>
<path class="st1" d="M309.7,397c0,0-21.5-1.2-26.3,1.7c-4.8,2.9,6.2,15.8,6.2,15.8s12.7-0.3,43,0.7c7,0.2,6.1-16.4,4.8-17.9
	C336,395.8,309.7,397,309.7,397z"/>
<path class="st2" d="M327.8,462c4.3-0.5,3.7-2.5,3.4-4.1c-0.2-1-1.4-2.2-2.2-3.3c-0.4,0.3-1,0.8-2.9,1.4c-1.9,0.6-4.6-0.6-6.2-1.3
	c-0.6,2.2-0.6,5.1-0.6,5.5C319.4,460.7,323.5,462.4,327.8,462z"/>
<path class="st0" d="M325.4,412.4c-0.9,6.5-5.1,38.8-5.1,38.8l9.9,1.2c0,0,12.2-42.2,11.5-48.6c-0.6-6.4-5.2-7-5.2-7
	S327.7,395.2,325.4,412.4z"/>
<path class="st10" d="M336.8,352.5c-2.9-1.1-4.3,25.1-4.7,35.9c-5.2,0.5-14.2,0-16.4-0.2c-1.1-0.1-3.5-1-4.5-1.1
	c-1.1-0.1-2-0.2-2.6-0.1c-0.2,0-5.6,2.2-6,2.7c-0.6,0.6-2.1,2.1-1.9,2.8c0.3,0.7,3-1.8,3-1.8l1.3-0.7c-1.6,1.6-4.8,3.7-4.3,4.5
	c0.4,0.8,3.3-1.4,5.3-2.9c-1.7,1.6-3.9,4.4-3.4,4.8c0.4,0.4,2.9-2.8,5.5-3.8c1-0.3,1.9,0.6,2.7,0.7c0.6,0.1,1.4,0.3,2,0.1l2.8-0.8
	c1,0.1,1,0.7,2,0.9c1.1,0.2,3,0.5,4.4,0.8c8.3,2,11.1,3,13.6,3C343.2,397.3,343.7,355.1,336.8,352.5z"/>
<path class="st1" d="M342.3,377.1c0.5-11,0.5-24.7-5.7-27c-2.5-0.9-6.8,4.6-6,27.2C333.9,377.6,338.8,377.8,342.3,377.1z"/>
<polygon class="st9" points="307.6,372.4 308.2,372.4 317.7,395.7 317.1,395.6 "/>
<path class="st10" d="M293.4,450.8c0,0,0.9,2.8-0.7,4.6c-1.5,1.8-8,3.6-8.8,4.6c-0.8,1-0.8,1.8-0.8,1.8l18-0.5l-0.2-5.4l-0.8-3.9
	L293.4,450.8z"/>
<path class="st2" d="M291.6,456.3c0,0,4.6,1.9,6.9,0.8c2.2-1.1,2.2-1.4,2.8-1c0.6,0.4,0.9,5.5,0.9,5.5l-20.3,0.6c-1.4,0-2.1-1.1-1-2
	c0.8-0.6,1.7-1,2.2-1.3C284.7,457.9,291.6,456.3,291.6,456.3z"/>
<path class="st0" d="M294.1,402.1c-1.4-2.9-4.6-6.7-10.1-4.4c-5.3,2.2-6.7,7.6-5.1,13c1.7,5.5,12.7,37.8,13.1,42.2l8.8,0.1
	c0,0-1.6-25.6-2-31.8C298.4,415.3,296.5,407.2,294.1,402.1z"/>
<path class="st2" d="M279.8,372.4h29.5c0.8,0,1.5,0.5,1.8,1.2l9.1,22.1h16.2c0.5,0,0.8,0.4,0.8,0.8l0,0c0,0.5-0.4,0.8-0.8,0.8h-46.2
	c-1.3,0-2.4-0.7-2.9-1.9l-9.1-20.3C277.4,373.8,278.4,372.4,279.8,372.4z"/>
<ellipse transform="matrix(-0.9806 0.196 -0.196 -0.9806 664.0991 704.1486)" class="st11" cx="297.2" cy="384.9" rx="1.6" ry="1.8"/>
<path class="st10" d="M322.2,338.7l1.4,9.5c0,0-5.3,11.3-8.4,10.3c-2.6-0.8-1-10.8-1-10.8s1.4-5.4,1-8.1
	C314.8,336.9,322.2,338.7,322.2,338.7z"/>
<path class="st12" d="M314.3,347.7c0,0,1.2-4.5,1.1-7.3c2-0.6,5.3-1.3,7.1-1l0.5,4.1c-0.1,0.1-0.2,0.2-0.3,0.3
	c-2.2,2.3-5.5,3.8-8.5,4.1C314.2,347.8,314.3,347.7,314.3,347.7z"/>
<path class="st10" d="M320.4,324.3c0.2-0.1,4.9,10.3,3,14.1c-1.9,3.8-7,6.4-9.6,4.6c-2.9-2-6.3-13.6-2.9-18
	C314.3,320.6,320.4,324.3,320.4,324.3z"/>
<path class="st2" d="M310,319.1c3.5-0.3,11.7-0.9,14.9,2c3.9,3.5,3.7,11,1.4,14.3c-2.3,3.3-3.6,7.1-3.6,7.1l-0.4-2.4
	c-0.2-1.9,0.4-2,0.2-3.2c-0.1-0.7-0.2-1.5-0.1-2.1c0.3-1.8-2.4-2.1-3.4-3.3c-0.8-0.9-1.5-3.2-2.8-4.6l-1.3-1c0,0-2.7-1-4.6,0.1
	C308.3,327.1,305.4,319.5,310,319.1z"/>
<ellipse transform="matrix(-0.963 0.2696 -0.2696 -0.963 720.129 567.1035)" class="st10" cx="321.1" cy="333" rx="1.4" ry="2.5"/>
<path class="st11" d="M317.1,338.2l-4.5,1.1c0,0,0.5,1.7,2.5,1.3C317.6,340,317.1,338.2,317.1,338.2z"/>
<path class="st10" d="M55.3,552.2c1.3-1.1,11.7,3.4,11.5,5c-0.1,1.6,7.2,16.9,7.2,16.9L86.7,564l0,0c0.1-0.4,1.3-4.3,1.4-5
	c0.1-0.7,2.2-2,3.2-1.8c1,0.2-0.9,1.4-1,1.7c-0.3,0.6,0.9,0.9,0.9,0.9s3.6-1.2,3.7-2.3c0.1-1.2,2.6,2.1,2.3,2.5
	c-0.3,0.4-6.2,5.2-7.1,6.2c0,0-16.4,18.8-17.6,19.3c-1,0.4-4.7-6-8.1-10.3C61,570.7,51.1,555.6,55.3,552.2z"/>
<path class="st13" d="M22.2,690.2c0,0-2.3,2.2-2.3,3c-0.1,0.8-0.2,9.5,0.7,10.3c0.9,0.8,3.6,1.4,2.8,2.3c-0.7,0.7-5.7,0.5-9.1,0.4
	c-1-0.1-2.2-7.9-2.6-9c-0.6-1.7-1.9-5.4-1.4-6.6c0.2-0.6,1.4-1.7,3.1-2.8c1.8-1.1,3.5-3.7,3.5-3.7L22.2,690.2z"/>
<path class="st10" d="M45.5,695.3c0,0-2,5.7-2,5.7c-0.2,0.9-0.7,3.1-0.7,4c0,3.1,13.9-2.6,10.8-4c-0.3-0.1-1.2-1.1-1.3-2.2
	c-0.1-1.6,1.2-3.6,1.2-3.6L45.5,695.3z"/>
<path class="st1" d="M67.4,589.1c0,0,1,10.2,1,10.4c0,16.5,3.3,48.8,2.7,51.9c-1.5,7.6-17.9,46.3-17.9,46.3l-8.8-1.1l11.5-46.3
	l-4.2-18.6l-6-36.9L67.4,589.1z"/>
<path class="st0" d="M37.7,598.2l-1.7,9.7l-4.5,39.9l-17.3,39c0,0,2.4,5.7,6,6.5l27.5-40L64.8,602l-0.6-11.4L37.7,598.2z"/>
<path class="st1" d="M70.9,564.8L58.6,566c0,0-0.6-10.1-0.6-14.9c0-5.8,0.5-13.3,1.2-13.2c2,0.5,4.6,1.5,6.2,3.7
	C71,549.3,70.9,564.8,70.9,564.8z"/>
<path class="st1" d="M64.9,550.2c0.3,1.8,5,50,5,50c-22.3,10.8-34.7,1.9-34.7,1.9s0.7-33.9-0.1-38.5c-0.6-3.1-1.3-23.3,0.7-23.9
	c2.5-0.7,5.4-1.5,8.6-1.8c2.7-0.3,13.2-0.4,15.1,0.2C59.4,538.1,63.8,542.7,64.9,550.2z"/>
<path class="st2" d="M13.5,687.7c0,0,5.2,14.6,7.2,15.3c0.5,0.2,3.1,0.7,3.6,1.8c0.1,0.3,0,1.5,0,1.5H13.5c0,0-1.4-6.4-1.9-9.3
	c0,0-2.9-6.9-2.5-7.6C9.4,688.9,13.5,687.7,13.5,687.7z"/>
<path class="st2" d="M42,706l1.6-5c0,0,3.3,1.4,5,1.2c1.7-0.2,4.9-1.2,4.9-1.2c6.7,2.2,12.2,3.3,11.2,5l0,0H42z"/>
<path class="st10" d="M72.6,585.4c0.1,0,0.2-0.2,0.3-0.3c-0.4-4.7-0.3-9.3,1.2-10.9c0-0.1-0.4-0.8-0.7-1.5
	c-1.7,1.3-2.5,4.9-2.2,10.6c0,0.4,0.1,0.7,0.2,1.2C71.9,585.1,72.4,585.5,72.6,585.4z"/>
<path class="st10" d="M47.3,528.6l-1.4,9.5c0,0,5.3,11.3,8.4,10.3c2.6-0.8,1-10.8,1-10.8s-1.4-5.4-1-8.1
	C54.7,526.8,47.3,528.6,47.3,528.6z"/>
<path class="st14" d="M54.3,529.5c0.4-2.7-7-0.9-7-0.9l-0.1,0.8c0.2,0.5,0.5,1,0.8,1.3c1.7,1.8,4.2,2.8,6.5,2.9
	C54.2,532.2,54.1,530.6,54.3,529.5z"/>
<path class="st10" d="M46.1,515.1c-0.2-0.1-1.7,10.8,1.1,13.8c2.8,3,8.2,4,10.2,1.6c2.2-2.6,2-14.3-2.3-17.4
	C50.7,510.1,46.1,515.1,46.1,515.1z"/>
<path class="st2" d="M53.4,507.4c-3.3,0.7-5.5,2.7-6.3,3.6c-1.5,0.2-3.6,1-5.7,4.5c-2.6,4.3-0.7,9.1,2.4,11.5c3.1,2.4,3,5.1,3,5.1
	l0.5-1.4c0.4-1.1,0.5-2.2,0.4-3.3c-0.1-0.7-0.2-1.4-0.5-2c-0.7-1.6,1.6-2.6,2.2-3.9c0.5-1,0.5-3.3,1.3-5l0.9-1.3
	c0,0,2.2-1.7,4.3-1.2C58,514.4,57.7,506.5,53.4,507.4z"/>
<ellipse transform="matrix(0.9999 -1.710909e-002 1.710909e-002 0.9999 -8.9477 0.8952)" class="st10" cx="47.8" cy="523.4" rx="1.4" ry="2.4"/>
<path class="st11" d="M53.8,526.4l4.2-0.2c0,0,0,1.6-1.9,1.7C53.8,528.1,53.8,526.4,53.8,526.4z"/>
<path class="st3" d="M88.1,551.2c-1-1-1.9-2-2.8-3.1L67,566c-1.1,1.1-0.7,3.3,0.9,5c1.6,1.6,3.8,2.1,4.9,1l18.3-17.9
	C90.1,553.2,89.1,552.3,88.1,551.2z"/>
<ellipse transform="matrix(0.6987 0.7154 -0.7154 0.6987 407.5634 69.1593)" class="st15" cx="121.7" cy="518.4" rx="46.2" ry="46.5"/>
<path class="st11" d="M88.4,550.4c7.6,8.1,18,13.4,29.4,14.4l50.1-50.9c0-0.1,0-0.2,0-0.3c-1.2-11.6-6.7-21.8-14.6-29.2L88.4,550.4z
	"/>
<path class="st11" d="M122.1,472.1l-46.3,47.1c0,1.4,0.1,2.9,0.3,4.3c0.7,6.6,2.7,12.7,5.8,18.1l62.6-63.6
	C137.7,474.2,130.1,472.1,122.1,472.1z"/>
<path class="st2" d="M159.3,481.7c-20.1-20.6-53.3-20.9-74.1-0.6c-20.8,20.3-21.3,53.4-1.1,74.1c20.1,20.6,53.3,20.9,74.1,0.6
	C178.9,535.5,179.4,502.4,159.3,481.7z M88.4,550.9c-17.8-18.2-17.4-47.6,1-65.5c18.4-17.9,47.7-17.7,65.5,0.6
	c17.8,18.2,17.4,47.6-1,65.5C135.6,569.4,106.3,569.1,88.4,550.9z"/>
<path class="st16" d="M157,484c-18.9-19.4-50.1-19.6-69.6-0.6c-19.5,19-20,50.2-1,69.6c18.9,19.4,50.1,19.6,69.6,0.6
	C175.4,534.5,175.9,503.3,157,484z M88.4,550.9c-17.8-18.2-17.4-47.6,1-65.5c18.4-17.9,47.7-17.7,65.5,0.6
	c17.8,18.2,17.4,47.6-1,65.5C135.6,569.4,106.3,569.1,88.4,550.9z"/>
<path class="st2" d="M10.1,629.7l-2.8-3c-2.8-2.9-2.8-7.6,0.2-10.5L60.4,565c2.9-2.8,7.6-2.8,10.5,0.2l2.8,3
	c2.8,2.9,2.8,7.6-0.2,10.5l-52.9,51.3C17.7,632.7,13,632.7,10.1,629.7z"/>
<path class="st17" d="M13.1,600.7c0-0.1,0-0.2,0-0.3c0.3-3.3,3.1-31.4,3.6-32.6c0.4-1.1,12.9-18.9,12.9-18.9l6.1,8.3l-12,16
	c-0.3,1-4.6,20-4.6,20s-0.9,3.5-1.3,5.5c0.2,0.5,0.4,1,0.5,1.4c0.4,0.8,0.9,1.5,1.3,2.1c0.5,0.7,1.4,2.3,1.5,2.7
	c0.1,0.5,0.4,1.5,0.5,2.1c0.1,0.6,0.3,1.3,0.3,1.7c0,0.2,0.2,0.6,0.4,0.9c0.2,0.4-0.2,0.9-0.6,0.8c-0.4-0.1-0.8-0.7-1-1.1
	c-0.6-1-0.9-2.8-1-2.7c-0.1,0.1-0.7,3.2-0.7,3.5c-0.1,0.3-0.7,3.9-1,4.6c-0.3,0.7-0.8,0.5-0.9,0.1c-0.1-0.4,0.4-5.3,0.4-5.3
	s0.1-0.6-0.2-0.4c-0.3,0.2-0.7,4.7-0.9,5.4c-0.2,0.7-0.6,1-1,0.5c-0.5-0.6,0.3-5.4,0.3-5.4s0.1-0.6-0.2-0.5
	c-0.3,0.1-0.6,3.9-0.8,4.2c-0.2,0.3-0.7,0.5-0.9-0.1c-0.3-0.7,0.5-4.9,0.5-4.9s0-0.3-0.2-0.2c-0.2,0.1-0.7,3.4-1,3.7
	c-0.3,0.3-0.5,0-0.5,0c-0.6-0.4,0.3-3.5,0.3-5.1c0-1.5,0.7-3.3,0.5-5.1C13.1,601.2,13.1,600.9,13.1,600.7z"/>
<path class="st1" d="M19.8,560.2l10.6,7.1c0,0,6-8.9,9.2-12.1c4-4-1.5-16.2-4.1-15.5C29.7,541.3,19.8,560.2,19.8,560.2z"/>
<path class="st2" d="M159.6,370.1l0.4,0.4c0.2,0.2,0.6,0.2,0.8,0l7.9-8.7c0.2-0.2,0.2-0.6-0.1-0.8l-0.4-0.4c-0.2-0.2-0.6-0.2-0.8,0
	l-7.9,8.7C159.3,369.6,159.3,369.9,159.6,370.1z"/>
<path class="st10" d="M132.8,363c1.1-0.9,9.2,2.7,9.1,4c-0.1,1.2,5.7,13.4,5.7,13.4l10-8l0,0c0.1-0.3,1-3.4,1.1-4
	c0-0.6,1.7-1.6,2.5-1.5c0.8,0.2-0.7,1.1-0.8,1.3c-0.3,0.5,0.7,0.7,0.7,0.7s2.9-1.6,3-2.5c0.1-0.9,0.7-2.9,1.3-2.5
	c0.3,0.2,0.3,1.6,0.2,2.3c0.2-0.7,0.4-1.6,0.7-1.7c0.5-0.2,0.7,0.4,0.6,0.7c-0.1,0.3-0.8,3.5-1.1,3.8c-0.2,0.4-4.9,4.1-5.6,4.9
	c0,0-13,14.8-13.9,15.2c-0.8,0.3-3.7-4.8-6.4-8.2C137.3,377.7,129.5,365.7,132.8,363z"/>
<path class="st10" d="M168.6,454.2c0,0,0.6,6.7,0.2,8.8c-0.1,0.3-0.2,0.7-0.3,1.1c-0.4,1.2,0.7,4.9,0.7,4.9l15.2,0.1
	c0.8,0,0.3-0.5-0.4-1c-1.1-0.8-2-1.3-5.5-2.9c-0.2-0.1-1.1-0.6-1.4-0.8c-0.8-0.5-1.5-1.2-2.2-1.9c-1.1-1.2-1.3-7.1-1.3-7.1
	L168.6,454.2z"/>
<path class="st2" d="M177.1,464.4c-4,1.1-7,0.4-8.7-0.2c-0.4,1.2-1.2,5.3-0.7,5.3c3.8,0,7,0.7,18,0.5c0.4,0,0.3-1.3,0.1-1.6
	C185.1,467.6,177.4,464.6,177.1,464.4z"/>
<path class="st10" d="M185.8,443.2c0,0,3.3,5.8,3.9,8c0.1,0.3,0.1,0.7,0.2,1.1c0.1,1.3,2.7,4.2,2.7,4.2l13.9-6.3
	c0.8-0.3,0-0.6-0.8-0.7c-1.3-0.3-2.4-0.4-6.2-0.4c-0.3,0-1.2-0.1-1.6-0.2c-0.9-0.1-1.9-0.4-2.8-0.8c-1.5-0.6-4.1-5.9-4.1-5.9
	L185.8,443.2z"/>
<path class="st2" d="M133.8,333.1c-1.8-3.7-6.3-5.8-10.5-5.8c-13.1,0-14.7,16.8-23.1,23.3c-2.5,1.9-5.3,3.5-7.7,5.6
	c0,1.4,0.2,2.8,0.6,4c0.5,1.4,1.2,2.6,2,3.8l3.5-2l-1.5,4.5c3.1,3.3,7.3,5.7,11.4,7.9c5.7,3.1,11.8,4.4,17.9,4.6
	c2.3-4.6,3.9-9.8,5.7-14.6c2.1-5.7,3.9-11.7,4.2-17.9C136.6,342,135.9,337.4,133.8,333.1z"/>
<path class="st2" d="M197.8,448.9c-3.2,2.6-6.2,3.3-8,3.4c0.1,1.3,1.1,5.3,1.6,5.2c3.5-1.6,6.7-2.3,16.6-7c0.4-0.2-0.2-1.4-0.6-1.5
	C206.3,448.5,198.1,448.9,197.8,448.9z"/>
<path class="st1" d="M136.1,353.2c5.9,2,8.5,17.1,8.5,17.1s-9.3,2.6-11.7,1.2c0,0-2.7-12-3.7-11.6L136.1,353.2z"/>
<path class="st0" d="M129.6,352L129.6,352L129.6,352c0.2,0,0.4-0.1,0.6-0.1c1.1-0.2,4,0.5,5.9,1.3c2.3,1,3.7,9.5,3.4,18.7
	c-0.1,1.4-1.1,23.2-1.3,23.2c-2.7,1.8-18.9,2.6-20.1,1.1c-1.1-1.5-2-27.3-2.5-28.2l-1.1-15.8C116.5,351.7,126.7,352,129.6,352z"/>
<path class="st10" d="M122.9,346.2c0,0,1.1,5.5,0.8,7.6c-0.2,2.2,0.8,9.1,5.4,9.1c4.6,0,0.9-8.8,0.4-11c-0.4-2.1-0.5-8.7-0.5-8.7
	L122.9,346.2z"/>
<path class="st14" d="M129.2,346.6c-0.1-1.8-0.1-3.3-0.1-3.3l-6.1,2.9c0,0,0.2,1.1,0.4,2.5C126.1,349.3,128,348.3,129.2,346.6z"/>
<path class="st10" d="M120.7,331.1c0,0-2.4,1.3-3.2,4.1c-0.9,2.8,0.1,10.2,6.2,11.9c6.1,1.8,8.7-4,7.5-8.6
	C129.9,334.1,127.2,328.3,120.7,331.1z"/>
<ellipse transform="matrix(0.9952 9.761465e-002 -9.761465e-002 0.9952 33.4947 -11.1461)" class="st10" cx="130.7" cy="336.7" rx="1.3" ry="2.2"/>
<path class="st2" d="M121.4,330.7c0,0-1.1,8.2-3.7,9.6c-2.6,1.5-1.5,5.1-1.5,5.1s-2.4-8.4-0.3-11.1
	C117.9,331.7,121.4,330.7,121.4,330.7z"/>
<ellipse transform="matrix(0.8297 -0.5583 0.5583 0.8297 -171.0756 124.1648)" class="st10" cx="117.9" cy="342.4" rx="1.6" ry="2.3"/>
<path class="st11" d="M128.1,342l-4.3,1.1c0,0,0.5,1.6,2.4,1.2C128.6,343.8,128.1,342,128.1,342z"/>
<path class="st10" d="M89.2,414.1c0.1-0.2,0.2-0.2,0.4-0.2c1.7-0.1,3.4-0.2,5.1-0.5c0.3-0.1,0.6-0.1,0.8-0.2
	c0.5-0.2,0.9-0.2,1.4-0.1c0.3,0.1,0.5,0.1,0.8,0.1c0.9,0,3.3-0.9,4.5-1.2c0.3-0.1,0.5-0.3,0.6-0.6c1.1-4.9,3.4-15.9,3.6-19.5
	c0.3-4.6,2.8-25.4,2.8-25.4l8.6,2.1c0,0-2.1,15.2-2.8,22.6c-0.6,5.8-6.8,18.3-8.5,21.9c-0.8,2.6-2.8,2.8-3.2,2.8
	c-0.3,0-0.5,0.2-0.7,0.4c-0.3,0.4-0.6,0.7-1,1c-0.3,0.2-0.5,0.5-0.7,0.8c-0.3,0.5-0.6,1.1-1,1.7c-0.2,0.4-0.4,0.5-0.7,0.4
	c-0.3-0.1-0.5-0.3-0.5-0.7c0-0.6,0.2-1.2,0.5-1.7c0.3-0.5,0.2-0.8-0.1-1.2c-0.2-0.3-0.4-0.5-0.7-0.7c-0.3-0.2-0.5-0.3-0.9-0.3
	c-0.6,0.2-1.2,0.3-1.8,0.4l-0.5,0.1c0,0-0.3,0.1-0.3,0.1c0,0-0.9,0.1-1.3,0.2c-0.2,0-0.7,0-1,0.1c-0.3,0-1-0.1-1-0.1
	c-0.3,0-0.6-0.1-0.8-0.3c-0.1-0.1-0.2-0.2-0.1-0.3c0-0.1,0.1-0.2,0.3-0.2c0.2,0,1.3-0.2,1.2-0.2c-0.3,0-1.3,0-1.6,0
	c-0.4,0-0.8-0.1-1.1-0.4C89.2,414.4,89.1,414.3,89.2,414.1z"/>
<path class="st0" d="M114.8,352.2c-4.2-0.8-8,18-8,18s9.3,2.6,11.7,1.2c0,0,2.7-12,3.7-11.6L114.8,352.2z"/>
<path class="st3" d="M138.5,393.5v3.4l32.2,6.8l8,24l-4.5-3l1,37l-6.8,0c0,0-11.7-31-7.9-46.7l-35.7,0.5c0,0-16.2-6.2-7.8-25.1
	L138.5,393.5z"/>
<path class="st18" d="M138.5,397c0,0,33.4,0.2,35.8,2.1c2.4,1.8,20.2,47.3,20.2,47.3l-7.8,2.9c0,0-15.5-25.8-16.3-27.6
	c-0.8-1.8-6.8-15.3-9.1-16.7C159.1,403.5,138.5,397,138.5,397z"/>
<path class="st10" d="M449.1,685.8c0,0,1,6.8,2.6,9c0.6,0.7,1.6,1.7,2.3,3c1,2.1,0.5,5.2-0.3,6.9c-0.4,0.9,0,0.9-0.9,1.1
	c-2.7,0.8-5.5-0.6-6.7-3.2c-0.6-1.4-1.2-3.4-1.3-5.8c-0.3-6.2-2.2-9.3-2.2-9.3L449.1,685.8z"/>
<path class="st10" d="M419.8,688.9c0,0-0.6,7.7-0.1,10.2c0.3,1.3,1.7,4.1,1,5.3c-0.7,1.3-1.4,1.6-1.4,1.6l-17.3,0.3
	c-0.9,0-0.3-0.6,0.4-1.2c1.2-0.9,2.2-1.5,6.2-3.5c0.3-0.1,1.2-0.7,1.5-0.9c0.9-0.5,1.7-1.4,2.5-2.2c1.2-1.4,1.4-8.1,1.4-8.1
	L419.8,688.9z"/>
<path class="st0" d="M406.3,587c0,0-2.2,12.4-0.7,20.6c1.4,8.2,8.3,83.8,8.3,83.8l7.6,0.4c0,0,1.6-31.6,1.3-36
	c-0.3-4.4-2.6-11.7-2.6-11.7l0.8-25.5l-9.6-33.5L406.3,587z"/>
<path class="st1" d="M428.7,584.4c0,0,6,9.1,7.4,16.6c1.4,7.5-1.1,30.7,1.7,40.5c1.5,5.3,7.1,13.6,8,20.5c0.9,6.9,4.2,25,4.2,25
	l-7.6,1.5l-17.7-45.1l-13.9-40.8l-3.6-21L428.7,584.4z"/>
<path class="st2" d="M445.6,701.2c4.2,0.8,6.9-1.7,8.4-3.5c1.1,2.1,1.6,5.2,0.8,6.9c-0.7,1.5-2.7,1.5-4.3,1.5
	c-1.7,0.1-3-0.9-3.8-2.3C446.4,703.1,446,702.3,445.6,701.2z"/>
<path class="st2" d="M410.2,700.7c4.6,1.2,8,0.4,9.9-0.4c0.5,1.4,1.1,3.1,0.8,4.1c-0.4,1.2-1,1.5-1.5,1.5
	c-4.2,0.1-15.3,0.3-18.5,0.3c-0.4,0-0.7-0.5-0.4-0.9C401.2,704.4,409.9,700.9,410.2,700.7z"/>
<path class="st10" d="M378.9,565.5c-0.3-0.7,3-1.6,3.2-2.3c0.1-0.7-4.4-0.3-4.6-0.9c-0.4-1.1,4.9-0.8,4.7-1.3
	c-0.2-0.5-5.6-1.2-5.1-2.2s5.6,1.3,5.7,0.6c0.1-0.6-5-1.7-5-3c0-0.7,8.4,2.8,9.3,2.3c0.9-0.5-1.4-3.7-0.7-4.3
	c0.7-0.6,3.6,6.2,4.2,6.4c0.5,0.2,12.1,3.7,16,4.3c0.3-1.3,3.3-8.6,3.6-9.9c2.3,1.3,5.2-0.3,7.6,0.9c-1.2,4.2-3.9,18-4.9,18.6
	c-3.2,1.9-20.3-7.1-23.1-8.7c-2.8-1.6-4.3-0.8-6.1-1.2C381.6,564.3,379.2,566.2,378.9,565.5z"/>
<path class="st2" d="M409.2,524.9c-0.9-3.9-1.7-7.8,0.6-12.1c1.8-3.5,5-5.5,8.7-5.9c10.4-1.2,8.2,8.5,22.7,10.6
	c4.5,0.7,8.7,1.3,12.5,3.5c6.8,4,9.4,10.5,4.9,21.1c-11,25.9-37.4,3.4-41.5-1.2C413,536.4,409.8,527.4,409.2,524.9z"/>
<path class="st0" d="M425.6,537.2c0,0,5.2,0.6,8.4,4c3.1,3.4-5.1,30.8-5.6,35.2c-0.6,4.3,5.5,16.4,5.5,16.4s-20.5,4.1-25.8,0.6
	c0,0-0.5-33.5,0.1-36.6c0.6-3.1,5.3-15.7,6.5-16.9C415.7,538.5,425.6,537.2,425.6,537.2z"/>
<path class="st10" d="M422.9,526.7c0,0,0,0.2,0.1,0.6c0.4,1.9,1.7,8.2,2.6,9.9c1.1,2.1-3.8,8.8-8.5,8c-1.4-0.2,1.2-6.1,1.1-6.8
	c-0.2-1.2-0.6-2.8-0.9-4.5c-0.2-0.9-0.4-1.9-0.6-2.8c-0.5-2.6-0.9-4.6-0.9-4.6L422.9,526.7z"/>
<path class="st12" d="M423,527.3c-0.1-0.4-0.1-0.6-0.1-0.6l-7.1-0.2c0,0,0.4,2.1,0.9,4.6c0.2,0.9,0.4,1.8,0.6,2.8
	c1.1-0.2,2.2-0.7,3.4-1.7c1.2-1.1,2.1-2.4,2.6-3.8C423.2,528,423.1,527.6,423,527.3z"/>
<path class="st10" d="M418.7,509.8c0,0,2.9,0.4,5,3.1c2.1,2.7,4.4,11.1-0.9,15.6c-5.2,4.5-10.3-0.6-11.1-6.1
	C410.9,517,411.1,509.6,418.7,509.8z"/>
<path class="st10" d="M410.2,521.1c0.3,1.3,1.2,2.2,1.9,2c0.7-0.2,1.1-1.5,0.7-2.8c-0.3-1.3-1.2-2.2-1.9-2
	C410.2,518.6,409.9,519.8,410.2,521.1z"/>
<path class="st2" d="M415.5,509.8c0,0,6.8,7.8,10,8.2s3.6,4.6,3.6,4.6s-1.1-9.7-4.3-11.6C421.6,509.1,415.5,509.8,415.5,509.8z"/>
<path class="st10" d="M424.4,519.9c-0.3,1.4,0.3,2.7,1.2,2.9c0.9,0.2,1.8-0.8,2.1-2.2c0.3-1.4-0.3-2.7-1.2-2.9
	S424.7,518.5,424.4,519.9z"/>
<path class="st2" d="M424.5,559.5l-21.9,3.2c-0.7,0.1-1.1,0.7-1,1.4l4.3,29.3c0.1,0.7,0.7,1.1,1.4,1l21.9-3.2c0.7-0.1,1.1-0.7,1-1.4
	l-4.3-29.3C425.8,559.8,425.2,559.4,424.5,559.5z"/>
<path class="st8" d="M408.1,560.9c0-0.1,0.1-0.3,0.2-0.3l9.2-1.3c0.1,0,0.3,0.1,0.3,0.2l0.1,1l-9.6,1.4L408.1,560.9z"/>
<path class="st8" d="M411.5,560.5c0.1,0.8,0.9,1.3,1.7,1.2c0.8-0.1,1.3-0.9,1.2-1.7c-0.1-0.8-0.9-1.3-1.7-1.2
	C411.9,558.9,411.4,559.7,411.5,560.5z M412,560.4c-0.1-0.5,0.3-1,0.8-1.1c0.5-0.1,1,0.3,1.1,0.8c0.1,0.5-0.3,1-0.8,1.1
	S412.1,560.9,412,560.4z"/>
<path class="st19" d="M408.2,560.7c-0.1,0-0.1,0.1-0.1,0.2l0.1,1l9.6-1.4c0.1,0.7-0.4,1.3-1,1.4l-7.3,1.1c-0.7,0.1-1.3-0.4-1.4-1
	l-0.1-1C408.1,560.8,408.2,560.7,408.2,560.7z"/>
<path class="st11" d="M414.9,525.2l4.9,0c0,0-0.1,1.9-2.3,2C415,527.2,414.9,525.2,414.9,525.2z"/>
<path class="st10" d="M439.9,567l-8,0.8c0,0,0.1,6.7,0,7.5c0,0-13.6,3.8-19.3,4.8c0,0-2.6-1.5-3.6-1.9c-1-0.5-3.9-1-4.5-1.1
	c-0.6-0.1-0.4,0.6,0.1,0.8c0.5,0.2,1.9,0.9,2.3,1.7c0,0-1.1,0.1-1.7-0.1c-0.6-0.3-1.4-0.8-1.4-1.1c0-0.3-0.1-1-0.3-1
	c0,0-0.1,0.2-0.2,0.5c-0.1,0.2-0.1,0.5-0.2,0.7c-0.1,0.4-0.2,1-0.3,1.3c-0.1,0.6,0.3,2.3,0.3,2.9c0.1,1.1,0.4,1.6,1,1.9
	c0.9,0.3,1.9,0.5,3.4,0.7c2.7,0.3,5.2-0.5,6.3-0.6c1.1-0.1,18.4-1.8,18.4-1.8s6.9-1,7.3-2.2C440.1,579.6,439.9,567,439.9,567z"/>
<path class="st1" d="M433,540.2c0,0,2.5,1.2,4.7,6.3c2.1,4.9,2.7,29.3,2.7,29.3l-8.3-1.4l-4.2-11.4c-3-6.8-2.2-14.7,2.2-20.7
	C431.2,540.8,432.3,539.8,433,540.2z"/>
<rect x="-17.9" y="705.9" class="st20" width="515.9" height="2.1"/>
</svg>
