<?xml version="1.0" encoding="utf-8"?>
<!-- Generator: Adobe Illustrator 19.0.0, SVG Export Plug-In . SVG Version: 6.00 Build 0)  -->
<svg version="1.1" id="Layer_1" xmlns="http://www.w3.org/2000/svg" xmlns:xlink="http://www.w3.org/1999/xlink" x="0px" y="0px"
	 viewBox="0 0 1000 1000" style="enable-background:new 0 0 1000 1000;" xml:space="preserve">
<style type="text/css">
	.st0{fill:url(#XMLID_3_);}
	.st1{fill:url(#XMLID_4_);}
	.st2{fill:url(#XMLID_5_);}
	.st3{fill:none;}
	.st4{fill:url(#XMLID_6_);}
	.st5{fill:url(#XMLID_7_);}
	.st6{fill:url(#XMLID_8_);}
	.st7{fill:url(#XMLID_9_);}
	.st8{fill:url(#XMLID_10_);}
</style>
<g id="XMLID_1_">
	<linearGradient id="XMLID_3_" gradientUnits="userSpaceOnUse" x1="443.8678" y1="520.7137" x2="955.0037" y2="520.7137">
		<stop  offset="0" style="stop-color:#05557D"/>
		<stop  offset="0.2029" style="stop-color:#1376A2"/>
		<stop  offset="0.4108" style="stop-color:#1E91BF"/>
		<stop  offset="0.6158" style="stop-color:#26A4D5"/>
		<stop  offset="0.8146" style="stop-color:#2BB0E2"/>
		<stop  offset="1" style="stop-color:#2DB4E6"/>
	</linearGradient>
	<path id="XMLID_88_" class="st0" d="M955,209.3l-81.4,319.2l-35.2,142.1c-30.2,116.1-149.5,186.9-266.6,157.1
		c-54.5-13.9-98.8-47.2-127.9-90.5c21.6-11.3,41.3-26,58.1-43.8c0.1-0.1,0.2-0.2,0.3-0.4c19.3,30.5,49.8,54.4,87.5,64.1
		c78.2,19.9,157.9-27.8,178-104.5l34.9-142.2L866,261.9c10-39.1,49.7-62.7,88.8-52.7L955,209.3z"/>
	<linearGradient id="XMLID_4_" gradientUnits="userSpaceOnUse" x1="345.5588" y1="514.9229" x2="641.2188" y2="571.7927">
		<stop  offset="0" style="stop-color:#05557D"/>
		<stop  offset="0.2029" style="stop-color:#1376A2"/>
		<stop  offset="0.4108" style="stop-color:#1E91BF"/>
		<stop  offset="0.6158" style="stop-color:#26A4D5"/>
		<stop  offset="0.8146" style="stop-color:#2BB0E2"/>
		<stop  offset="1" style="stop-color:#2DB4E6"/>
	</linearGradient>
	<path id="XMLID_87_" class="st1" d="M544.3,708.6c-9.2,35.3-23.7,52-48.2,77.9c0-0.1-0.1-0.1-0.1-0.2c-16.9,17.9-36.6,32.8-58.3,44
		c0,0-0.1,0.1-0.2,0.1c-46.2,24.1-101.1,31.9-155.5,18c-54.5-13.9-99-47-128-90.3c26,6.1,46.4,10.2,89.1-9.1
		c16.1,13.3,35.4,23.3,56.9,28.8c37.8,9.6,76,3.6,107.6-14c0,0,0,0.1,0,0.1c31.5-17.6,56.4-46.2,68.1-82.7
		c0.8-2.5,20.2-79.3,20.2-79.3l80.3-318.4c9.9-39.2,49.7-62.9,88.8-52.9l0,0l-99,388.2L544.3,708.6z"/>
	<g id="XMLID_11_">
		<linearGradient id="XMLID_5_" gradientUnits="userSpaceOnUse" x1="105.0543" y1="615.1909" x2="651.1036" y2="140.8144">
			<stop  offset="0" style="stop-color:#86D4F0"/>
			<stop  offset="1" style="stop-color:#B8FFFF"/>
		</linearGradient>
		<path id="XMLID_86_" class="st2" d="M537.1,234.6c-33.9,30.5-124.7,86.5-210,147c-12.1,8.6-24.1,17.2-35.8,25.9
			c-54.2,40.3-103.1,81.2-127.2,116.8C138.8,561.6,127,667.7,154,704.3v0c-20-17.9-57-73.2-29.6-193.9c1.5-6.6,3.9-13.1,6.4-19.4
			c1.1-2.7,2.4-5.4,3.6-8.1c0.8-1.8,1.8-3.5,2.6-5.3c1.3-2.6,2.8-5.2,4.3-7.8c1-1.7,2-3.4,3.1-5.1c28.4-46.3,80.2-85.3,134.4-119.6
			c23.5-14.9,47.5-28.9,70.3-42.2c32.3-18.9,62-36.4,84.3-53.1c85.4-64.1,154.9-186.1,154.9-186.1c0,0,0,0,0,0.1
			C604.2,88.3,598.1,179.7,537.1,234.6z"/>
		<path id="XMLID_85_" class="st3" d="M342.7,649.4"/>
		<path id="XMLID_84_" class="st3" d="M131,756.6c-2.5-3.7-5.4-7.4-8.5-10.9"/>
		<linearGradient id="XMLID_6_" gradientUnits="userSpaceOnUse" x1="-53.3094" y1="1198.2644" x2="176.795" y2="811.1937">
			<stop  offset="0" style="stop-color:#2DB4E6"/>
			<stop  offset="0.2351" style="stop-color:#2AB0E2"/>
			<stop  offset="0.4872" style="stop-color:#23A3D6"/>
			<stop  offset="0.7461" style="stop-color:#178DC1"/>
			<stop  offset="1" style="stop-color:#0671A6"/>
		</linearGradient>
		<path id="XMLID_83_" class="st4" d="M96.7,959.4c0,0,94-115.3,34.3-202.8c26.2,26.3,58.6,55,97.4,65.8c-0.8,0.3-1.6,0.5-2.4,0.8
			C226,823.2,249.2,907.7,96.7,959.4z"/>
		<linearGradient id="XMLID_7_" gradientUnits="userSpaceOnUse" x1="59.2871" y1="728.4553" x2="661.1398" y2="-31.2104">
			<stop  offset="0" style="stop-color:#087FB9"/>
			<stop  offset="1" style="stop-color:#2DB4E6"/>
		</linearGradient>
		<path id="XMLID_82_" class="st5" d="M588.3,64.2c0,0-69.3,121.6-154.7,185.6c-85.4,64-281.8,139.9-309.2,260.6
			C97,631.1,134,686.5,154,704.3v0.9l0.5-0.9c28.4,39.5,118.1,54.8,187.5-54.9c0,0,25.4,55.1-12.4,107.6
			c-17.5,24.3-48.3,48-101.4,65.4c-38.8-10.7-71.2-39.5-97.3-65.8c-55.4-55.8-85.1-151.1-85.1-199.9C45.7,285.3,253.7,62.5,519,39
			c0,0,53.2,0.4,69.3,24.8L588.3,64.2z"/>
		<linearGradient id="XMLID_8_" gradientUnits="userSpaceOnUse" x1="264.0133" y1="330.4306" x2="366.2991" y2="322.7174">
			<stop  offset="0" style="stop-color:#0671A6"/>
			<stop  offset="0.2539" style="stop-color:#178DC1"/>
			<stop  offset="0.5128" style="stop-color:#23A3D6"/>
			<stop  offset="0.7649" style="stop-color:#2AB0E2"/>
			<stop  offset="1" style="stop-color:#2DB4E6"/>
		</linearGradient>
		<path id="XMLID_81_" class="st6" d="M379.9,242.6c-13,22.1-23.1,42.2-30.8,60.4c0,0.1,0,0.1-0.1,0.2c-13.6,32-19.8,57.9-21.9,78.5
			c-12.1,8.6-24.1,17.2-35.8,25.9c-7.9-11.7-14.1-26-14.1-42.9c0-6.5-1.2-13,0.8-19.3v-0.1c4-47.4,29-87.3,29-87.3L379.9,242.6z"/>
		<linearGradient id="XMLID_9_" gradientUnits="userSpaceOnUse" x1="238.6394" y1="594.1707" x2="461.7427" y2="3.5469">
			<stop  offset="0" style="stop-color:#087FB9"/>
			<stop  offset="1" style="stop-color:#2DB4E6"/>
		</linearGradient>
		<path id="XMLID_80_" class="st7" d="M317.5,249.9c0,0-35.1,51.4-35.1,106.8s71.7,82.4,71.7,82.4s-54.8-54.9,48.8-204.4
			L317.5,249.9z"/>
		<linearGradient id="XMLID_10_" gradientUnits="userSpaceOnUse" x1="456.8189" y1="100.2696" x2="884.8905" y2="100.2696">
			<stop  offset="0" style="stop-color:#0671A6"/>
			<stop  offset="0.2539" style="stop-color:#178DC1"/>
			<stop  offset="0.5128" style="stop-color:#23A3D6"/>
			<stop  offset="0.7649" style="stop-color:#2AB0E2"/>
			<stop  offset="1" style="stop-color:#2DB4E6"/>
		</linearGradient>
		<circle id="XMLID_79_" class="st8" cx="480.3" cy="100.3" r="17.4"/>
	</g>
</g>
</svg>
